Fira Code-Regular.ufo
<glyph name="exclam" format="1">
  <advance width="600"/>
  <unicode hex="0021"/>
  <outline>
    <contour>
      <point x="336" y="227" type="line"/>
      <point x="344" y="688" type="line"/>
      <point x="251" y="688" type="line"/>
      <point x="261" y="227" type="line"/>
    </contour>
    <contour>
      <point x="299" y="122" type="curve" smooth="yes"/>
      <point x="261" y="122"/>
      <point x="233" y="92"/>
      <point x="233" y="56" type="curve" smooth="yes"/>
      <point x="233" y="18"/>
      <point x="261" y="-11"/>
      <point x="299" y="-11" type="curve" smooth="yes"/>
      <point x="337" y="-11"/>
      <point x="366" y="18"/>
      <point x="366" y="56" type="curve" smooth="yes"/>
      <point x="366" y="92"/>
      <point x="337" y="122"/>
    </contour>
  </outline>
</glyph>
<glyph name="quotedbl" format="1">
  <advance width="600"/>
  <unicode hex="0022"/>
  <outline>
    <contour>
      <point x="331" y="739" type="line"/>
      <point x="347" y="479" type="line"/>
      <point x="420" y="479" type="line"/>
      <point x="436" y="739" type="line"/>
    </contour>
    <contour>
      <point x="164" y="739" type="line"/>
      <point x="180" y="479" type="line"/>
      <point x="253" y="479" type="line"/>
      <point x="269" y="739" type="line"/>
    </contour>
  </outline>
</glyph>
<glyph name="ampersand" format="1">
  <advance width="600"/>
  <unicode hex="0026"/>
  <outline>
    <contour>
      <point x="279" y="699" type="curve" smooth="yes"/>
      <point x="162" y="699"/>
      <point x="90" y="622"/>
      <point x="90" y="534" type="curve" smooth="yes"/>
      <point x="90" y="472"/>
      <point x="120" y="411"/>
      <point x="211" y="390" type="curve"/>
      <point x="211" y="387" type="line"/>
      <point x="110" y="366"/>
      <point x="54" y="298"/>
      <point x="54" y="195" type="curve" smooth="yes"/>
      <point x="54" y="92"/>
      <point x="121" y="-11"/>
      <point x="276" y="-11" type="curve" smooth="yes"/>
      <point x="392" y="-11"/>
      <point x="454" y="43"/>
      <point x="484" y="81" type="curve"/>
      <point x="484" y="354" type="line"/>
      <point x="573" y="354" type="line"/>
      <point x="573" y="419" type="line"/>
      <point x="295" y="419" type="line" smooth="yes"/>
      <point x="226" y="419"/>
      <point x="172" y="473"/>
      <point x="172" y="534" type="curve" smooth="yes"/>
      <point x="172" y="594"/>
      <point x="207" y="636"/>
      <point x="278" y="636" type="curve" smooth="yes"/>
      <point x="328" y="636"/>
      <point x="361" y="617"/>
      <point x="396" y="579" type="curve"/>
      <point x="446" y="624" type="line"/>
      <point x="391" y="684"/>
      <point x="338" y="699"/>
    </contour>
    <contour>
      <point x="283" y="354" type="curve" smooth="yes"/>
      <point x="408" y="354" type="line"/>
      <point x="408" y="109" type="line"/>
      <point x="381" y="75"/>
      <point x="334" y="56"/>
      <point x="279" y="56" type="curve" smooth="yes"/>
      <point x="177" y="56"/>
      <point x="135" y="125"/>
      <point x="135" y="198" type="curve" smooth="yes"/>
      <point x="135" y="269"/>
      <point x="179" y="354"/>
    </contour>
  </outline>
</glyph>
<glyph name="quotesingle" format="1">
  <advance width="600"/>
  <unicode hex="0027"/>
  <outline>
    <contour>
      <point x="248" y="739" type="line"/>
      <point x="263" y="479" type="line"/>
      <point x="337" y="479" type="line"/>
      <point x="352" y="739" type="line"/>
    </contour>
  </outline>
</glyph>
<glyph name="parenleft" format="1">
  <advance width="600"/>
  <unicode hex="0028"/>
  <outline>
    <contour>
      <point x="212" y="350" type="curve" smooth="yes"/>
      <point x="212" y="560"/>
      <point x="282" y="667"/>
      <point x="426" y="794" type="curve"/>
      <point x="383" y="840" type="line"/>
      <point x="220" y="707"/>
      <point x="125" y="578"/>
      <point x="125" y="350" type="curve" smooth="yes"/>
      <point x="125" y="122"/>
      <point x="220" y="-7"/>
      <point x="383" y="-140" type="curve"/>
      <point x="426" y="-94" type="line"/>
      <point x="283" y="32"/>
      <point x="212" y="141"/>
    </contour>
  </outline>
</glyph>
<glyph name="parenright" format="1">
  <advance width="600"/>
  <unicode hex="0029"/>
  <outline>
    <contour>
      <point x="388" y="350" type="curve" smooth="yes"/>
      <point x="388" y="141"/>
      <point x="317" y="32"/>
      <point x="174" y="-94" type="curve"/>
      <point x="217" y="-140" type="line"/>
      <point x="380" y="-7"/>
      <point x="475" y="122"/>
      <point x="475" y="350" type="curve" smooth="yes"/>
      <point x="475" y="578"/>
      <point x="380" y="707"/>
      <point x="217" y="840" type="curve"/>
      <point x="174" y="794" type="line"/>
      <point x="318" y="667"/>
      <point x="388" y="560"/>
    </contour>
  </outline>
</glyph>
<glyph name="asterisk" format="1">
  <advance width="600"/>
  <unicode hex="002A"/>
  <outline>
    <contour>
      <point x="327" y="362" type="line"/>
      <point x="342" y="526" type="line"/>
      <point x="258" y="526" type="line"/>
      <point x="272" y="362" type="line"/>
      <point x="122" y="425" type="line"/>
      <point x="96" y="345" type="line"/>
      <point x="256" y="309" type="line"/>
      <point x="149" y="182" type="line"/>
      <point x="220" y="135" type="line"/>
      <point x="301" y="278" type="line"/>
      <point x="388" y="137" type="line"/>
      <point x="456" y="189" type="line"/>
      <point x="346" y="309" type="line"/>
      <point x="504" y="345" type="line"/>
      <point x="479" y="425" type="line"/>
    </contour>
  </outline>
</glyph>
<glyph name="plus" format="1">
  <advance width="600"/>
  <unicode hex="002B"/>
  <outline>
    <contour>
      <point x="338" y="346" type="line"/>
      <point x="338" y="495" type="line"/>
      <point x="260" y="495" type="line"/>
      <point x="260" y="346" type="line"/>
      <point x="116" y="346" type="line"/>
      <point x="116" y="276" type="line"/>
      <point x="260" y="276" type="line"/>
      <point x="260" y="128" type="line"/>
      <point x="338" y="128" type="line"/>
      <point x="338" y="276" type="line"/>
      <point x="484" y="276" type="line"/>
      <point x="484" y="346" type="line"/>
    </contour>
  </outline>
</glyph>
<glyph name="comma" format="1">
  <advance width="600"/>
  <unicode hex="002C"/>
  <outline>
    <contour>
      <point x="300" y="164" type="curve" smooth="yes"/>
      <point x="255" y="164"/>
      <point x="220" y="128"/>
      <point x="220" y="84" type="curve" smooth="yes"/>
      <point x="220" y="58"/>
      <point x="233" y="33"/>
      <point x="253" y="18" type="curve"/>
      <point x="205" y="-179" type="line"/>
      <point x="280" y="-179" type="line"/>
      <point x="361" y="7" type="line"/>
      <point x="376" y="37"/>
      <point x="381" y="60"/>
      <point x="381" y="84" type="curve" smooth="yes"/>
      <point x="381" y="128"/>
      <point x="346" y="164"/>
    </contour>
  </outline>
</glyph>
<glyph name="hyphen" format="1">
  <advance width="600"/>
  <unicode hex="002D"/>
  <outline>
    <contour>
      <point x="125" y="349" type="line"/>
      <point x="125" y="277" type="line"/>
      <point x="475" y="277" type="line"/>
      <point x="475" y="349" type="line"/>
    </contour>
  </outline>
</glyph>
<glyph name="period" format="1">
  <advance width="600"/>
  <unicode hex="002E"/>
  <outline>
    <contour>
      <point x="212" y="77" type="curve" smooth="yes"/>
      <point x="212" y="27"/>
      <point x="249" y="-11"/>
      <point x="299" y="-11" type="curve" smooth="yes"/>
      <point x="350" y="-11"/>
      <point x="387" y="27"/>
      <point x="387" y="77" type="curve" smooth="yes"/>
      <point x="387" y="125"/>
      <point x="350" y="164"/>
      <point x="299" y="164" type="curve" smooth="yes"/>
      <point x="249" y="164"/>
      <point x="212" y="125"/>
    </contour>
  </outline>
</glyph>
<glyph name="slash" format="1">
  <advance width="600"/>
  <unicode hex="002F"/>
  <outline>
    <contour>
      <point x="53" y="-73" type="line"/>
      <point x="120" y="-103" type="line"/>
      <point x="547" y="777" type="line"/>
      <point x="481" y="809" type="line"/>
    </contour>
  </outline>
</glyph>
<glyph name="zero" format="1">
  <advance width="600"/>
  <unicode hex="0030"/>
  <outline>
    <contour>
      <point x="300" y="700" type="curve" smooth="yes"/>
      <point x="152" y="700"/>
      <point x="75" y="573"/>
      <point x="75" y="345" type="curve" smooth="yes"/>
      <point x="75" y="116"/>
      <point x="152" y="-11"/>
      <point x="300" y="-11" type="curve" smooth="yes"/>
      <point x="448" y="-11"/>
      <point x="525" y="116"/>
      <point x="525" y="345" type="curve" smooth="yes"/>
      <point x="525" y="573"/>
      <point x="448" y="700"/>
    </contour>
    <contour>
      <point x="300" y="632" type="curve" smooth="yes"/>
      <point x="387" y="632"/>
      <point x="438" y="548"/>
      <point x="438" y="345" type="curve" smooth="yes"/>
      <point x="438" y="140"/>
      <point x="387" y="56"/>
      <point x="300" y="56" type="curve" smooth="yes"/>
      <point x="214" y="56"/>
      <point x="162" y="141"/>
      <point x="162" y="345" type="curve" smooth="yes"/>
      <point x="162" y="549"/>
      <point x="215" y="632"/>
    </contour>
    <contour>
      <point x="300" y="410" type="curve" smooth="yes"/>
      <point x="263" y="410"/>
      <point x="235" y="381"/>
      <point x="235" y="345" type="curve" smooth="yes"/>
      <point x="235" y="308"/>
      <point x="263" y="279"/>
      <point x="300" y="279" type="curve" smooth="yes"/>
      <point x="338" y="279"/>
      <point x="366" y="308"/>
      <point x="366" y="345" type="curve" smooth="yes"/>
      <point x="366" y="381"/>
      <point x="338" y="410"/>
    </contour>
  </outline>
</glyph>
<glyph name="one" format="1">
  <advance width="600"/>
  <unicode hex="0031"/>
  <outline>
    <contour>
      <point x="517" y="68" type="line"/>
      <point x="373" y="68" type="line"/>
      <point x="373" y="688" type="line"/>
      <point x="300" y="688" type="line"/>
      <point x="96" y="562" type="line"/>
      <point x="132" y="503" type="line"/>
      <point x="290" y="598" type="line"/>
      <point x="290" y="68" type="line"/>
      <point x="120" y="68" type="line"/>
      <point x="120" y="0" type="line"/>
      <point x="517" y="0" type="line"/>
    </contour>
  </outline>
</glyph>
<glyph name="two" format="1">
  <advance width="600"/>
  <unicode hex="0032"/>
  <outline>
    <contour>
      <point x="269" y="700" type="curve" smooth="yes"/>
      <point x="176" y="700"/>
      <point x="114" y="667"/>
      <point x="59" y="601" type="curve"/>
      <point x="117" y="557" type="line"/>
      <point x="161" y="608"/>
      <point x="198" y="630"/>
      <point x="266" y="630" type="curve" smooth="yes"/>
      <point x="343" y="630"/>
      <point x="389" y="582"/>
      <point x="389" y="505" type="curve" smooth="yes"/>
      <point x="389" y="392"/>
      <point x="333" y="317"/>
      <point x="73" y="68" type="curve"/>
      <point x="73" y="0" type="line"/>
      <point x="482" y="0" type="line"/>
      <point x="492" y="71" type="line"/>
      <point x="168" y="71" type="line"/>
      <point x="395" y="278"/>
      <point x="476" y="381"/>
      <point x="476" y="507" type="curve" smooth="yes"/>
      <point x="476" y="617"/>
      <point x="399" y="700"/>
    </contour>
  </outline>
</glyph>
<glyph name="three" format="1">
  <advance width="600"/>
  <unicode hex="0033"/>
  <outline>
    <contour>
      <point x="269" y="700" type="curve" smooth="yes"/>
      <point x="199" y="700"/>
      <point x="132" y="676"/>
      <point x="74" y="620" type="curve"/>
      <point x="119" y="569" type="line"/>
      <point x="165" y="612"/>
      <point x="206" y="633"/>
      <point x="265" y="633" type="curve" smooth="yes"/>
      <point x="338" y="633"/>
      <point x="396" y="592"/>
      <point x="396" y="516" type="curve" smooth="yes"/>
      <point x="396" y="433"/>
      <point x="331" y="395"/>
      <point x="265" y="395" type="curve" smooth="yes"/>
      <point x="224" y="395" type="line"/>
      <point x="214" y="329" type="line"/>
      <point x="272" y="329" type="line" smooth="yes"/>
      <point x="353" y="329"/>
      <point x="415" y="297"/>
      <point x="415" y="198" type="curve" smooth="yes"/>
      <point x="415" y="112"/>
      <point x="358" y="57"/>
      <point x="261" y="57" type="curve" smooth="yes"/>
      <point x="205" y="57"/>
      <point x="147" y="80"/>
      <point x="108" y="126" type="curve"/>
      <point x="52" y="80" type="line"/>
      <point x="104" y="16"/>
      <point x="186" y="-11"/>
      <point x="263" y="-11" type="curve" smooth="yes"/>
      <point x="405" y="-11"/>
      <point x="502" y="79"/>
      <point x="502" y="198" type="curve" smooth="yes"/>
      <point x="502" y="305"/>
      <point x="426" y="361"/>
      <point x="345" y="367" type="curve"/>
      <point x="418" y="381"/>
      <point x="480" y="444"/>
      <point x="480" y="527" type="curve" smooth="yes"/>
      <point x="480" y="621"/>
      <point x="398" y="700"/>
    </contour>
  </outline>
</glyph>
<glyph name="four" format="1">
  <advance width="600"/>
  <unicode hex="0034"/>
  <outline>
    <contour>
      <point x="528" y="168" type="line"/>
      <point x="528" y="234" type="line"/>
      <point x="439" y="234" type="line"/>
      <point x="439" y="430" type="line"/>
      <point x="366" y="430" type="line"/>
      <point x="359" y="234" type="line"/>
      <point x="160" y="234" type="line"/>
      <point x="344" y="670" type="line"/>
      <point x="275" y="700" type="line"/>
      <point x="72" y="228" type="line"/>
      <point x="72" y="168" type="line"/>
      <point x="358" y="168" type="line"/>
      <point x="358" y="0" type="line"/>
      <point x="439" y="0" type="line"/>
      <point x="439" y="168" type="line"/>
    </contour>
  </outline>
</glyph>
<glyph name="five" format="1">
  <advance width="600"/>
  <unicode hex="0035"/>
  <outline>
    <contour>
      <point x="474" y="622" type="line"/>
      <point x="487" y="688" type="line"/>
      <point x="123" y="688" type="line"/>
      <point x="123" y="345" type="line"/>
      <point x="190" y="345" type="line"/>
      <point x="230" y="360"/>
      <point x="257" y="368"/>
      <point x="298" y="368" type="curve" smooth="yes"/>
      <point x="367" y="368"/>
      <point x="422" y="332"/>
      <point x="422" y="220" type="curve" smooth="yes"/>
      <point x="422" y="113"/>
      <point x="369" y="57"/>
      <point x="278" y="57" type="curve" smooth="yes"/>
      <point x="218" y="57"/>
      <point x="171" y="78"/>
      <point x="129" y="121" type="curve"/>
      <point x="78" y="71" type="line"/>
      <point x="131" y="19"/>
      <point x="194" y="-11"/>
      <point x="277" y="-11" type="curve" smooth="yes"/>
      <point x="418" y="-11"/>
      <point x="509" y="80"/>
      <point x="509" y="218" type="curve" smooth="yes"/>
      <point x="509" y="356"/>
      <point x="434" y="434"/>
      <point x="321" y="434" type="curve" smooth="yes"/>
      <point x="280" y="434"/>
      <point x="244" y="427"/>
      <point x="202" y="404" type="curve"/>
      <point x="202" y="622" type="line"/>
    </contour>
  </outline>
</glyph>
<glyph name="seven" format="1">
  <advance width="600"/>
  <unicode hex="0037"/>
  <outline>
    <contour>
      <point x="153" y="14" type="line"/>
      <point x="230" y="-9" type="line"/>
      <point x="505" y="625" type="line"/>
      <point x="505" y="688" type="line"/>
      <point x="98" y="688" type="line"/>
      <point x="98" y="619" type="line"/>
      <point x="421" y="619" type="line"/>
    </contour>
  </outline>
</glyph>
<glyph name="nine" format="1">
  <advance width="600"/>
  <unicode hex="0039"/>
  <outline>
    <contour>
      <point x="289" y="699" type="curve" smooth="yes"/>
      <point x="166" y="699"/>
      <point x="67" y="620"/>
      <point x="67" y="472" type="curve" smooth="yes"/>
      <point x="67" y="335"/>
      <point x="149" y="251"/>
      <point x="264" y="253" type="curve" smooth="yes"/>
      <point x="340" y="254"/>
      <point x="396" y="293"/>
      <point x="426" y="338" type="curve"/>
      <point x="424" y="170"/>
      <point x="312" y="92"/>
      <point x="128" y="42" type="curve"/>
      <point x="147" y="-21" type="line"/>
      <point x="404" y="52"/>
      <point x="513" y="138"/>
      <point x="513" y="433" type="curve" smooth="yes"/>
      <point x="513" y="597"/>
      <point x="442" y="699"/>
    </contour>
    <contour>
      <point x="279" y="319" type="curve" smooth="yes"/>
      <point x="200" y="318"/>
      <point x="153" y="364"/>
      <point x="153" y="469" type="curve" smooth="yes"/>
      <point x="153" y="575"/>
      <point x="199" y="631"/>
      <point x="289" y="631" type="curve" smooth="yes"/>
      <point x="385" y="631"/>
      <point x="430" y="577"/>
      <point x="428" y="414" type="curve"/>
      <point x="391" y="357"/>
      <point x="345" y="320"/>
    </contour>
  </outline>
</glyph>
<glyph name="colon" format="1">
  <advance width="600"/>
  <unicode hex="003A"/>
  <outline>
    <contour>
      <point x="219" y="431" type="curve" smooth="yes"/>
      <point x="219" y="386"/>
      <point x="253" y="349"/>
      <point x="299" y="349" type="curve" smooth="yes"/>
      <point x="345" y="349"/>
      <point x="380" y="386"/>
      <point x="380" y="431" type="curve" smooth="yes"/>
      <point x="380" y="475"/>
      <point x="345" y="511"/>
      <point x="299" y="511" type="curve" smooth="yes"/>
      <point x="253" y="511"/>
      <point x="219" y="475"/>
    </contour>
    <contour>
      <point x="219" y="70" type="curve" smooth="yes"/>
      <point x="219" y="24"/>
      <point x="253" y="-11"/>
      <point x="299" y="-11" type="curve" smooth="yes"/>
      <point x="345" y="-11"/>
      <point x="380" y="24"/>
      <point x="380" y="70" type="curve" smooth="yes"/>
      <point x="380" y="113"/>
      <point x="345" y="150"/>
      <point x="299" y="150" type="curve" smooth="yes"/>
      <point x="253" y="150"/>
      <point x="219" y="113"/>
    </contour>
  </outline>
</glyph>
<glyph name="semicolon" format="1">
  <advance width="600"/>
  <unicode hex="003B"/>
  <outline>
    <contour>
      <point x="299" y="511" type="curve" smooth="yes"/>
      <point x="253" y="511"/>
      <point x="219" y="475"/>
      <point x="219" y="431" type="curve" smooth="yes"/>
      <point x="219" y="386"/>
      <point x="253" y="349"/>
      <point x="299" y="349" type="curve" smooth="yes"/>
      <point x="345" y="349"/>
      <point x="380" y="386"/>
      <point x="380" y="431" type="curve" smooth="yes"/>
      <point x="380" y="475"/>
      <point x="345" y="511"/>
    </contour>
    <contour>
      <point x="299" y="165" type="curve" smooth="yes"/>
      <point x="254" y="165"/>
      <point x="219" y="129"/>
      <point x="219" y="85" type="curve" smooth="yes"/>
      <point x="219" y="58"/>
      <point x="231" y="33"/>
      <point x="251" y="18" type="curve"/>
      <point x="203" y="-180" type="line"/>
      <point x="279" y="-180" type="line"/>
      <point x="361" y="7" type="line" smooth="yes"/>
      <point x="375" y="38"/>
      <point x="380" y="61"/>
      <point x="380" y="85" type="curve" smooth="yes"/>
      <point x="380" y="129"/>
      <point x="345" y="165"/>
    </contour>
  </outline>
</glyph>
<glyph name="less" format="1">
  <advance width="600"/>
  <unicode hex="003C"/>
  <outline>
    <contour>
      <point x="513" y="530" type="line"/>
      <point x="472" y="594" type="line"/>
      <point x="88" y="356" type="line"/>
      <point x="88" y="271" type="line"/>
      <point x="468" y="33" type="line"/>
      <point x="513" y="94" type="line"/>
      <point x="159" y="313" type="line"/>
    </contour>
  </outline>
</glyph>
<glyph name="question" format="1">
  <advance width="600"/>
  <unicode hex="003F"/>
  <outline>
    <contour>
      <point x="299" y="700" type="curve" smooth="yes"/>
      <point x="219" y="700"/>
      <point x="148" y="669"/>
      <point x="90" y="601" type="curve"/>
      <point x="149" y="557" type="line"/>
      <point x="191" y="608"/>
      <point x="244" y="630"/>
      <point x="291" y="630" type="curve" smooth="yes"/>
      <point x="359" y="630"/>
      <point x="410" y="598"/>
      <point x="410" y="540" type="curve" smooth="yes"/>
      <point x="410" y="427"/>
      <point x="232" y="428"/>
      <point x="232" y="266" type="curve" smooth="yes"/>
      <point x="232" y="227" type="line"/>
      <point x="316" y="227" type="line"/>
      <point x="316" y="261" type="line" smooth="yes"/>
      <point x="316" y="408"/>
      <point x="496" y="386"/>
      <point x="496" y="545" type="curve" smooth="yes"/>
      <point x="496" y="624"/>
      <point x="422" y="700"/>
    </contour>
    <contour>
      <point x="277" y="122" type="curve" smooth="yes"/>
      <point x="239" y="122"/>
      <point x="211" y="92"/>
      <point x="211" y="56" type="curve" smooth="yes"/>
      <point x="211" y="18"/>
      <point x="239" y="-11"/>
      <point x="277" y="-11" type="curve" smooth="yes"/>
      <point x="315" y="-11"/>
      <point x="344" y="18"/>
      <point x="344" y="56" type="curve" smooth="yes"/>
      <point x="344" y="92"/>
      <point x="315" y="122"/>
    </contour>
  </outline>
</glyph>
<glyph name="at" format="1">
  <advance width="600"/>
  <unicode hex="0040"/>
  <outline>
    <contour>
      <point x="284" y="700" type="curve" smooth="yes"/>
      <point x="195" y="700"/>
      <point x="99" y="668"/>
      <point x="9" y="590" type="curve"/>
      <point x="58" y="535" type="line"/>
      <point x="143" y="610"/>
      <point x="219" y="627"/>
      <point x="285" y="627" type="curve" smooth="yes"/>
      <point x="469" y="627"/>
      <point x="500" y="474"/>
      <point x="500" y="284" type="curve" smooth="yes"/>
      <point x="500" y="113"/>
      <point x="500" y="-23"/>
      <point x="437" y="-23" type="curve" smooth="yes"/>
      <point x="398" y="-23"/>
      <point x="366" y="0"/>
      <point x="366" y="109" type="curve" smooth="yes"/>
      <point x="366" y="404" type="line"/>
      <point x="310" y="434"/>
      <point x="272" y="441"/>
      <point x="226" y="441" type="curve" smooth="yes"/>
      <point x="102" y="441"/>
      <point x="30" y="358"/>
      <point x="30" y="184" type="curve" smooth="yes"/>
      <point x="30" y="51"/>
      <point x="72" y="-46"/>
      <point x="180" y="-46" type="curve" smooth="yes"/>
      <point x="260" y="-46"/>
      <point x="298" y="5"/>
      <point x="317" y="52" type="curve"/>
      <point x="321" y="52" type="line"/>
      <point x="320" y="3"/>
      <point x="355" y="-91"/>
      <point x="439" y="-91" type="curve" smooth="yes"/>
      <point x="559" y="-91"/>
      <point x="585" y="33"/>
      <point x="585" y="285" type="curve" smooth="yes"/>
      <point x="585" y="488"/>
      <point x="542" y="700"/>
    </contour>
    <contour>
      <point x="230" y="380" type="curve" smooth="yes"/>
      <point x="254" y="380"/>
      <point x="273" y="376"/>
      <point x="294" y="365" type="curve"/>
      <point x="294" y="105" type="line"/>
      <point x="282" y="76"/>
      <point x="260" y="17"/>
      <point x="190" y="17" type="curve" smooth="yes"/>
      <point x="129" y="17"/>
      <point x="110" y="86"/>
      <point x="110" y="184" type="curve" smooth="yes"/>
      <point x="110" y="313"/>
      <point x="138" y="380"/>
    </contour>
  </outline>
</glyph>
<glyph name="B" format="1">
  <advance width="600"/>
  <unicode hex="0042"/>
  <outline>
    <contour>
      <point x="539" y="196" type="curve" smooth="yes"/>
      <point x="539" y="313"/>
      <point x="457" y="352"/>
      <point x="381" y="365" type="curve"/>
      <point x="447" y="379"/>
      <point x="509" y="426"/>
      <point x="509" y="515" type="curve" smooth="yes"/>
      <point x="509" y="650"/>
      <point x="386" y="688"/>
      <point x="266" y="688" type="curve" smooth="yes"/>
      <point x="97" y="688" type="line"/>
      <point x="97" y="0" type="line"/>
      <point x="281" y="0" type="line" smooth="yes"/>
      <point x="408" y="0"/>
      <point x="539" y="46"/>
    </contour>
    <contour>
      <point x="421" y="510" type="curve" smooth="yes"/>
      <point x="421" y="430"/>
      <point x="376" y="395"/>
      <point x="294" y="395" type="curve" smooth="yes"/>
      <point x="182" y="395" type="line"/>
      <point x="182" y="619" type="line"/>
      <point x="286" y="619" type="line" smooth="yes"/>
      <point x="369" y="619"/>
      <point x="421" y="589"/>
    </contour>
    <contour>
      <point x="449" y="193" type="curve" smooth="yes"/>
      <point x="449" y="91"/>
      <point x="364" y="71"/>
      <point x="297" y="71" type="curve" smooth="yes"/>
      <point x="182" y="71" type="line"/>
      <point x="182" y="324" type="line"/>
      <point x="301" y="324" type="line" smooth="yes"/>
      <point x="381" y="324"/>
      <point x="449" y="298"/>
    </contour>
  </outline>
</glyph>
<glyph name="F" format="1">
  <advance width="600"/>
  <unicode hex="0046"/>
  <outline>
    <contour>
      <point x="224" y="376" type="line"/>
      <point x="224" y="618" type="line"/>
      <point x="533" y="618" type="line"/>
      <point x="544" y="688" type="line"/>
      <point x="139" y="688" type="line"/>
      <point x="139" y="0" type="line"/>
      <point x="224" y="0" type="line"/>
      <point x="224" y="307" type="line"/>
      <point x="494" y="307" type="line"/>
      <point x="494" y="376" type="line"/>
    </contour>
  </outline>
</glyph>
<glyph name="H" format="1">
  <advance width="600"/>
  <unicode hex="0048"/>
  <outline>
    <contour>
      <point x="431" y="328" type="line"/>
      <point x="431" y="0" type="line"/>
      <point x="516" y="0" type="line"/>
      <point x="516" y="688" type="line"/>
      <point x="431" y="688" type="line"/>
      <point x="431" y="397" type="line"/>
      <point x="169" y="397" type="line"/>
      <point x="169" y="688" type="line"/>
      <point x="84" y="688" type="line"/>
      <point x="84" y="0" type="line"/>
      <point x="169" y="0" type="line"/>
      <point x="169" y="328" type="line"/>
    </contour>
  </outline>
</glyph>
<glyph name="K" format="1">
  <advance width="600"/>
  <unicode hex="004B"/>
  <outline>
    <contour>
      <point x="468" y="688" type="line"/>
      <point x="196" y="368" type="line"/>
      <point x="479" y="0" type="line"/>
      <point x="586" y="0" type="line"/>
      <point x="297" y="373" type="line"/>
      <point x="567" y="688" type="line"/>
    </contour>
    <contour>
      <point x="106" y="0" type="line"/>
      <point x="191" y="0" type="line"/>
      <point x="191" y="688" type="line"/>
      <point x="106" y="688" type="line"/>
    </contour>
  </outline>
</glyph>
<glyph name="L" format="1">
  <advance width="600"/>
  <unicode hex="004C"/>
  <outline>
    <contour>
      <point x="136" y="688" type="line"/>
      <point x="136" y="0" type="line"/>
      <point x="526" y="0" type="line"/>
      <point x="536" y="77" type="line"/>
      <point x="222" y="77" type="line"/>
      <point x="222" y="688" type="line"/>
    </contour>
  </outline>
</glyph>
<glyph name="M" format="1">
  <advance width="600"/>
  <unicode hex="004D"/>
  <outline>
    <contour>
      <point x="569" y="0" type="line"/>
      <point x="530" y="688" type="line"/>
      <point x="409" y="688" type="line"/>
      <point x="302" y="217" type="line"/>
      <point x="190" y="688" type="line"/>
      <point x="70" y="688" type="line"/>
      <point x="31" y="0" type="line"/>
      <point x="111" y="0" type="line"/>
      <point x="130" y="361" type="line" smooth="yes"/>
      <point x="134" y="447"/>
      <point x="134" y="573"/>
      <point x="134" y="590" type="curve"/>
      <point x="138" y="590" type="line"/>
      <point x="256" y="124" type="line"/>
      <point x="343" y="124" type="line"/>
      <point x="457" y="590" type="line"/>
      <point x="459" y="590" type="line"/>
      <point x="459" y="576"/>
      <point x="460" y="456"/>
      <point x="465" y="361" type="curve" smooth="yes"/>
      <point x="487" y="0" type="line"/>
    </contour>
  </outline>
</glyph>
<glyph name="P" format="1">
  <advance width="600"/>
  <unicode hex="0050"/>
  <outline>
    <contour>
      <point x="557" y="477" type="curve" smooth="yes"/>
      <point x="557" y="621"/>
      <point x="455" y="688"/>
      <point x="291" y="688" type="curve" smooth="yes"/>
      <point x="117" y="688" type="line"/>
      <point x="117" y="0" type="line"/>
      <point x="202" y="0" type="line"/>
      <point x="202" y="256" type="line"/>
      <point x="291" y="256" type="line" smooth="yes"/>
      <point x="446" y="256"/>
      <point x="557" y="316"/>
    </contour>
    <contour>
      <point x="465" y="476" type="curve" smooth="yes"/>
      <point x="465" y="358"/>
      <point x="395" y="325"/>
      <point x="299" y="325" type="curve" smooth="yes"/>
      <point x="202" y="325" type="line"/>
      <point x="202" y="620" type="line"/>
      <point x="302" y="620" type="line" smooth="yes"/>
      <point x="396" y="620"/>
      <point x="465" y="583"/>
    </contour>
  </outline>
</glyph>
<glyph name="Q" format="1">
  <advance width="600"/>
  <unicode hex="0051"/>
  <outline>
    <contour>
      <point x="553" y="344" type="curve" smooth="yes"/>
      <point x="553" y="556"/>
      <point x="467" y="700"/>
      <point x="300" y="700" type="curve" smooth="yes"/>
      <point x="132" y="700"/>
      <point x="46" y="551"/>
      <point x="46" y="342" type="curve" smooth="yes"/>
      <point x="46" y="130"/>
      <point x="132" y="-9"/>
      <point x="290" y="-9" type="curve" smooth="yes"/>
      <point x="409" y="-9"/>
      <point x="459" y="-67"/>
      <point x="501" y="-173" type="curve"/>
      <point x="592" y="-137" type="line"/>
      <point x="558" y="-37"/>
      <point x="507" y="7"/>
      <point x="416" y="26" type="curve"/>
      <point x="516" y="85"/>
      <point x="553" y="197"/>
    </contour>
    <contour>
      <point x="464" y="344" type="curve" smooth="yes"/>
      <point x="464" y="160"/>
      <point x="416" y="61"/>
      <point x="300" y="61" type="curve" smooth="yes"/>
      <point x="186" y="61"/>
      <point x="135" y="159"/>
      <point x="135" y="342" type="curve" smooth="yes"/>
      <point x="135" y="526"/>
      <point x="183" y="628"/>
      <point x="300" y="628" type="curve" smooth="yes"/>
      <point x="416" y="628"/>
      <point x="464" y="527"/>
    </contour>
  </outline>
</glyph>
<glyph name="T" format="1">
  <advance width="600"/>
  <unicode hex="0054"/>
  <outline>
    <contour>
      <point x="341" y="0" type="line"/>
      <point x="341" y="615" type="line"/>
      <point x="550" y="615" type="line"/>
      <point x="559" y="688" type="line"/>
      <point x="40" y="688" type="line"/>
      <point x="40" y="615" type="line"/>
      <point x="256" y="615" type="line"/>
      <point x="256" y="0" type="line"/>
    </contour>
  </outline>
</glyph>
<glyph name="U" format="1">
  <advance width="600"/>
  <unicode hex="0055"/>
  <outline>
    <contour>
      <point x="527" y="223" type="curve" smooth="yes"/>
      <point x="527" y="688" type="line"/>
      <point x="441" y="688" type="line"/>
      <point x="441" y="219" type="line" smooth="yes"/>
      <point x="441" y="114"/>
      <point x="389" y="63"/>
      <point x="299" y="63" type="curve" smooth="yes"/>
      <point x="210" y="63"/>
      <point x="158" y="114"/>
      <point x="158" y="219" type="curve" smooth="yes"/>
      <point x="158" y="688" type="line"/>
      <point x="73" y="688" type="line"/>
      <point x="73" y="223" type="line" smooth="yes"/>
      <point x="73" y="84"/>
      <point x="158" y="-11"/>
      <point x="299" y="-11" type="curve" smooth="yes"/>
      <point x="438" y="-11"/>
      <point x="527" y="83"/>
    </contour>
  </outline>
</glyph>
<glyph name="V" format="1">
  <advance width="600"/>
  <unicode hex="0056"/>
  <outline>
    <contour>
      <point x="489" y="688" type="line"/>
      <point x="302" y="98" type="line"/>
      <point x="117" y="688" type="line"/>
      <point x="25" y="688" type="line"/>
      <point x="256" y="0" type="line"/>
      <point x="344" y="0" type="line"/>
      <point x="575" y="688" type="line"/>
    </contour>
  </outline>
</glyph>
<glyph name="W" format="1">
  <advance width="600"/>
  <unicode hex="0057"/>
  <outline>
    <contour>
      <point x="490" y="0" type="line"/>
      <point x="595" y="688" type="line"/>
      <point x="516" y="688" type="line"/>
      <point x="434" y="107" type="line"/>
      <point x="430" y="107" type="line"/>
      <point x="354" y="608" type="line"/>
      <point x="248" y="608" type="line"/>
      <point x="166" y="103" type="line"/>
      <point x="162" y="103" type="line"/>
      <point x="91" y="688" type="line"/>
      <point x="5" y="688" type="line"/>
      <point x="102" y="0" type="line"/>
      <point x="218" y="0" type="line"/>
      <point x="296" y="505" type="line"/>
      <point x="300" y="505" type="line"/>
      <point x="377" y="0" type="line"/>
    </contour>
  </outline>
</glyph>
<glyph name="X" format="1">
  <advance width="600"/>
  <unicode hex="0058"/>
  <outline>
    <contour>
      <point x="148" y="688" type="line"/>
      <point x="50" y="688" type="line"/>
      <point x="248" y="367" type="line"/>
      <point x="31" y="0" type="line"/>
      <point x="123" y="0" type="line"/>
      <point x="298" y="312" type="line"/>
      <point x="470" y="0" type="line"/>
      <point x="569" y="0" type="line"/>
      <point x="349" y="372" type="line"/>
      <point x="545" y="688" type="line"/>
      <point x="452" y="688" type="line"/>
      <point x="300" y="423" type="line"/>
    </contour>
  </outline>
</glyph>
<glyph name="Y" format="1">
  <advance width="600"/>
  <unicode hex="0059"/>
  <outline>
    <contour>
      <point x="343" y="0" type="line"/>
      <point x="343" y="266" type="line"/>
      <point x="576" y="688" type="line"/>
      <point x="487" y="688" type="line"/>
      <point x="302" y="343" type="line"/>
      <point x="119" y="688" type="line"/>
      <point x="24" y="688" type="line"/>
      <point x="257" y="265" type="line"/>
      <point x="257" y="0" type="line"/>
    </contour>
  </outline>
</glyph>
<glyph name="Z" format="1">
  <advance width="600"/>
  <unicode hex="005A"/>
  <outline>
    <contour>
      <point x="527" y="74" type="line"/>
      <point x="166" y="74" type="line"/>
      <point x="528" y="618" type="line"/>
      <point x="528" y="688" type="line"/>
      <point x="108" y="688" type="line"/>
      <point x="108" y="615" type="line"/>
      <point x="436" y="615" type="line"/>
      <point x="72" y="70" type="line"/>
      <point x="72" y="0" type="line"/>
      <point x="517" y="0" type="line"/>
    </contour>
  </outline>
</glyph>
<glyph name="bracketleft" format="1">
  <advance width="600"/>
  <unicode hex="005B"/>
  <outline>
    <contour>
      <point x="184" y="815" type="line"/>
      <point x="184" y="-115" type="line"/>
      <point x="434" y="-115" type="line"/>
      <point x="434" y="-45" type="line"/>
      <point x="263" y="-45" type="line"/>
      <point x="263" y="744" type="line"/>
      <point x="434" y="744" type="line"/>
      <point x="434" y="815" type="line"/>
    </contour>
  </outline>
</glyph>
<glyph name="backslash" format="1">
  <advance width="600"/>
  <unicode hex="005C"/>
  <outline>
    <contour>
      <point x="119" y="809" type="line"/>
      <point x="53" y="777" type="line"/>
      <point x="480" y="-103" type="line"/>
      <point x="547" y="-73" type="line"/>
    </contour>
  </outline>
</glyph>
<glyph name="bracketright" format="1">
  <advance width="600"/>
  <unicode hex="005D"/>
  <outline>
    <contour>
      <point x="416" y="-115" type="line"/>
      <point x="416" y="815" type="line"/>
      <point x="166" y="815" type="line"/>
      <point x="166" y="744" type="line"/>
      <point x="337" y="744" type="line"/>
      <point x="337" y="-45" type="line"/>
      <point x="166" y="-45" type="line"/>
      <point x="166" y="-115" type="line"/>
    </contour>
  </outline>
</glyph>
<glyph name="asciicircum" format="1">
  <advance width="600"/>
  <unicode hex="005E"/>
  <outline>
    <contour>
      <point x="526" y="527" type="line"/>
      <point x="337" y="839" type="line"/>
      <point x="263" y="839" type="line"/>
      <point x="74" y="527" type="line"/>
      <point x="163" y="527" type="line"/>
      <point x="299" y="765" type="line"/>
      <point x="435" y="527" type="line"/>
    </contour>
  </outline>
</glyph>
<glyph name="underscore" format="1">
  <advance width="600"/>
  <unicode hex="005F"/>
  <outline>
    <contour>
      <point x="-7" y="-109" type="line"/>
      <point x="-7" y="-181" type="line"/>
      <point x="607" y="-181" type="line"/>
      <point x="607" y="-109" type="line"/>
    </contour>
  </outline>
</glyph>
<glyph name="grave" format="1">
  <advance width="600"/>
  <unicode hex="0060"/>
  <outline>
    <contour>
      <point x="185" y="715" type="line"/>
      <point x="387" y="624" type="line"/>
      <point x="414" y="670" type="line"/>
      <point x="229" y="787" type="line"/>
    </contour>
  </outline>
</glyph>
<glyph name="b" format="1">
  <advance width="600"/>
  <unicode hex="0062"/>
  <outline>
    <contour>
      <point x="184" y="458" type="curve"/>
      <point x="184" y="749" type="line"/>
      <point x="101" y="739" type="line"/>
      <point x="101" y="0" type="line"/>
      <point x="174" y="0" type="line"/>
      <point x="180" y="55" type="line"/>
      <point x="215" y="9"/>
      <point x="262" y="-11"/>
      <point x="323" y="-11" type="curve" smooth="yes"/>
      <point x="459" y="-11"/>
      <point x="532" y="104"/>
      <point x="532" y="264" type="curve" smooth="yes"/>
      <point x="532" y="429"/>
      <point x="475" y="538"/>
      <point x="334" y="538" type="curve" smooth="yes"/>
      <point x="274" y="538"/>
      <point x="222" y="509"/>
    </contour>
    <contour>
      <point x="304" y="56" type="curve" smooth="yes"/>
      <point x="255" y="56"/>
      <point x="212" y="82"/>
      <point x="184" y="124" type="curve"/>
      <point x="184" y="386" type="line"/>
      <point x="212" y="428"/>
      <point x="257" y="471"/>
      <point x="316" y="471" type="curve" smooth="yes"/>
      <point x="398" y="471"/>
      <point x="441" y="402"/>
      <point x="441" y="264" type="curve" smooth="yes"/>
      <point x="441" y="123"/>
      <point x="392" y="56"/>
    </contour>
  </outline>
</glyph>
<glyph name="c" format="1">
  <advance width="600"/>
  <unicode hex="0063"/>
  <outline>
    <contour>
      <point x="338" y="60" type="curve" smooth="yes"/>
      <point x="248" y="60"/>
      <point x="182" y="120"/>
      <point x="182" y="261" type="curve" smooth="yes"/>
      <point x="182" y="400"/>
      <point x="247" y="468"/>
      <point x="338" y="468" type="curve" smooth="yes"/>
      <point x="385" y="468"/>
      <point x="429" y="452"/>
      <point x="473" y="419" type="curve"/>
      <point x="515" y="476" type="line"/>
      <point x="465" y="517"/>
      <point x="407" y="538"/>
      <point x="339" y="538" type="curve" smooth="yes"/>
      <point x="182" y="538"/>
      <point x="92" y="419"/>
      <point x="92" y="261" type="curve" smooth="yes"/>
      <point x="92" y="96"/>
      <point x="181" y="-11"/>
      <point x="338" y="-11" type="curve" smooth="yes"/>
      <point x="400" y="-11"/>
      <point x="470" y="13"/>
      <point x="516" y="52" type="curve"/>
      <point x="476" y="110" type="line"/>
      <point x="437" y="79"/>
      <point x="392" y="60"/>
    </contour>
  </outline>
</glyph>
<glyph name="d" format="1">
  <advance width="600"/>
  <unicode hex="0064"/>
  <outline>
    <contour>
      <point x="296" y="471" type="curve" smooth="yes"/>
      <point x="345" y="471"/>
      <point x="388" y="445"/>
      <point x="416" y="403" type="curve"/>
      <point x="416" y="139" type="line"/>
      <point x="388" y="96"/>
      <point x="346" y="56"/>
      <point x="286" y="56" type="curve" smooth="yes"/>
      <point x="203" y="56"/>
      <point x="159" y="126"/>
      <point x="159" y="263" type="curve" smooth="yes"/>
      <point x="159" y="402"/>
      <point x="208" y="471"/>
    </contour>
    <contour>
      <point x="499" y="739" type="line"/>
      <point x="416" y="749" type="line"/>
      <point x="416" y="475" type="line"/>
      <point x="381" y="516"/>
      <point x="335" y="538"/>
      <point x="275" y="538" type="curve" smooth="yes"/>
      <point x="145" y="538"/>
      <point x="68" y="421"/>
      <point x="68" y="262" type="curve" smooth="yes"/>
      <point x="68" y="99"/>
      <point x="131" y="-11"/>
      <point x="269" y="-11" type="curve" smooth="yes"/>
      <point x="327" y="-11"/>
      <point x="379" y="14"/>
      <point x="418" y="69" type="curve"/>
      <point x="426" y="0" type="line"/>
      <point x="499" y="0" type="line"/>
    </contour>
  </outline>
</glyph>
<glyph name="f" format="1">
  <advance width="600"/>
  <unicode hex="0066"/>
  <outline>
    <contour>
      <point x="411" y="749" type="curve" smooth="yes"/>
      <point x="303" y="749"/>
      <point x="220" y="688"/>
      <point x="220" y="591" type="curve" smooth="yes"/>
      <point x="220" y="486" type="line"/>
      <point x="94" y="486" type="line"/>
      <point x="94" y="420" type="line"/>
      <point x="220" y="420" type="line"/>
      <point x="220" y="0" type="line"/>
      <point x="303" y="0" type="line"/>
      <point x="303" y="420" type="line"/>
      <point x="473" y="420" type="line"/>
      <point x="482" y="486" type="line"/>
      <point x="303" y="486" type="line"/>
      <point x="303" y="593" type="line" smooth="yes"/>
      <point x="303" y="652"/>
      <point x="340" y="681"/>
      <point x="414" y="681" type="curve" smooth="yes"/>
      <point x="454" y="681"/>
      <point x="493" y="674"/>
      <point x="527" y="658" type="curve"/>
      <point x="554" y="720" type="line"/>
      <point x="512" y="738"/>
      <point x="468" y="749"/>
    </contour>
  </outline>
</glyph>
<glyph name="g" format="1">
  <advance width="600"/>
  <unicode hex="0067"/>
  <outline>
    <contour>
      <point x="288" y="477" type="curve" smooth="yes"/>
      <point x="366" y="477"/>
      <point x="405" y="435"/>
      <point x="405" y="356" type="curve" smooth="yes"/>
      <point x="405" y="278"/>
      <point x="365" y="232"/>
      <point x="290" y="232" type="curve" smooth="yes"/>
      <point x="204" y="232"/>
      <point x="164" y="283"/>
      <point x="164" y="355" type="curve" smooth="yes"/>
      <point x="164" y="426"/>
      <point x="203" y="477"/>
    </contour>
    <contour>
      <point x="554" y="503" type="curve"/>
      <point x="528" y="582" type="line"/>
      <point x="467" y="555"/>
      <point x="421" y="538"/>
      <point x="289" y="538" type="curve" smooth="yes"/>
      <point x="164" y="538"/>
      <point x="79" y="462"/>
      <point x="79" y="355" type="curve" smooth="yes"/>
      <point x="79" y="287"/>
      <point x="107" y="241"/>
      <point x="167" y="210" type="curve"/>
      <point x="129" y="185"/>
      <point x="109" y="151"/>
      <point x="109" y="118" type="curve" smooth="yes"/>
      <point x="109" y="66"/>
      <point x="150" y="19"/>
      <point x="242" y="19" type="curve" smooth="yes"/>
      <point x="336" y="19" type="line" smooth="yes"/>
      <point x="403" y="19"/>
      <point x="455" y="-7"/>
      <point x="455" y="-57" type="curve" smooth="yes"/>
      <point x="455" y="-115"/>
      <point x="403" y="-144"/>
      <point x="287" y="-144" type="curve" smooth="yes"/>
      <point x="169" y="-144"/>
      <point x="141" y="-115"/>
      <point x="141" y="-53" type="curve"/>
      <point x="66" y="-53" type="line"/>
      <point x="66" y="-161"/>
      <point x="120" y="-212"/>
      <point x="288" y="-212" type="curve" smooth="yes"/>
      <point x="448" y="-212"/>
      <point x="539" y="-155"/>
      <point x="539" y="-52" type="curve" smooth="yes"/>
      <point x="539" y="29"/>
      <point x="459" y="91"/>
      <point x="353" y="91" type="curve" smooth="yes"/>
      <point x="258" y="91" type="line" smooth="yes"/>
      <point x="204" y="91"/>
      <point x="188" y="110"/>
      <point x="188" y="135" type="curve" smooth="yes"/>
      <point x="188" y="155"/>
      <point x="199" y="175"/>
      <point x="215" y="187" type="curve"/>
      <point x="237" y="180"/>
      <point x="258" y="176"/>
      <point x="294" y="176" type="curve" smooth="yes"/>
      <point x="418" y="176"/>
      <point x="492" y="251"/>
      <point x="492" y="356" type="curve" smooth="yes"/>
      <point x="492" y="416"/>
      <point x="461" y="460"/>
      <point x="400" y="488" type="curve"/>
      <point x="459" y="488"/>
      <point x="509" y="490"/>
    </contour>
  </outline>
</glyph>
<glyph name="i" format="1">
  <advance width="600"/>
  <unicode hex="0069"/>
  <outline>
    <contour>
      <point x="300" y="773" type="curve" smooth="yes"/>
      <point x="265" y="773"/>
      <point x="240" y="747"/>
      <point x="240" y="714" type="curve" smooth="yes"/>
      <point x="240" y="680"/>
      <point x="265" y="655"/>
      <point x="300" y="655" type="curve" smooth="yes"/>
      <point x="337" y="655"/>
      <point x="361" y="680"/>
      <point x="361" y="714" type="curve" smooth="yes"/>
      <point x="361" y="747"/>
      <point x="337" y="773"/>
    </contour>
    <contour>
      <point x="367" y="66" type="line"/>
      <point x="367" y="526" type="line"/>
      <point x="126" y="526" type="line"/>
      <point x="126" y="461" type="line"/>
      <point x="284" y="461" type="line"/>
      <point x="284" y="66" type="line"/>
      <point x="121" y="66" type="line"/>
      <point x="121" y="0" type="line"/>
      <point x="515" y="0" type="line"/>
      <point x="515" y="66" type="line"/>
    </contour>
  </outline>
</glyph>
<glyph name="j" format="1">
  <advance width="600"/>
  <unicode hex="006A"/>
  <outline>
    <contour>
      <point x="367" y="773" type="curve" smooth="yes"/>
      <point x="331" y="773"/>
      <point x="307" y="747"/>
      <point x="307" y="714" type="curve" smooth="yes"/>
      <point x="307" y="680"/>
      <point x="331" y="655"/>
      <point x="367" y="655" type="curve" smooth="yes"/>
      <point x="403" y="655"/>
      <point x="428" y="680"/>
      <point x="428" y="714" type="curve" smooth="yes"/>
      <point x="428" y="747"/>
      <point x="403" y="773"/>
    </contour>
    <contour>
      <point x="445" y="83" type="curve" smooth="yes"/>
      <point x="445" y="526" type="line"/>
      <point x="142" y="526" type="line"/>
      <point x="142" y="461" type="line"/>
      <point x="362" y="461" type="line"/>
      <point x="362" y="78" type="line" smooth="yes"/>
      <point x="362" y="-63"/>
      <point x="252" y="-122"/>
      <point x="96" y="-148" type="curve"/>
      <point x="110" y="-212" type="line"/>
      <point x="321" y="-176"/>
      <point x="445" y="-92"/>
    </contour>
  </outline>
</glyph>
<glyph name="k" format="1">
  <advance width="600"/>
  <unicode hex="006B"/>
  <outline>
    <contour>
      <point x="189" y="0" type="line"/>
      <point x="189" y="749" type="line"/>
      <point x="106" y="739" type="line"/>
      <point x="106" y="0" type="line"/>
    </contour>
    <contour>
      <point x="303" y="289" type="line"/>
      <point x="541" y="526" type="line"/>
      <point x="433" y="526" type="line"/>
      <point x="199" y="288" type="line"/>
      <point x="459" y="0" type="line"/>
      <point x="569" y="0" type="line"/>
    </contour>
  </outline>
</glyph>
<glyph name="m" format="1">
  <advance width="600"/>
  <unicode hex="006D"/>
  <outline>
    <contour>
      <point x="447" y="538" type="curve" smooth="yes"/>
      <point x="393" y="538"/>
      <point x="360" y="509"/>
      <point x="331" y="468" type="curve"/>
      <point x="315" y="522"/>
      <point x="276" y="538"/>
      <point x="236" y="538" type="curve" smooth="yes"/>
      <point x="183" y="538"/>
      <point x="150" y="506"/>
      <point x="121" y="465" type="curve"/>
      <point x="116" y="526" type="line"/>
      <point x="51" y="526" type="line"/>
      <point x="51" y="0" type="line"/>
      <point x="128" y="0" type="line"/>
      <point x="128" y="409" type="line"/>
      <point x="157" y="454"/>
      <point x="187" y="473"/>
      <point x="220" y="473" type="curve" smooth="yes"/>
      <point x="258" y="473"/>
      <point x="261" y="445"/>
      <point x="261" y="378" type="curve" smooth="yes"/>
      <point x="261" y="0" type="line"/>
      <point x="339" y="0" type="line"/>
      <point x="339" y="409" type="line"/>
      <point x="368" y="454"/>
      <point x="400" y="473"/>
      <point x="431" y="473" type="curve" smooth="yes"/>
      <point x="469" y="473"/>
      <point x="472" y="445"/>
      <point x="472" y="378" type="curve" smooth="yes"/>
      <point x="472" y="0" type="line"/>
      <point x="549" y="0" type="line"/>
      <point x="549" y="392" type="line" smooth="yes"/>
      <point x="549" y="513"/>
      <point x="497" y="538"/>
    </contour>
  </outline>
</glyph>
<glyph name="q" format="1">
  <advance width="600"/>
  <unicode hex="0071"/>
  <outline>
    <contour>
      <point x="274" y="538" type="curve" smooth="yes"/>
      <point x="144" y="538"/>
      <point x="74" y="421"/>
      <point x="74" y="262" type="curve" smooth="yes"/>
      <point x="74" y="97"/>
      <point x="126" y="-11"/>
      <point x="268" y="-11" type="curve" smooth="yes"/>
      <point x="325" y="-11"/>
      <point x="377" y="13"/>
      <point x="416" y="67" type="curve"/>
      <point x="416" y="-202" type="line"/>
      <point x="499" y="-212" type="line"/>
      <point x="499" y="526" type="line"/>
      <point x="428" y="526" type="line"/>
      <point x="421" y="469" type="line"/>
      <point x="386" y="513"/>
      <point x="338" y="538"/>
    </contour>
    <contour>
      <point x="295" y="471" type="curve" smooth="yes"/>
      <point x="345" y="471"/>
      <point x="389" y="445"/>
      <point x="416" y="403" type="curve"/>
      <point x="416" y="139" type="line"/>
      <point x="388" y="96"/>
      <point x="344" y="58"/>
      <point x="285" y="58" type="curve" smooth="yes"/>
      <point x="203" y="58"/>
      <point x="163" y="126"/>
      <point x="163" y="263" type="curve" smooth="yes"/>
      <point x="163" y="402"/>
      <point x="207" y="471"/>
    </contour>
  </outline>
</glyph>
<glyph name="u" format="1">
  <advance width="600"/>
  <unicode hex="0075"/>
  <outline>
    <contour>
      <point x="184" y="153" type="curve" smooth="yes"/>
      <point x="184" y="526" type="line"/>
      <point x="101" y="526" type="line"/>
      <point x="101" y="143" type="line" smooth="yes"/>
      <point x="101" y="46"/>
      <point x="151" y="-11"/>
      <point x="253" y="-11" type="curve" smooth="yes"/>
      <point x="314" y="-11"/>
      <point x="380" y="18"/>
      <point x="421" y="71" type="curve"/>
      <point x="428" y="0" type="line"/>
      <point x="499" y="0" type="line"/>
      <point x="499" y="526" type="line"/>
      <point x="416" y="526" type="line"/>
      <point x="416" y="139" type="line"/>
      <point x="388" y="94"/>
      <point x="331" y="55"/>
      <point x="273" y="55" type="curve" smooth="yes"/>
      <point x="212" y="55"/>
      <point x="184" y="84"/>
    </contour>
  </outline>
</glyph>
<glyph name="v" format="1">
  <advance width="600"/>
  <unicode hex="0076"/>
  <outline>
    <contour>
      <point x="347" y="0" type="line"/>
      <point x="539" y="526" type="line"/>
      <point x="453" y="526" type="line"/>
      <point x="302" y="76" type="line"/>
      <point x="149" y="526" type="line"/>
      <point x="61" y="526" type="line"/>
      <point x="251" y="0" type="line"/>
    </contour>
  </outline>
</glyph>
<glyph name="w" format="1">
  <advance width="600"/>
  <unicode hex="0077"/>
  <outline>
    <contour>
      <point x="372" y="0" type="line"/>
      <point x="490" y="0" type="line"/>
      <point x="582" y="526" type="line"/>
      <point x="501" y="526" type="line"/>
      <point x="433" y="66" type="line"/>
      <point x="429" y="66" type="line"/>
      <point x="354" y="459" type="line"/>
      <point x="255" y="459" type="line"/>
      <point x="175" y="64" type="line"/>
      <point x="171" y="64" type="line"/>
      <point x="103" y="526" type="line"/>
      <point x="18" y="526" type="line"/>
      <point x="114" y="0" type="line"/>
      <point x="229" y="0" type="line"/>
      <point x="300" y="378" type="line"/>
      <point x="304" y="378" type="line"/>
    </contour>
  </outline>
</glyph>
<glyph name="z" format="1">
  <advance width="600"/>
  <unicode hex="007A"/>
  <outline>
    <contour>
      <point x="498" y="71" type="line"/>
      <point x="204" y="71" type="line"/>
      <point x="495" y="462" type="line"/>
      <point x="495" y="526" type="line"/>
      <point x="126" y="526" type="line"/>
      <point x="126" y="454" type="line"/>
      <point x="395" y="454" type="line"/>
      <point x="103" y="63" type="line"/>
      <point x="103" y="0" type="line"/>
      <point x="487" y="0" type="line"/>
    </contour>
  </outline>
</glyph>
<glyph name="braceleft" format="1">
  <advance width="600"/>
  <unicode hex="007B"/>
  <outline>
    <contour>
      <point x="451" y="770" type="curve"/>
      <point x="451" y="835" type="line"/>
      <point x="340" y="835"/>
      <point x="236" y="802"/>
      <point x="249" y="680" type="curve" smooth="yes"/>
      <point x="269" y="488" type="line" smooth="yes"/>
      <point x="276" y="420"/>
      <point x="253" y="383"/>
      <point x="117" y="383" type="curve"/>
      <point x="117" y="317" type="line"/>
      <point x="252" y="317"/>
      <point x="276" y="279"/>
      <point x="269" y="211" type="curve" smooth="yes"/>
      <point x="249" y="20" type="line" smooth="yes"/>
      <point x="236" y="-102"/>
      <point x="340" y="-135"/>
      <point x="451" y="-135" type="curve"/>
      <point x="451" y="-70" type="line"/>
      <point x="378" y="-70"/>
      <point x="319" y="-52"/>
      <point x="325" y="10" type="curve" smooth="yes"/>
      <point x="346" y="216" type="line" smooth="yes"/>
      <point x="354" y="304"/>
      <point x="323" y="337"/>
      <point x="253" y="350" type="curve"/>
      <point x="321" y="363"/>
      <point x="354" y="400"/>
      <point x="346" y="484" type="curve" smooth="yes"/>
      <point x="325" y="690" type="line" smooth="yes"/>
      <point x="319" y="751"/>
      <point x="378" y="770"/>
    </contour>
  </outline>
</glyph>
<glyph name="bar" format="1">
  <advance width="600"/>
  <unicode hex="007C"/>
  <outline>
    <contour>
      <point x="337" y="-102" type="line"/>
      <point x="337" y="807" type="line"/>
      <point x="262" y="807" type="line"/>
      <point x="262" y="-102" type="line"/>
    </contour>
  </outline>
</glyph>
<glyph name="braceright" format="1">
  <advance width="600"/>
  <unicode hex="007D"/>
  <outline>
    <contour>
      <point x="149" y="835" type="curve"/>
      <point x="149" y="770" type="line"/>
      <point x="222" y="770"/>
      <point x="281" y="751"/>
      <point x="275" y="690" type="curve" smooth="yes"/>
      <point x="254" y="484" type="line" smooth="yes"/>
      <point x="246" y="400"/>
      <point x="279" y="363"/>
      <point x="358" y="349" type="curve"/>
      <point x="276" y="337"/>
      <point x="246" y="304"/>
      <point x="254" y="216" type="curve" smooth="yes"/>
      <point x="275" y="10" type="line" smooth="yes"/>
      <point x="281" y="-52"/>
      <point x="222" y="-70"/>
      <point x="149" y="-70" type="curve"/>
      <point x="149" y="-135" type="line"/>
      <point x="260" y="-135"/>
      <point x="364" y="-102"/>
      <point x="351" y="20" type="curve" smooth="yes"/>
      <point x="331" y="211" type="line" smooth="yes"/>
      <point x="324" y="279"/>
      <point x="359" y="317"/>
      <point x="483" y="317" type="curve"/>
      <point x="483" y="383" type="line"/>
      <point x="359" y="383"/>
      <point x="324" y="420"/>
      <point x="331" y="488" type="curve" smooth="yes"/>
      <point x="351" y="680" type="line" smooth="yes"/>
      <point x="364" y="802"/>
      <point x="260" y="835"/>
    </contour>
  </outline>
</glyph>
<glyph name="exclamdown" format="1">
  <advance width="600"/>
  <unicode hex="00A1"/>
  <outline>
    <contour>
      <point x="299" y="498" type="curve" smooth="yes"/>
      <point x="261" y="498"/>
      <point x="233" y="469"/>
      <point x="233" y="431" type="curve" smooth="yes"/>
      <point x="233" y="395"/>
      <point x="261" y="365"/>
      <point x="299" y="365" type="curve" smooth="yes"/>
      <point x="336" y="365"/>
      <point x="366" y="395"/>
      <point x="366" y="431" type="curve" smooth="yes"/>
      <point x="366" y="469"/>
      <point x="336" y="498"/>
    </contour>
    <contour>
      <point x="347" y="-197" type="line"/>
      <point x="335" y="261" type="line"/>
      <point x="263" y="261" type="line"/>
      <point x="251" y="-197" type="line"/>
    </contour>
  </outline>
</glyph>
<glyph name="cent" format="1">
  <advance width="600"/>
  <unicode hex="00A2"/>
  <outline>
    <contour>
      <point x="373" y="533" type="curve"/>
      <point x="373" y="683" type="line"/>
      <point x="299" y="683" type="line"/>
      <point x="299" y="532" type="line"/>
      <point x="171" y="514"/>
      <point x="106" y="405"/>
      <point x="106" y="261" type="curve" smooth="yes"/>
      <point x="106" y="110"/>
      <point x="172" y="10"/>
      <point x="298" y="-6" type="curve"/>
      <point x="298" y="-153" type="line"/>
      <point x="373" y="-153" type="line"/>
      <point x="373" y="-6" type="line"/>
      <point x="415" y="-1"/>
      <point x="456" y="14"/>
      <point x="494" y="46" type="curve"/>
      <point x="453" y="105" type="line"/>
      <point x="410" y="71"/>
      <point x="376" y="60"/>
      <point x="336" y="60" type="curve" smooth="yes"/>
      <point x="250" y="60"/>
      <point x="196" y="120"/>
      <point x="196" y="261" type="curve" smooth="yes"/>
      <point x="196" y="400"/>
      <point x="249" y="468"/>
      <point x="336" y="468" type="curve" smooth="yes"/>
      <point x="375" y="468"/>
      <point x="408" y="459"/>
      <point x="452" y="427" type="curve"/>
      <point x="494" y="482" type="line"/>
      <point x="456" y="513"/>
      <point x="415" y="528"/>
    </contour>
  </outline>
</glyph>
<glyph name="sterling" format="1">
  <advance width="600"/>
  <unicode hex="00A3"/>
  <outline>
    <contour>
      <point x="346" y="700" type="curve" smooth="yes"/>
      <point x="228" y="700"/>
      <point x="157" y="621"/>
      <point x="157" y="516" type="curve" smooth="yes"/>
      <point x="157" y="387" type="line"/>
      <point x="75" y="387" type="line"/>
      <point x="75" y="329" type="line"/>
      <point x="157" y="329" type="line"/>
      <point x="157" y="200" type="line" smooth="yes"/>
      <point x="157" y="139"/>
      <point x="154" y="93"/>
      <point x="75" y="67" type="curve"/>
      <point x="75" y="0" type="line"/>
      <point x="507" y="0" type="line"/>
      <point x="517" y="71" type="line"/>
      <point x="178" y="71" type="line"/>
      <point x="230" y="100"/>
      <point x="240" y="150"/>
      <point x="240" y="204" type="curve" smooth="yes"/>
      <point x="240" y="329" type="line"/>
      <point x="447" y="329" type="line"/>
      <point x="447" y="387" type="line"/>
      <point x="240" y="387" type="line"/>
      <point x="240" y="508" type="line" smooth="yes"/>
      <point x="240" y="588"/>
      <point x="278" y="630"/>
      <point x="349" y="630" type="curve" smooth="yes"/>
      <point x="398" y="630"/>
      <point x="435" y="612"/>
      <point x="469" y="571" type="curve"/>
      <point x="525" y="614" type="line"/>
      <point x="481" y="675"/>
      <point x="418" y="700"/>
    </contour>
  </outline>
</glyph>
<glyph name="yen" format="1">
  <advance width="600"/>
  <unicode hex="00A5"/>
  <outline>
    <contour>
      <point x="366" y="345" type="line"/>
      <point x="560" y="688" type="line"/>
      <point x="472" y="688" type="line"/>
      <point x="305" y="372" type="line"/>
      <point x="301" y="372" type="line"/>
      <point x="134" y="688" type="line"/>
      <point x="40" y="688" type="line"/>
      <point x="233" y="345" type="line"/>
      <point x="116" y="345" type="line"/>
      <point x="116" y="287" type="line"/>
      <point x="256" y="287" type="line"/>
      <point x="256" y="201" type="line"/>
      <point x="116" y="201" type="line"/>
      <point x="116" y="143" type="line"/>
      <point x="256" y="143" type="line"/>
      <point x="256" y="0" type="line"/>
      <point x="344" y="0" type="line"/>
      <point x="344" y="143" type="line"/>
      <point x="486" y="143" type="line"/>
      <point x="486" y="201" type="line"/>
      <point x="344" y="201" type="line"/>
      <point x="344" y="287" type="line"/>
      <point x="486" y="287" type="line"/>
      <point x="486" y="345" type="line"/>
    </contour>
  </outline>
</glyph>
<glyph name="brokenbar" format="1">
  <advance width="600"/>
  <unicode hex="00A6"/>
  <outline>
    <contour>
      <point x="337" y="452" type="line"/>
      <point x="337" y="807" type="line"/>
      <point x="262" y="807" type="line"/>
      <point x="262" y="452" type="line"/>
    </contour>
    <contour>
      <point x="337" y="-102" type="line"/>
      <point x="337" y="253" type="line"/>
      <point x="262" y="253" type="line"/>
      <point x="262" y="-102" type="line"/>
    </contour>
  </outline>
</glyph>
<glyph name="dieresis" format="1">
  <advance width="600"/>
  <unicode hex="00A8"/>
  <outline>
    <contour>
      <point x="402" y="648" type="curve" smooth="yes"/>
      <point x="434" y="648"/>
      <point x="457" y="671"/>
      <point x="457" y="701" type="curve" smooth="yes"/>
      <point x="457" y="732"/>
      <point x="434" y="755"/>
      <point x="402" y="755" type="curve" smooth="yes"/>
      <point x="372" y="755"/>
      <point x="349" y="732"/>
      <point x="349" y="701" type="curve" smooth="yes"/>
      <point x="349" y="671"/>
      <point x="372" y="648"/>
    </contour>
    <contour>
      <point x="196" y="648" type="curve" smooth="yes"/>
      <point x="226" y="648"/>
      <point x="250" y="671"/>
      <point x="250" y="701" type="curve" smooth="yes"/>
      <point x="250" y="732"/>
      <point x="226" y="755"/>
      <point x="196" y="755" type="curve" smooth="yes"/>
      <point x="165" y="755"/>
      <point x="142" y="732"/>
      <point x="142" y="701" type="curve" smooth="yes"/>
      <point x="142" y="671"/>
      <point x="165" y="648"/>
    </contour>
  </outline>
</glyph>
<glyph name="copyright" format="1">
  <advance width="600"/>
  <unicode hex="00A9"/>
  <outline>
    <contour>
      <point x="301" y="747" type="curve" smooth="yes"/>
      <point x="128" y="747"/>
      <point x="30" y="608"/>
      <point x="30" y="435" type="curve" smooth="yes"/>
      <point x="30" y="264"/>
      <point x="129" y="125"/>
      <point x="301" y="125" type="curve" smooth="yes"/>
      <point x="472" y="125"/>
      <point x="570" y="264"/>
      <point x="570" y="435" type="curve" smooth="yes"/>
      <point x="570" y="608"/>
      <point x="472" y="747"/>
    </contour>
    <contour>
      <point x="301" y="697" type="curve" smooth="yes"/>
      <point x="445" y="697"/>
      <point x="516" y="580"/>
      <point x="516" y="435" type="curve" smooth="yes"/>
      <point x="516" y="291"/>
      <point x="445" y="176"/>
      <point x="301" y="176" type="curve" smooth="yes"/>
      <point x="156" y="176"/>
      <point x="85" y="291"/>
      <point x="85" y="435" type="curve" smooth="yes"/>
      <point x="85" y="580"/>
      <point x="156" y="697"/>
    </contour>
    <contour>
      <point x="304" y="625" type="curve" smooth="yes"/>
      <point x="218" y="625"/>
      <point x="142" y="560"/>
      <point x="142" y="436" type="curve" smooth="yes"/>
      <point x="142" y="314"/>
      <point x="211" y="247"/>
      <point x="305" y="247" type="curve" smooth="yes"/>
      <point x="361" y="247"/>
      <point x="399" y="270"/>
      <point x="426" y="294" type="curve"/>
      <point x="394" y="342" type="line"/>
      <point x="370" y="320"/>
      <point x="343" y="307"/>
      <point x="307" y="307" type="curve" smooth="yes"/>
      <point x="252" y="307"/>
      <point x="213" y="348"/>
      <point x="213" y="436" type="curve" smooth="yes"/>
      <point x="213" y="531"/>
      <point x="255" y="569"/>
      <point x="307" y="569" type="curve" smooth="yes"/>
      <point x="334" y="569"/>
      <point x="360" y="560"/>
      <point x="386" y="539" type="curve"/>
      <point x="421" y="586" type="line"/>
      <point x="386" y="613"/>
      <point x="356" y="625"/>
    </contour>
  </outline>
</glyph>
<glyph name="ordfeminine" format="1">
  <advance width="600"/>
  <unicode hex="00AA"/>
  <outline>
    <contour>
      <point x="290" y="749" type="curve" smooth="yes"/>
      <point x="245" y="749"/>
      <point x="193" y="741"/>
      <point x="135" y="719" type="curve"/>
      <point x="157" y="661" type="line"/>
      <point x="206" y="678"/>
      <point x="251" y="685"/>
      <point x="279" y="685" type="curve" smooth="yes"/>
      <point x="341" y="685"/>
      <point x="378" y="663"/>
      <point x="378" y="607" type="curve" smooth="yes"/>
      <point x="378" y="576" type="line"/>
      <point x="319" y="576" type="line" smooth="yes"/>
      <point x="184" y="576"/>
      <point x="102" y="528"/>
      <point x="102" y="440" type="curve" smooth="yes"/>
      <point x="102" y="360"/>
      <point x="163" y="307"/>
      <point x="254" y="307" type="curve" smooth="yes"/>
      <point x="305" y="307"/>
      <point x="355" y="328"/>
      <point x="388" y="366" type="curve"/>
      <point x="402" y="329"/>
      <point x="430" y="312"/>
      <point x="471" y="307" type="curve"/>
      <point x="489" y="361" type="line"/>
      <point x="467" y="368"/>
      <point x="456" y="381"/>
      <point x="456" y="411" type="curve" smooth="yes"/>
      <point x="456" y="609" type="line" smooth="yes"/>
      <point x="456" y="696"/>
      <point x="402" y="749"/>
    </contour>
    <contour>
      <point x="320" y="521" type="curve" smooth="yes"/>
      <point x="378" y="521" type="line"/>
      <point x="378" y="422" type="line"/>
      <point x="352" y="388"/>
      <point x="313" y="366"/>
      <point x="273" y="366" type="curve" smooth="yes"/>
      <point x="218" y="366"/>
      <point x="186" y="392"/>
      <point x="186" y="443" type="curve" smooth="yes"/>
      <point x="186" y="493"/>
      <point x="226" y="521"/>
    </contour>
    <contour>
      <point x="498" y="0" type="line"/>
      <point x="498" y="75" type="line"/>
      <point x="106" y="75" type="line"/>
      <point x="106" y="0" type="line"/>
    </contour>
  </outline>
</glyph>
<glyph name="guillemotleft" format="1">
  <advance width="600"/>
  <unicode hex="00AB"/>
  <outline>
    <contour>
      <point x="466" y="56" type="line"/>
      <point x="516" y="88" type="line"/>
      <point x="381" y="294" type="line"/>
      <point x="516" y="500" type="line"/>
      <point x="466" y="532" type="line"/>
      <point x="289" y="323" type="line"/>
      <point x="289" y="263" type="line"/>
    </contour>
    <contour>
      <point x="258" y="56" type="line"/>
      <point x="308" y="88" type="line"/>
      <point x="173" y="294" type="line"/>
      <point x="308" y="500" type="line"/>
      <point x="258" y="532" type="line"/>
      <point x="83" y="323" type="line"/>
      <point x="83" y="263" type="line"/>
    </contour>
  </outline>
</glyph>
<glyph name="softhyphen" format="1">
  <advance width="600"/>
  <unicode hex="00AD"/>
  <outline>
    <contour>
      <point x="144" y="349" type="line"/>
      <point x="144" y="277" type="line"/>
      <point x="456" y="277" type="line"/>
      <point x="456" y="349" type="line"/>
    </contour>
  </outline>
</glyph>
<glyph name="registered" format="1">
  <advance width="600"/>
  <unicode hex="00AE"/>
  <outline>
    <contour>
      <point x="300" y="747" type="curve" smooth="yes"/>
      <point x="160" y="747"/>
      <point x="47" y="632"/>
      <point x="47" y="492" type="curve" smooth="yes"/>
      <point x="47" y="352"/>
      <point x="160" y="239"/>
      <point x="300" y="239" type="curve" smooth="yes"/>
      <point x="440" y="239"/>
      <point x="552" y="352"/>
      <point x="552" y="492" type="curve" smooth="yes"/>
      <point x="552" y="632"/>
      <point x="440" y="747"/>
    </contour>
    <contour>
      <point x="300" y="700" type="curve" smooth="yes"/>
      <point x="415" y="700"/>
      <point x="500" y="607"/>
      <point x="500" y="492" type="curve" smooth="yes"/>
      <point x="500" y="377"/>
      <point x="415" y="286"/>
      <point x="300" y="286" type="curve" smooth="yes"/>
      <point x="185" y="286"/>
      <point x="99" y="377"/>
      <point x="99" y="492" type="curve" smooth="yes"/>
      <point x="99" y="607"/>
      <point x="185" y="700"/>
    </contour>
    <contour>
      <point x="257" y="592" type="line"/>
      <point x="287" y="592" type="line" smooth="yes"/>
      <point x="331" y="592"/>
      <point x="350" y="578"/>
      <point x="350" y="551" type="curve" smooth="yes"/>
      <point x="350" y="518"/>
      <point x="328" y="506"/>
      <point x="289" y="506" type="curve" smooth="yes"/>
      <point x="257" y="506" type="line"/>
    </contour>
    <contour>
      <point x="286" y="636" type="curve" smooth="yes"/>
      <point x="201" y="636" type="line"/>
      <point x="201" y="354" type="line"/>
      <point x="257" y="354" type="line"/>
      <point x="257" y="463" type="line"/>
      <point x="286" y="463" type="line"/>
      <point x="361" y="354" type="line"/>
      <point x="427" y="354" type="line"/>
      <point x="341" y="472" type="line"/>
      <point x="380" y="483"/>
      <point x="408" y="509"/>
      <point x="408" y="552" type="curve" smooth="yes"/>
      <point x="408" y="607"/>
      <point x="368" y="636"/>
    </contour>
  </outline>
</glyph>
<glyph name="macron" format="1">
  <advance width="600"/>
  <unicode hex="00AF"/>
  <outline>
    <contour>
      <point x="165" y="676" type="line"/>
      <point x="434" y="676" type="line"/>
      <point x="434" y="740" type="line"/>
      <point x="165" y="740" type="line"/>
    </contour>
  </outline>
</glyph>
<glyph name="degree" format="1">
  <advance width="600"/>
  <unicode hex="00B0"/>
  <outline>
    <contour>
      <point x="227" y="749" type="curve" smooth="yes"/>
      <point x="145" y="749"/>
      <point x="65" y="692"/>
      <point x="65" y="593" type="curve" smooth="yes"/>
      <point x="65" y="492"/>
      <point x="145" y="436"/>
      <point x="227" y="436" type="curve" smooth="yes"/>
      <point x="311" y="436"/>
      <point x="389" y="492"/>
      <point x="389" y="592" type="curve" smooth="yes"/>
      <point x="389" y="692"/>
      <point x="311" y="749"/>
    </contour>
    <contour>
      <point x="227" y="690" type="curve" smooth="yes"/>
      <point x="274" y="690"/>
      <point x="317" y="659"/>
      <point x="317" y="592" type="curve" smooth="yes"/>
      <point x="317" y="526"/>
      <point x="274" y="495"/>
      <point x="227" y="495" type="curve" smooth="yes"/>
      <point x="182" y="495"/>
      <point x="138" y="526"/>
      <point x="138" y="593" type="curve" smooth="yes"/>
      <point x="138" y="660"/>
      <point x="182" y="690"/>
    </contour>
  </outline>
</glyph>
<glyph name="plusminus" format="1">
  <advance width="600"/>
  <unicode hex="00B1"/>
  <outline>
    <contour>
      <point x="340" y="388" type="line"/>
      <point x="340" y="537" type="line"/>
      <point x="260" y="537" type="line"/>
      <point x="260" y="388" type="line"/>
      <point x="116" y="388" type="line"/>
      <point x="116" y="318" type="line"/>
      <point x="260" y="318" type="line"/>
      <point x="260" y="163" type="line"/>
      <point x="340" y="163" type="line"/>
      <point x="340" y="318" type="line"/>
      <point x="484" y="318" type="line"/>
      <point x="484" y="388" type="line"/>
    </contour>
    <contour>
      <point x="484" y="0" type="line"/>
      <point x="484" y="72" type="line"/>
      <point x="116" y="72" type="line"/>
      <point x="116" y="0" type="line"/>
    </contour>
  </outline>
</glyph>
<glyph name="twosuperior" format="1">
  <advance width="600"/>
  <unicode hex="00B2"/>
  <outline>
    <contour>
      <point x="435" y="536" type="curve" smooth="yes"/>
      <point x="435" y="599"/>
      <point x="387" y="642"/>
      <point x="302" y="642" type="curve" smooth="yes"/>
      <point x="246" y="642"/>
      <point x="194" y="618"/>
      <point x="154" y="571" type="curve"/>
      <point x="205" y="533" type="line"/>
      <point x="234" y="569"/>
      <point x="267" y="582"/>
      <point x="300" y="582" type="curve" smooth="yes"/>
      <point x="337" y="582"/>
      <point x="359" y="563"/>
      <point x="359" y="533" type="curve" smooth="yes"/>
      <point x="359" y="489"/>
      <point x="319" y="465"/>
      <point x="159" y="367" type="curve"/>
      <point x="159" y="315" type="line"/>
      <point x="436" y="315" type="line"/>
      <point x="445" y="375" type="line"/>
      <point x="266" y="375" type="line"/>
      <point x="392" y="438"/>
      <point x="435" y="472"/>
    </contour>
  </outline>
</glyph>
<glyph name="threesuperior" format="1">
  <advance width="600"/>
  <unicode hex="00B3"/>
  <outline>
    <contour>
      <point x="308" y="642" type="curve" smooth="yes"/>
      <point x="256" y="642"/>
      <point x="206" y="628"/>
      <point x="160" y="590" type="curve"/>
      <point x="198" y="549" type="line"/>
      <point x="233" y="575"/>
      <point x="267" y="587"/>
      <point x="303" y="587" type="curve" smooth="yes"/>
      <point x="344" y="587"/>
      <point x="365" y="572"/>
      <point x="365" y="543" type="curve" smooth="yes"/>
      <point x="365" y="513"/>
      <point x="341" y="502"/>
      <point x="301" y="502" type="curve" smooth="yes"/>
      <point x="267" y="502" type="line"/>
      <point x="259" y="459" type="line"/>
      <point x="305" y="459" type="line" smooth="yes"/>
      <point x="353" y="459"/>
      <point x="377" y="446"/>
      <point x="377" y="412" type="curve" smooth="yes"/>
      <point x="377" y="384"/>
      <point x="353" y="365"/>
      <point x="301" y="365" type="curve" smooth="yes"/>
      <point x="263" y="365"/>
      <point x="224" y="378"/>
      <point x="193" y="405" type="curve"/>
      <point x="147" y="367" type="line"/>
      <point x="189" y="325"/>
      <point x="245" y="309"/>
      <point x="298" y="309" type="curve" smooth="yes"/>
      <point x="396" y="309"/>
      <point x="452" y="350"/>
      <point x="452" y="410" type="curve" smooth="yes"/>
      <point x="452" y="459"/>
      <point x="424" y="477"/>
      <point x="367" y="486" type="curve"/>
      <point x="420" y="495"/>
      <point x="438" y="517"/>
      <point x="438" y="553" type="curve" smooth="yes"/>
      <point x="438" y="607"/>
      <point x="389" y="642"/>
    </contour>
  </outline>
</glyph>
<glyph name="acute" format="1">
  <advance width="600"/>
  <unicode hex="00B4"/>
  <outline>
    <contour>
      <point x="370" y="785" type="line"/>
      <point x="185" y="670" type="line"/>
      <point x="213" y="624" type="line"/>
      <point x="414" y="714" type="line"/>
    </contour>
  </outline>
</glyph>
<glyph name="uni00B5" format="1">
  <advance width="600"/>
  <unicode hex="00B5"/>
  <outline>
    <contour>
      <point x="483" y="167" type="curve" smooth="yes"/>
      <point x="483" y="526" type="line"/>
      <point x="400" y="526" type="line"/>
      <point x="400" y="142" type="line"/>
      <point x="370" y="100"/>
      <point x="324" y="62"/>
      <point x="261" y="62" type="curve" smooth="yes"/>
      <point x="180" y="62"/>
      <point x="172" y="126"/>
      <point x="172" y="231" type="curve" smooth="yes"/>
      <point x="172" y="526" type="line"/>
      <point x="89" y="526" type="line"/>
      <point x="89" y="-212" type="line"/>
      <point x="172" y="-202" type="line"/>
      <point x="172" y="-48" type="line" smooth="yes"/>
      <point x="172" y="-27"/>
      <point x="168" y="3"/>
      <point x="163" y="39" type="curve"/>
      <point x="189" y="2"/>
      <point x="213" y="-12"/>
      <point x="267" y="-12" type="curve" smooth="yes"/>
      <point x="320" y="-12"/>
      <point x="377" y="22"/>
      <point x="408" y="73" type="curve"/>
      <point x="411" y="48"/>
      <point x="422" y="6"/>
      <point x="433" y="-12" type="curve"/>
      <point x="511" y="0" type="line"/>
      <point x="498" y="40"/>
      <point x="483" y="98"/>
    </contour>
  </outline>
</glyph>
<glyph name="paragraph" format="1">
  <advance width="600"/>
  <unicode hex="00B6"/>
  <outline>
    <contour>
      <point x="556" y="-201" type="line"/>
      <point x="556" y="688" type="line"/>
      <point x="297" y="688" type="line" smooth="yes"/>
      <point x="130" y="688"/>
      <point x="43" y="600"/>
      <point x="43" y="487" type="curve" smooth="yes"/>
      <point x="43" y="378"/>
      <point x="126" y="289"/>
      <point x="291" y="289" type="curve"/>
      <point x="291" y="-212" type="line"/>
      <point x="367" y="-201" type="line"/>
      <point x="367" y="619" type="line"/>
      <point x="480" y="619" type="line"/>
      <point x="480" y="-212" type="line"/>
    </contour>
  </outline>
</glyph>
<glyph name="periodcentered" format="1">
  <advance width="600"/>
  <unicode hex="00B7"/>
  <outline>
    <contour>
      <point x="212" y="342" type="curve" smooth="yes"/>
      <point x="212" y="292"/>
      <point x="249" y="254"/>
      <point x="299" y="254" type="curve" smooth="yes"/>
      <point x="350" y="254"/>
      <point x="387" y="292"/>
      <point x="387" y="342" type="curve" smooth="yes"/>
      <point x="387" y="391"/>
      <point x="350" y="429"/>
      <point x="299" y="429" type="curve" smooth="yes"/>
      <point x="249" y="429"/>
      <point x="212" y="391"/>
    </contour>
  </outline>
</glyph>
<glyph name="cedilla" format="1">
  <advance width="600"/>
  <unicode hex="00B8"/>
  <outline>
    <contour>
      <point x="341" y="-140" type="curve" smooth="yes"/>
      <point x="341" y="-170"/>
      <point x="316" y="-182"/>
      <point x="281" y="-182" type="curve" smooth="yes"/>
      <point x="259" y="-182"/>
      <point x="232" y="-176"/>
      <point x="213" y="-166" type="curve"/>
      <point x="186" y="-214" type="line"/>
      <point x="212" y="-229"/>
      <point x="251" y="-238"/>
      <point x="291" y="-238" type="curve" smooth="yes"/>
      <point x="355" y="-238"/>
      <point x="412" y="-206"/>
      <point x="412" y="-140" type="curve" smooth="yes"/>
      <point x="412" y="-101"/>
      <point x="385" y="-63"/>
      <point x="320" y="-57" type="curve"/>
      <point x="320" y="16" type="line"/>
      <point x="263" y="16" type="line"/>
      <point x="254" y="-97" type="line"/>
      <point x="307" y="-97"/>
      <point x="341" y="-104"/>
    </contour>
  </outline>
</glyph>
<glyph name="onesuperior" format="1">
  <advance width="600"/>
  <unicode hex="00B9"/>
  <outline>
    <contour>
      <point x="365" y="554" type="line"/>
      <point x="365" y="315" type="line"/>
      <point x="434" y="315" type="line"/>
      <point x="434" y="636" type="line"/>
      <point x="378" y="636" type="line"/>
      <point x="234" y="551" type="line"/>
      <point x="269" y="502" type="line"/>
    </contour>
  </outline>
</glyph>
<glyph name="ordmasculine" format="1">
  <advance width="600"/>
  <unicode hex="00BA"/>
  <outline>
    <contour>
      <point x="300" y="749" type="curve" smooth="yes"/>
      <point x="177" y="749"/>
      <point x="96" y="659"/>
      <point x="96" y="529" type="curve" smooth="yes"/>
      <point x="96" y="395"/>
      <point x="176" y="307"/>
      <point x="300" y="307" type="curve" smooth="yes"/>
      <point x="423" y="307"/>
      <point x="503" y="398"/>
      <point x="503" y="529" type="curve" smooth="yes"/>
      <point x="503" y="663"/>
      <point x="424" y="749"/>
    </contour>
    <contour>
      <point x="300" y="685" type="curve" smooth="yes"/>
      <point x="374" y="685"/>
      <point x="419" y="635"/>
      <point x="419" y="529" type="curve" smooth="yes"/>
      <point x="419" y="421"/>
      <point x="374" y="371"/>
      <point x="300" y="371" type="curve" smooth="yes"/>
      <point x="226" y="371"/>
      <point x="179" y="421"/>
      <point x="179" y="529" type="curve" smooth="yes"/>
      <point x="179" y="635"/>
      <point x="226" y="685"/>
    </contour>
    <contour>
      <point x="497" y="0" type="line"/>
      <point x="497" y="75" type="line"/>
      <point x="104" y="75" type="line"/>
      <point x="104" y="0" type="line"/>
    </contour>
  </outline>
</glyph>
<glyph name="guillemotright" format="1">
  <advance width="600"/>
  <unicode hex="00BB"/>
  <outline>
    <contour>
      <point x="289" y="500" type="line"/>
      <point x="425" y="294" type="line"/>
      <point x="289" y="88" type="line"/>
      <point x="339" y="56" type="line"/>
      <point x="516" y="263" type="line"/>
      <point x="516" y="323" type="line"/>
      <point x="339" y="532" type="line"/>
    </contour>
    <contour>
      <point x="83" y="500" type="line"/>
      <point x="218" y="294" type="line"/>
      <point x="83" y="88" type="line"/>
      <point x="133" y="56" type="line"/>
      <point x="308" y="263" type="line"/>
      <point x="308" y="323" type="line"/>
      <point x="133" y="532" type="line"/>
    </contour>
  </outline>
</glyph>
<glyph name="onequarter" format="1">
  <advance width="600"/>
  <unicode hex="00BC"/>
  <outline>
    <contour>
      <point x="130" y="607" type="line"/>
      <point x="130" y="368" type="line"/>
      <point x="199" y="368" type="line"/>
      <point x="199" y="689" type="line"/>
      <point x="143" y="689" type="line"/>
      <point x="-1" y="604" type="line"/>
      <point x="34" y="555" type="line"/>
    </contour>
    <contour>
      <point x="14" y="237" type="line"/>
      <point x="45" y="184" type="line"/>
      <point x="579" y="440" type="line"/>
      <point x="549" y="493" type="line"/>
    </contour>
    <contour>
      <point x="546" y="0" type="line"/>
      <point x="546" y="56" type="line"/>
      <point x="601" y="56" type="line"/>
      <point x="601" y="115" type="line"/>
      <point x="546" y="115" type="line"/>
      <point x="546" y="201" type="line"/>
      <point x="479" y="201" type="line"/>
      <point x="473" y="115" type="line"/>
      <point x="376" y="115" type="line"/>
      <point x="491" y="306" type="line"/>
      <point x="431" y="331" type="line"/>
      <point x="295" y="104" type="line"/>
      <point x="295" y="56" type="line"/>
      <point x="473" y="56" type="line"/>
      <point x="473" y="0" type="line"/>
    </contour>
  </outline>
</glyph>
<glyph name="onehalf" format="1">
  <advance width="600"/>
  <unicode hex="00BD"/>
  <outline>
    <contour>
      <point x="127" y="607" type="line"/>
      <point x="127" y="368" type="line"/>
      <point x="196" y="368" type="line"/>
      <point x="196" y="689" type="line"/>
      <point x="140" y="689" type="line"/>
      <point x="-4" y="604" type="line"/>
      <point x="31" y="555" type="line"/>
    </contour>
    <contour>
      <point x="10" y="237" type="line"/>
      <point x="41" y="184" type="line"/>
      <point x="575" y="440" type="line"/>
      <point x="545" y="493" type="line"/>
    </contour>
    <contour>
      <point x="594" y="221" type="curve" smooth="yes"/>
      <point x="594" y="284"/>
      <point x="547" y="327"/>
      <point x="461" y="327" type="curve" smooth="yes"/>
      <point x="405" y="327"/>
      <point x="353" y="303"/>
      <point x="313" y="256" type="curve"/>
      <point x="364" y="218" type="line"/>
      <point x="394" y="254"/>
      <point x="426" y="267"/>
      <point x="459" y="267" type="curve" smooth="yes"/>
      <point x="497" y="267"/>
      <point x="519" y="248"/>
      <point x="519" y="218" type="curve" smooth="yes"/>
      <point x="519" y="174"/>
      <point x="478" y="150"/>
      <point x="319" y="52" type="curve"/>
      <point x="319" y="0" type="line"/>
      <point x="596" y="0" type="line"/>
      <point x="604" y="60" type="line"/>
      <point x="425" y="60" type="line"/>
      <point x="551" y="123"/>
      <point x="594" y="157"/>
    </contour>
  </outline>
</glyph>
<glyph name="threequarters" format="1">
  <advance width="600"/>
  <unicode hex="00BE"/>
  <outline>
    <contour>
      <point x="24" y="237" type="line"/>
      <point x="54" y="184" type="line"/>
      <point x="588" y="440" type="line"/>
      <point x="559" y="493" type="line"/>
    </contour>
    <contour>
      <point x="158" y="695" type="curve" smooth="yes"/>
      <point x="106" y="695"/>
      <point x="56" y="681"/>
      <point x="10" y="643" type="curve"/>
      <point x="48" y="602" type="line"/>
      <point x="83" y="628"/>
      <point x="117" y="640"/>
      <point x="153" y="640" type="curve" smooth="yes"/>
      <point x="194" y="640"/>
      <point x="215" y="625"/>
      <point x="215" y="596" type="curve" smooth="yes"/>
      <point x="215" y="566"/>
      <point x="191" y="555"/>
      <point x="151" y="555" type="curve" smooth="yes"/>
      <point x="117" y="555" type="line"/>
      <point x="109" y="512" type="line"/>
      <point x="155" y="512" type="line" smooth="yes"/>
      <point x="203" y="512"/>
      <point x="227" y="499"/>
      <point x="227" y="465" type="curve" smooth="yes"/>
      <point x="227" y="437"/>
      <point x="203" y="418"/>
      <point x="151" y="418" type="curve" smooth="yes"/>
      <point x="113" y="418"/>
      <point x="74" y="431"/>
      <point x="43" y="458" type="curve"/>
      <point x="-3" y="420" type="line"/>
      <point x="39" y="378"/>
      <point x="95" y="362"/>
      <point x="148" y="362" type="curve" smooth="yes"/>
      <point x="246" y="362"/>
      <point x="302" y="403"/>
      <point x="302" y="463" type="curve" smooth="yes"/>
      <point x="302" y="512"/>
      <point x="274" y="530"/>
      <point x="217" y="539" type="curve"/>
      <point x="270" y="548"/>
      <point x="288" y="570"/>
      <point x="288" y="606" type="curve" smooth="yes"/>
      <point x="288" y="660"/>
      <point x="239" y="695"/>
    </contour>
    <contour>
      <point x="547" y="0" type="line"/>
      <point x="547" y="56" type="line"/>
      <point x="603" y="56" type="line"/>
      <point x="603" y="115" type="line"/>
      <point x="547" y="115" type="line"/>
      <point x="547" y="201" type="line"/>
      <point x="481" y="201" type="line"/>
      <point x="475" y="115" type="line"/>
      <point x="378" y="115" type="line"/>
      <point x="493" y="306" type="line"/>
      <point x="432" y="331" type="line"/>
      <point x="296" y="104" type="line"/>
      <point x="296" y="56" type="line"/>
      <point x="475" y="56" type="line"/>
      <point x="475" y="0" type="line"/>
    </contour>
  </outline>
</glyph>
<glyph name="questiondown" format="1">
  <advance width="600"/>
  <unicode hex="00BF"/>
  <outline>
    <contour>
      <point x="324" y="498" type="curve" smooth="yes"/>
      <point x="286" y="498"/>
      <point x="258" y="469"/>
      <point x="258" y="431" type="curve" smooth="yes"/>
      <point x="258" y="395"/>
      <point x="286" y="365"/>
      <point x="324" y="365" type="curve" smooth="yes"/>
      <point x="361" y="365"/>
      <point x="391" y="395"/>
      <point x="391" y="431" type="curve" smooth="yes"/>
      <point x="391" y="469"/>
      <point x="361" y="498"/>
    </contour>
    <contour>
      <point x="369" y="222" type="curve" smooth="yes"/>
      <point x="369" y="261" type="line"/>
      <point x="286" y="261" type="line"/>
      <point x="286" y="226" type="line" smooth="yes"/>
      <point x="286" y="80"/>
      <point x="105" y="102"/>
      <point x="105" y="-57" type="curve" smooth="yes"/>
      <point x="105" y="-136"/>
      <point x="180" y="-212"/>
      <point x="302" y="-212" type="curve" smooth="yes"/>
      <point x="382" y="-212"/>
      <point x="453" y="-181"/>
      <point x="512" y="-113" type="curve"/>
      <point x="453" y="-69" type="line"/>
      <point x="411" y="-120"/>
      <point x="358" y="-142"/>
      <point x="311" y="-142" type="curve" smooth="yes"/>
      <point x="243" y="-142"/>
      <point x="192" y="-110"/>
      <point x="192" y="-52" type="curve" smooth="yes"/>
      <point x="192" y="61"/>
      <point x="369" y="60"/>
    </contour>
  </outline>
</glyph>
<glyph name="Aacute" format="1">
  <advance width="600"/>
  <unicode hex="00C1"/>
  <outline>
    <contour>
      <point x="420" y="834" type="line"/>
      <point x="383" y="905" type="line"/>
      <point x="185" y="800" type="line"/>
      <point x="207" y="756" type="line"/>
    </contour>
    <contour>
      <point x="412" y="247" type="line"/>
      <point x="183" y="247" type="line"/>
      <point x="298" y="616" type="line"/>
    </contour>
    <contour>
      <point x="161" y="176" type="line"/>
      <point x="434" y="176" type="line"/>
      <point x="489" y="0" type="line"/>
      <point x="579" y="0" type="line"/>
      <point x="355" y="688" type="line"/>
      <point x="245" y="688" type="line"/>
      <point x="21" y="0" type="line"/>
      <point x="105" y="0" type="line"/>
    </contour>
  </outline>
</glyph>
<glyph name="Atilde" format="1">
  <advance width="600"/>
  <unicode hex="00C3"/>
  <outline>
    <contour>
      <point x="351" y="771" type="curve" smooth="yes"/>
      <point x="408" y="771"/>
      <point x="442" y="812"/>
      <point x="462" y="856" type="curve"/>
      <point x="408" y="880" type="line"/>
      <point x="392" y="852"/>
      <point x="379" y="836"/>
      <point x="357" y="836" type="curve" smooth="yes"/>
      <point x="326" y="836"/>
      <point x="307" y="884"/>
      <point x="248" y="884" type="curve" smooth="yes"/>
      <point x="191" y="884"/>
      <point x="157" y="845"/>
      <point x="137" y="800" type="curve"/>
      <point x="191" y="776" type="line"/>
      <point x="207" y="804"/>
      <point x="220" y="820"/>
      <point x="242" y="820" type="curve" smooth="yes"/>
      <point x="273" y="820"/>
      <point x="294" y="771"/>
    </contour>
    <contour>
      <point x="412" y="247" type="line"/>
      <point x="183" y="247" type="line"/>
      <point x="298" y="616" type="line"/>
    </contour>
    <contour>
      <point x="161" y="176" type="line"/>
      <point x="434" y="176" type="line"/>
      <point x="489" y="0" type="line"/>
      <point x="579" y="0" type="line"/>
      <point x="355" y="688" type="line"/>
      <point x="245" y="688" type="line"/>
      <point x="21" y="0" type="line"/>
      <point x="105" y="0" type="line"/>
    </contour>
  </outline>
</glyph>
<glyph name="Adieresis" format="1">
  <advance width="600"/>
  <unicode hex="00C4"/>
  <outline>
    <contour>
      <point x="402" y="767" type="curve" smooth="yes"/>
      <point x="434" y="767"/>
      <point x="457" y="790"/>
      <point x="457" y="820" type="curve" smooth="yes"/>
      <point x="457" y="851"/>
      <point x="434" y="874"/>
      <point x="402" y="874" type="curve" smooth="yes"/>
      <point x="372" y="874"/>
      <point x="349" y="851"/>
      <point x="349" y="820" type="curve" smooth="yes"/>
      <point x="349" y="790"/>
      <point x="372" y="767"/>
    </contour>
    <contour>
      <point x="196" y="767" type="curve" smooth="yes"/>
      <point x="226" y="767"/>
      <point x="250" y="790"/>
      <point x="250" y="820" type="curve" smooth="yes"/>
      <point x="250" y="851"/>
      <point x="226" y="874"/>
      <point x="196" y="874" type="curve" smooth="yes"/>
      <point x="165" y="874"/>
      <point x="142" y="851"/>
      <point x="142" y="820" type="curve" smooth="yes"/>
      <point x="142" y="790"/>
      <point x="165" y="767"/>
    </contour>
    <contour>
      <point x="412" y="247" type="line"/>
      <point x="183" y="247" type="line"/>
      <point x="298" y="616" type="line"/>
    </contour>
    <contour>
      <point x="161" y="176" type="line"/>
      <point x="434" y="176" type="line"/>
      <point x="489" y="0" type="line"/>
      <point x="579" y="0" type="line"/>
      <point x="355" y="688" type="line"/>
      <point x="245" y="688" type="line"/>
      <point x="21" y="0" type="line"/>
      <point x="105" y="0" type="line"/>
    </contour>
  </outline>
</glyph>
<glyph name="Aring" format="1">
  <advance width="600"/>
  <unicode hex="00C5"/>
  <outline>
    <contour>
      <point x="300" y="942" type="curve" smooth="yes"/>
      <point x="236" y="942"/>
      <point x="189" y="897"/>
      <point x="189" y="839" type="curve" smooth="yes"/>
      <point x="189" y="783"/>
      <point x="236" y="738"/>
      <point x="300" y="738" type="curve" smooth="yes"/>
      <point x="364" y="738"/>
      <point x="411" y="783"/>
      <point x="411" y="839" type="curve" smooth="yes"/>
      <point x="411" y="897"/>
      <point x="364" y="942"/>
    </contour>
    <contour>
      <point x="300" y="896" type="curve" smooth="yes"/>
      <point x="334" y="896"/>
      <point x="354" y="875"/>
      <point x="354" y="839" type="curve" smooth="yes"/>
      <point x="354" y="804"/>
      <point x="334" y="783"/>
      <point x="300" y="783" type="curve" smooth="yes"/>
      <point x="267" y="783"/>
      <point x="246" y="804"/>
      <point x="246" y="839" type="curve" smooth="yes"/>
      <point x="246" y="875"/>
      <point x="267" y="896"/>
    </contour>
    <contour>
      <point x="412" y="247" type="line"/>
      <point x="183" y="247" type="line"/>
      <point x="298" y="616" type="line"/>
    </contour>
    <contour>
      <point x="161" y="176" type="line"/>
      <point x="434" y="176" type="line"/>
      <point x="489" y="0" type="line"/>
      <point x="579" y="0" type="line"/>
      <point x="355" y="688" type="line"/>
      <point x="245" y="688" type="line"/>
      <point x="21" y="0" type="line"/>
      <point x="105" y="0" type="line"/>
    </contour>
  </outline>
</glyph>
<glyph name="Ccedilla" format="1">
  <advance width="600"/>
  <unicode hex="00C7"/>
  <outline>
    <contour>
      <point x="370" y="-57" type="curve"/>
      <point x="370" y="-11" type="line"/>
      <point x="464" y="-9"/>
      <point x="527" y="24"/>
      <point x="567" y="63" type="curve"/>
      <point x="523" y="120" type="line"/>
      <point x="486" y="90"/>
      <point x="440" y="62"/>
      <point x="363" y="62" type="curve" smooth="yes"/>
      <point x="245" y="62"/>
      <point x="153" y="139"/>
      <point x="153" y="345" type="curve" smooth="yes"/>
      <point x="153" y="556"/>
      <point x="251" y="628"/>
      <point x="364" y="628" type="curve" smooth="yes"/>
      <point x="417" y="628"/>
      <point x="465" y="613"/>
      <point x="509" y="577" type="curve"/>
      <point x="557" y="633" type="line"/>
      <point x="503" y="676"/>
      <point x="448" y="700"/>
      <point x="358" y="700" type="curve" smooth="yes"/>
      <point x="199" y="700"/>
      <point x="64" y="577"/>
      <point x="64" y="345" type="curve" smooth="yes"/>
      <point x="64" y="137"/>
      <point x="168" y="16"/>
      <point x="311" y="-7" type="curve"/>
      <point x="304" y="-97" type="line"/>
      <point x="357" y="-97"/>
      <point x="391" y="-104"/>
      <point x="391" y="-140" type="curve" smooth="yes"/>
      <point x="391" y="-170"/>
      <point x="366" y="-182"/>
      <point x="331" y="-182" type="curve" smooth="yes"/>
      <point x="309" y="-182"/>
      <point x="282" y="-176"/>
      <point x="263" y="-166" type="curve"/>
      <point x="236" y="-214" type="line"/>
      <point x="262" y="-229"/>
      <point x="301" y="-238"/>
      <point x="341" y="-238" type="curve" smooth="yes"/>
      <point x="405" y="-238"/>
      <point x="462" y="-206"/>
      <point x="462" y="-140" type="curve" smooth="yes"/>
      <point x="462" y="-101"/>
      <point x="435" y="-63"/>
    </contour>
  </outline>
</glyph>
<glyph name="Ecircumflex" format="1">
  <advance width="600"/>
  <unicode hex="00CA"/>
  <outline>
    <contour>
      <point x="484" y="803" type="line"/>
      <point x="350" y="910" type="line"/>
      <point x="294" y="910" type="line"/>
      <point x="158" y="803" type="line"/>
      <point x="196" y="760" type="line"/>
      <point x="321" y="841" type="line"/>
      <point x="447" y="760" type="line"/>
    </contour>
    <contour>
      <point x="212" y="385" type="line"/>
      <point x="212" y="618" type="line"/>
      <point x="506" y="618" type="line"/>
      <point x="516" y="688" type="line"/>
      <point x="126" y="688" type="line"/>
      <point x="126" y="0" type="line"/>
      <point x="525" y="0" type="line"/>
      <point x="525" y="69" type="line"/>
      <point x="212" y="69" type="line"/>
      <point x="212" y="314" type="line"/>
      <point x="467" y="314" type="line"/>
      <point x="467" y="385" type="line"/>
    </contour>
  </outline>
</glyph>
<glyph name="Igrave" format="1">
  <advance width="600"/>
  <unicode hex="00CC"/>
  <outline>
    <contour>
      <point x="416" y="800" type="line"/>
      <point x="231" y="909" type="line"/>
      <point x="185" y="837" type="line"/>
      <point x="390" y="756" type="line"/>
    </contour>
    <contour>
      <point x="497" y="620" type="line"/>
      <point x="497" y="688" type="line"/>
      <point x="103" y="688" type="line"/>
      <point x="103" y="620" type="line"/>
      <point x="257" y="620" type="line"/>
      <point x="257" y="69" type="line"/>
      <point x="103" y="69" type="line"/>
      <point x="103" y="0" type="line"/>
      <point x="497" y="0" type="line"/>
      <point x="497" y="69" type="line"/>
      <point x="343" y="69" type="line"/>
      <point x="343" y="620" type="line"/>
    </contour>
  </outline>
</glyph>
<glyph name="Icircumflex" format="1">
  <advance width="600"/>
  <unicode hex="00CE"/>
  <outline>
    <contour>
      <point x="463" y="803" type="line"/>
      <point x="329" y="910" type="line"/>
      <point x="273" y="910" type="line"/>
      <point x="137" y="803" type="line"/>
      <point x="175" y="760" type="line"/>
      <point x="300" y="841" type="line"/>
      <point x="426" y="760" type="line"/>
    </contour>
    <contour>
      <point x="497" y="620" type="line"/>
      <point x="497" y="688" type="line"/>
      <point x="103" y="688" type="line"/>
      <point x="103" y="620" type="line"/>
      <point x="257" y="620" type="line"/>
      <point x="257" y="69" type="line"/>
      <point x="103" y="69" type="line"/>
      <point x="103" y="0" type="line"/>
      <point x="497" y="0" type="line"/>
      <point x="497" y="69" type="line"/>
      <point x="343" y="69" type="line"/>
      <point x="343" y="620" type="line"/>
    </contour>
  </outline>
</glyph>
<glyph name="Ntilde" format="1">
  <advance width="600"/>
  <unicode hex="00D1"/>
  <outline>
    <contour>
      <point x="349" y="771" type="curve" smooth="yes"/>
      <point x="406" y="771"/>
      <point x="440" y="812"/>
      <point x="460" y="856" type="curve"/>
      <point x="406" y="880" type="line"/>
      <point x="390" y="852"/>
      <point x="377" y="836"/>
      <point x="355" y="836" type="curve" smooth="yes"/>
      <point x="324" y="836"/>
      <point x="305" y="884"/>
      <point x="246" y="884" type="curve" smooth="yes"/>
      <point x="189" y="884"/>
      <point x="155" y="845"/>
      <point x="135" y="800" type="curve"/>
      <point x="189" y="776" type="line"/>
      <point x="205" y="804"/>
      <point x="218" y="820"/>
      <point x="240" y="820" type="curve" smooth="yes"/>
      <point x="271" y="820"/>
      <point x="292" y="771"/>
    </contour>
    <contour>
      <point x="156" y="589" type="line"/>
      <point x="396" y="0" type="line"/>
      <point x="516" y="0" type="line"/>
      <point x="516" y="688" type="line"/>
      <point x="436" y="688" type="line"/>
      <point x="436" y="343" type="line" smooth="yes"/>
      <point x="436" y="219"/>
      <point x="447" y="108"/>
      <point x="448" y="96" type="curve"/>
      <point x="444" y="96" type="line"/>
      <point x="200" y="688" type="line"/>
      <point x="84" y="688" type="line"/>
      <point x="84" y="0" type="line"/>
      <point x="164" y="0" type="line"/>
      <point x="164" y="346" type="line" smooth="yes"/>
      <point x="164" y="452"/>
      <point x="153" y="576"/>
      <point x="152" y="589" type="curve"/>
    </contour>
  </outline>
</glyph>
<glyph name="Odieresis" format="1">
  <advance width="600"/>
  <unicode hex="00D6"/>
  <outline>
    <contour>
      <point x="402" y="767" type="curve" smooth="yes"/>
      <point x="434" y="767"/>
      <point x="457" y="790"/>
      <point x="457" y="820" type="curve" smooth="yes"/>
      <point x="457" y="851"/>
      <point x="434" y="874"/>
      <point x="402" y="874" type="curve" smooth="yes"/>
      <point x="372" y="874"/>
      <point x="349" y="851"/>
      <point x="349" y="820" type="curve" smooth="yes"/>
      <point x="349" y="790"/>
      <point x="372" y="767"/>
    </contour>
    <contour>
      <point x="196" y="767" type="curve" smooth="yes"/>
      <point x="226" y="767"/>
      <point x="250" y="790"/>
      <point x="250" y="820" type="curve" smooth="yes"/>
      <point x="250" y="851"/>
      <point x="226" y="874"/>
      <point x="196" y="874" type="curve" smooth="yes"/>
      <point x="165" y="874"/>
      <point x="142" y="851"/>
      <point x="142" y="820" type="curve" smooth="yes"/>
      <point x="142" y="790"/>
      <point x="165" y="767"/>
    </contour>
    <contour>
      <point x="553" y="344" type="curve" smooth="yes"/>
      <point x="553" y="556"/>
      <point x="467" y="700"/>
      <point x="300" y="700" type="curve" smooth="yes"/>
      <point x="133" y="700"/>
      <point x="47" y="551"/>
      <point x="47" y="342" type="curve" smooth="yes"/>
      <point x="47" y="130"/>
      <point x="133" y="-11"/>
      <point x="300" y="-11" type="curve" smooth="yes"/>
      <point x="467" y="-11"/>
      <point x="553" y="135"/>
    </contour>
    <contour>
      <point x="464" y="344" type="curve" smooth="yes"/>
      <point x="464" y="160"/>
      <point x="416" y="61"/>
      <point x="300" y="61" type="curve" smooth="yes"/>
      <point x="187" y="61"/>
      <point x="136" y="159"/>
      <point x="136" y="342" type="curve" smooth="yes"/>
      <point x="136" y="526"/>
      <point x="183" y="627"/>
      <point x="300" y="627" type="curve" smooth="yes"/>
      <point x="417" y="627"/>
      <point x="464" y="527"/>
    </contour>
  </outline>
</glyph>
<glyph name="multiply" format="1">
  <advance width="600"/>
  <unicode hex="00D7"/>
  <outline>
    <contour>
      <point x="475" y="430" type="line"/>
      <point x="423" y="483" type="line"/>
      <point x="300" y="359" type="line"/>
      <point x="177" y="483" type="line"/>
      <point x="125" y="430" type="line"/>
      <point x="248" y="307" type="line"/>
      <point x="125" y="184" type="line"/>
      <point x="177" y="132" type="line"/>
      <point x="300" y="255" type="line"/>
      <point x="423" y="132" type="line"/>
      <point x="475" y="184" type="line"/>
      <point x="352" y="307" type="line"/>
    </contour>
  </outline>
</glyph>
<glyph name="Oslash" format="1">
  <advance width="600"/>
  <unicode hex="00D8"/>
  <outline>
    <contour>
      <point x="137" y="342" type="curve" smooth="yes"/>
      <point x="137" y="526"/>
      <point x="184" y="627"/>
      <point x="300" y="627" type="curve" smooth="yes"/>
      <point x="318" y="627"/>
      <point x="334" y="625"/>
      <point x="348" y="621" type="curve"/>
      <point x="197" y="97" type="line"/>
      <point x="156" y="138"/>
      <point x="137" y="215"/>
    </contour>
    <contour>
      <point x="300" y="61" type="curve" smooth="yes"/>
      <point x="282" y="61"/>
      <point x="266" y="63"/>
      <point x="251" y="67" type="curve"/>
      <point x="402" y="592" type="line"/>
      <point x="445" y="551"/>
      <point x="463" y="472"/>
      <point x="463" y="344" type="curve" smooth="yes"/>
      <point x="463" y="160"/>
      <point x="416" y="61"/>
    </contour>
    <contour>
      <point x="433" y="660" type="curve"/>
      <point x="472" y="784" type="line"/>
      <point x="397" y="803" type="line"/>
      <point x="365" y="692" type="line"/>
      <point x="345" y="697"/>
      <point x="323" y="700"/>
      <point x="300" y="700" type="curve" smooth="yes"/>
      <point x="133" y="700"/>
      <point x="47" y="551"/>
      <point x="47" y="342" type="curve" smooth="yes"/>
      <point x="47" y="197"/>
      <point x="88" y="85"/>
      <point x="167" y="29" type="curve"/>
      <point x="130" y="-91" type="line"/>
      <point x="204" y="-110" type="line"/>
      <point x="236" y="-3" type="line"/>
      <point x="256" y="-8"/>
      <point x="277" y="-11"/>
      <point x="300" y="-11" type="curve" smooth="yes"/>
      <point x="467" y="-11"/>
      <point x="553" y="135"/>
      <point x="553" y="344" type="curve" smooth="yes"/>
      <point x="553" y="489"/>
      <point x="512" y="603"/>
    </contour>
  </outline>
</glyph>
<glyph name="Uacute" format="1">
  <advance width="600"/>
  <unicode hex="00DA"/>
  <outline>
    <contour>
      <point x="420" y="834" type="line"/>
      <point x="383" y="905" type="line"/>
      <point x="185" y="800" type="line"/>
      <point x="207" y="756" type="line"/>
    </contour>
    <contour>
      <point x="527" y="223" type="curve" smooth="yes"/>
      <point x="527" y="688" type="line"/>
      <point x="441" y="688" type="line"/>
      <point x="441" y="219" type="line" smooth="yes"/>
      <point x="441" y="114"/>
      <point x="389" y="63"/>
      <point x="299" y="63" type="curve" smooth="yes"/>
      <point x="210" y="63"/>
      <point x="158" y="114"/>
      <point x="158" y="219" type="curve" smooth="yes"/>
      <point x="158" y="688" type="line"/>
      <point x="73" y="688" type="line"/>
      <point x="73" y="223" type="line" smooth="yes"/>
      <point x="73" y="84"/>
      <point x="158" y="-11"/>
      <point x="299" y="-11" type="curve" smooth="yes"/>
      <point x="438" y="-11"/>
      <point x="527" y="83"/>
    </contour>
  </outline>
</glyph>
<glyph name="Udieresis" format="1">
  <advance width="600"/>
  <unicode hex="00DC"/>
  <outline>
    <contour>
      <point x="402" y="767" type="curve" smooth="yes"/>
      <point x="434" y="767"/>
      <point x="457" y="790"/>
      <point x="457" y="820" type="curve" smooth="yes"/>
      <point x="457" y="851"/>
      <point x="434" y="874"/>
      <point x="402" y="874" type="curve" smooth="yes"/>
      <point x="372" y="874"/>
      <point x="349" y="851"/>
      <point x="349" y="820" type="curve" smooth="yes"/>
      <point x="349" y="790"/>
      <point x="372" y="767"/>
    </contour>
    <contour>
      <point x="196" y="767" type="curve" smooth="yes"/>
      <point x="226" y="767"/>
      <point x="250" y="790"/>
      <point x="250" y="820" type="curve" smooth="yes"/>
      <point x="250" y="851"/>
      <point x="226" y="874"/>
      <point x="196" y="874" type="curve" smooth="yes"/>
      <point x="165" y="874"/>
      <point x="142" y="851"/>
      <point x="142" y="820" type="curve" smooth="yes"/>
      <point x="142" y="790"/>
      <point x="165" y="767"/>
    </contour>
    <contour>
      <point x="527" y="223" type="curve" smooth="yes"/>
      <point x="527" y="688" type="line"/>
      <point x="441" y="688" type="line"/>
      <point x="441" y="219" type="line" smooth="yes"/>
      <point x="441" y="114"/>
      <point x="389" y="63"/>
      <point x="299" y="63" type="curve" smooth="yes"/>
      <point x="210" y="63"/>
      <point x="158" y="114"/>
      <point x="158" y="219" type="curve" smooth="yes"/>
      <point x="158" y="688" type="line"/>
      <point x="73" y="688" type="line"/>
      <point x="73" y="223" type="line" smooth="yes"/>
      <point x="73" y="84"/>
      <point x="158" y="-11"/>
      <point x="299" y="-11" type="curve" smooth="yes"/>
      <point x="438" y="-11"/>
      <point x="527" y="83"/>
    </contour>
  </outline>
</glyph>
<glyph name="Thorn" format="1">
  <advance width="600"/>
  <unicode hex="00DE"/>
  <outline>
    <contour>
      <point x="193" y="572" type="line"/>
      <point x="193" y="688" type="line"/>
      <point x="108" y="688" type="line"/>
      <point x="108" y="0" type="line"/>
      <point x="193" y="0" type="line"/>
      <point x="193" y="128" type="line"/>
      <point x="292" y="128" type="line" smooth="yes"/>
      <point x="446" y="128"/>
      <point x="555" y="194"/>
      <point x="555" y="355" type="curve" smooth="yes"/>
      <point x="555" y="504"/>
      <point x="458" y="572"/>
      <point x="293" y="572" type="curve" smooth="yes"/>
    </contour>
    <contour>
      <point x="193" y="504" type="line"/>
      <point x="303" y="504" type="line" smooth="yes"/>
      <point x="399" y="504"/>
      <point x="465" y="461"/>
      <point x="465" y="353" type="curve" smooth="yes"/>
      <point x="465" y="232"/>
      <point x="398" y="197"/>
      <point x="304" y="197" type="curve" smooth="yes"/>
      <point x="193" y="197" type="line"/>
    </contour>
  </outline>
</glyph>
<glyph name="germandbls" format="1">
  <advance width="600"/>
  <unicode hex="00DF"/>
  <outline>
    <contour>
      <point x="297" y="749" type="curve" smooth="yes"/>
      <point x="172" y="749"/>
      <point x="96" y="675"/>
      <point x="96" y="533" type="curve" smooth="yes"/>
      <point x="96" y="0" type="line"/>
      <point x="179" y="0" type="line"/>
      <point x="179" y="539" type="line" smooth="yes"/>
      <point x="179" y="643"/>
      <point x="221" y="682"/>
      <point x="296" y="682" type="curve" smooth="yes"/>
      <point x="369" y="682"/>
      <point x="391" y="634"/>
      <point x="391" y="597" type="curve" smooth="yes"/>
      <point x="391" y="523"/>
      <point x="274" y="514"/>
      <point x="274" y="419" type="curve" smooth="yes"/>
      <point x="274" y="288"/>
      <point x="473" y="291"/>
      <point x="473" y="162" type="curve" smooth="yes"/>
      <point x="473" y="91"/>
      <point x="431" y="56"/>
      <point x="364" y="56" type="curve" smooth="yes"/>
      <point x="335" y="56"/>
      <point x="301" y="66"/>
      <point x="276" y="80" type="curve"/>
      <point x="242" y="23" type="line"/>
      <point x="277" y="1"/>
      <point x="318" y="-11"/>
      <point x="371" y="-11" type="curve" smooth="yes"/>
      <point x="472" y="-11"/>
      <point x="558" y="51"/>
      <point x="558" y="167" type="curve" smooth="yes"/>
      <point x="558" y="335"/>
      <point x="356" y="341"/>
      <point x="356" y="429" type="curve" smooth="yes"/>
      <point x="356" y="491"/>
      <point x="470" y="507"/>
      <point x="470" y="605" type="curve" smooth="yes"/>
      <point x="470" y="690"/>
      <point x="399" y="749"/>
    </contour>
  </outline>
</glyph>
<glyph name="adieresis" format="1">
  <advance width="600"/>
  <unicode hex="00E4"/>
  <outline>
    <contour>
      <point x="394" y="648" type="curve" smooth="yes"/>
      <point x="426" y="648"/>
      <point x="449" y="671"/>
      <point x="449" y="701" type="curve" smooth="yes"/>
      <point x="449" y="732"/>
      <point x="426" y="755"/>
      <point x="394" y="755" type="curve" smooth="yes"/>
      <point x="364" y="755"/>
      <point x="341" y="732"/>
      <point x="341" y="701" type="curve" smooth="yes"/>
      <point x="341" y="671"/>
      <point x="364" y="648"/>
    </contour>
    <contour>
      <point x="188" y="648" type="curve" smooth="yes"/>
      <point x="218" y="648"/>
      <point x="242" y="671"/>
      <point x="242" y="701" type="curve" smooth="yes"/>
      <point x="242" y="732"/>
      <point x="218" y="755"/>
      <point x="188" y="755" type="curve" smooth="yes"/>
      <point x="157" y="755"/>
      <point x="134" y="732"/>
      <point x="134" y="701" type="curve" smooth="yes"/>
      <point x="134" y="671"/>
      <point x="157" y="648"/>
    </contour>
    <contour>
      <point x="477" y="114" type="curve" smooth="yes"/>
      <point x="477" y="368" type="line" smooth="yes"/>
      <point x="477" y="472"/>
      <point x="411" y="538"/>
      <point x="280" y="538" type="curve" smooth="yes"/>
      <point x="229" y="538"/>
      <point x="173" y="528"/>
      <point x="109" y="504" type="curve"/>
      <point x="131" y="442" type="line"/>
      <point x="185" y="461"/>
      <point x="233" y="468"/>
      <point x="268" y="468" type="curve" smooth="yes"/>
      <point x="346" y="468"/>
      <point x="393" y="440"/>
      <point x="393" y="364" type="curve" smooth="yes"/>
      <point x="393" y="320" type="line"/>
      <point x="316" y="320" type="line" smooth="yes"/>
      <point x="156" y="320"/>
      <point x="69" y="259"/>
      <point x="69" y="151" type="curve" smooth="yes"/>
      <point x="69" y="53"/>
      <point x="133" y="-11"/>
      <point x="239" y="-11" type="curve" smooth="yes"/>
      <point x="307" y="-11"/>
      <point x="366" y="14"/>
      <point x="404" y="63" type="curve"/>
      <point x="419" y="16"/>
      <point x="455" y="-6"/>
      <point x="500" y="-12" type="curve"/>
      <point x="520" y="47" type="line"/>
      <point x="491" y="56"/>
      <point x="477" y="72"/>
    </contour>
    <contour>
      <point x="260" y="52" type="curve" smooth="yes"/>
      <point x="191" y="52"/>
      <point x="158" y="86"/>
      <point x="158" y="152" type="curve" smooth="yes"/>
      <point x="158" y="220"/>
      <point x="200" y="263"/>
      <point x="317" y="263" type="curve" smooth="yes"/>
      <point x="393" y="263" type="line"/>
      <point x="393" y="127" type="line"/>
      <point x="362" y="79"/>
      <point x="312" y="52"/>
    </contour>
  </outline>
</glyph>
<glyph name="ccedilla" format="1">
  <advance width="600"/>
  <unicode hex="00E7"/>
  <outline>
    <contour>
      <point x="359" y="-57" type="curve"/>
      <point x="359" y="-10" type="line"/>
      <point x="415" y="-5"/>
      <point x="475" y="17"/>
      <point x="516" y="52" type="curve"/>
      <point x="476" y="110" type="line"/>
      <point x="437" y="79"/>
      <point x="392" y="60"/>
      <point x="338" y="60" type="curve" smooth="yes"/>
      <point x="248" y="60"/>
      <point x="182" y="120"/>
      <point x="182" y="261" type="curve" smooth="yes"/>
      <point x="182" y="400"/>
      <point x="247" y="468"/>
      <point x="338" y="468" type="curve" smooth="yes"/>
      <point x="385" y="468"/>
      <point x="429" y="452"/>
      <point x="473" y="419" type="curve"/>
      <point x="515" y="476" type="line"/>
      <point x="465" y="517"/>
      <point x="407" y="538"/>
      <point x="339" y="538" type="curve" smooth="yes"/>
      <point x="182" y="538"/>
      <point x="92" y="419"/>
      <point x="92" y="261" type="curve" smooth="yes"/>
      <point x="92" y="110"/>
      <point x="167" y="7"/>
      <point x="300" y="-9" type="curve"/>
      <point x="293" y="-97" type="line"/>
      <point x="346" y="-97"/>
      <point x="380" y="-104"/>
      <point x="380" y="-140" type="curve" smooth="yes"/>
      <point x="380" y="-170"/>
      <point x="355" y="-182"/>
      <point x="320" y="-182" type="curve" smooth="yes"/>
      <point x="298" y="-182"/>
      <point x="271" y="-176"/>
      <point x="252" y="-166" type="curve"/>
      <point x="225" y="-214" type="line"/>
      <point x="251" y="-229"/>
      <point x="290" y="-238"/>
      <point x="330" y="-238" type="curve" smooth="yes"/>
      <point x="394" y="-238"/>
      <point x="451" y="-206"/>
      <point x="451" y="-140" type="curve" smooth="yes"/>
      <point x="451" y="-101"/>
      <point x="424" y="-63"/>
    </contour>
  </outline>
</glyph>
<glyph name="igrave" format="1">
  <advance width="600"/>
  <unicode hex="00EC"/>
  <outline>
    <contour>
      <point x="186" y="715" type="line"/>
      <point x="388" y="624" type="line"/>
      <point x="415" y="670" type="line"/>
      <point x="230" y="787" type="line"/>
    </contour>
    <contour>
      <point x="367" y="66" type="line"/>
      <point x="367" y="526" type="line"/>
      <point x="126" y="526" type="line"/>
      <point x="126" y="461" type="line"/>
      <point x="284" y="461" type="line"/>
      <point x="284" y="66" type="line"/>
      <point x="121" y="66" type="line"/>
      <point x="121" y="0" type="line"/>
      <point x="515" y="0" type="line"/>
      <point x="515" y="66" type="line"/>
    </contour>
  </outline>
</glyph>
<glyph name="icircumflex" format="1">
  <advance width="600"/>
  <unicode hex="00EE"/>
  <outline>
    <contour>
      <point x="138" y="670" type="line"/>
      <point x="178" y="629" type="line"/>
      <point x="302" y="720" type="line"/>
      <point x="426" y="629" type="line"/>
      <point x="464" y="670" type="line"/>
      <point x="330" y="789" type="line"/>
      <point x="274" y="789" type="line"/>
    </contour>
    <contour>
      <point x="367" y="66" type="line"/>
      <point x="367" y="526" type="line"/>
      <point x="126" y="526" type="line"/>
      <point x="126" y="461" type="line"/>
      <point x="284" y="461" type="line"/>
      <point x="284" y="66" type="line"/>
      <point x="121" y="66" type="line"/>
      <point x="121" y="0" type="line"/>
      <point x="515" y="0" type="line"/>
      <point x="515" y="66" type="line"/>
    </contour>
  </outline>
</glyph>
<glyph name="eth" format="1">
  <advance width="600"/>
  <unicode hex="00F0"/>
  <outline>
    <contour>
      <point x="251" y="647" type="curve"/>
      <point x="170" y="562" type="line"/>
      <point x="229" y="532" type="line"/>
      <point x="308" y="613" type="line"/>
      <point x="372" y="566"/>
      <point x="420" y="497"/>
      <point x="438" y="412" type="curve"/>
      <point x="400" y="456"/>
      <point x="348" y="481"/>
      <point x="280" y="481" type="curve" smooth="yes"/>
      <point x="166" y="481"/>
      <point x="67" y="383"/>
      <point x="67" y="235" type="curve" smooth="yes"/>
      <point x="67" y="77"/>
      <point x="169" y="-11"/>
      <point x="295" y="-11" type="curve" smooth="yes"/>
      <point x="438" y="-11"/>
      <point x="532" y="95"/>
      <point x="532" y="263" type="curve" smooth="yes"/>
      <point x="532" y="455"/>
      <point x="478" y="583"/>
      <point x="360" y="665" type="curve"/>
      <point x="422" y="729" type="line"/>
      <point x="371" y="773" type="line"/>
      <point x="302" y="699" type="line"/>
      <point x="261" y="721"/>
      <point x="211" y="736"/>
      <point x="152" y="749" type="curve"/>
      <point x="134" y="683" type="line"/>
      <point x="181" y="674"/>
      <point x="218" y="663"/>
    </contour>
    <contour>
      <point x="448" y="267" type="curve" smooth="yes"/>
      <point x="448" y="128"/>
      <point x="388" y="56"/>
      <point x="294" y="56" type="curve" smooth="yes"/>
      <point x="211" y="56"/>
      <point x="152" y="120"/>
      <point x="152" y="239" type="curve" smooth="yes"/>
      <point x="152" y="361"/>
      <point x="217" y="414"/>
      <point x="290" y="414" type="curve" smooth="yes"/>
      <point x="355" y="414"/>
      <point x="411" y="386"/>
      <point x="445" y="333" type="curve"/>
      <point x="447" y="312"/>
      <point x="448" y="291"/>
    </contour>
  </outline>
</glyph>
<glyph name="ntilde" format="1">
  <advance width="600"/>
  <unicode hex="00F1"/>
  <outline>
    <contour>
      <point x="351" y="654" type="curve" smooth="yes"/>
      <point x="408" y="654"/>
      <point x="442" y="695"/>
      <point x="462" y="739" type="curve"/>
      <point x="408" y="763" type="line"/>
      <point x="392" y="735"/>
      <point x="379" y="719"/>
      <point x="357" y="719" type="curve" smooth="yes"/>
      <point x="326" y="719"/>
      <point x="307" y="767"/>
      <point x="248" y="767" type="curve" smooth="yes"/>
      <point x="191" y="767"/>
      <point x="157" y="728"/>
      <point x="137" y="683" type="curve"/>
      <point x="191" y="659" type="line"/>
      <point x="207" y="687"/>
      <point x="220" y="703"/>
      <point x="242" y="703" type="curve" smooth="yes"/>
      <point x="273" y="703"/>
      <point x="294" y="654"/>
    </contour>
    <contour>
      <point x="101" y="526" type="line"/>
      <point x="101" y="0" type="line"/>
      <point x="184" y="0" type="line"/>
      <point x="184" y="384" type="line"/>
      <point x="211" y="425"/>
      <point x="264" y="472"/>
      <point x="327" y="472" type="curve" smooth="yes"/>
      <point x="407" y="472"/>
      <point x="417" y="428"/>
      <point x="417" y="320" type="curve" smooth="yes"/>
      <point x="417" y="0" type="line"/>
      <point x="500" y="0" type="line"/>
      <point x="500" y="382" type="line" smooth="yes"/>
      <point x="500" y="480"/>
      <point x="455" y="538"/>
      <point x="352" y="538" type="curve" smooth="yes"/>
      <point x="290" y="538"/>
      <point x="221" y="507"/>
      <point x="178" y="453" type="curve"/>
      <point x="172" y="526" type="line"/>
    </contour>
  </outline>
</glyph>
<glyph name="ocircumflex" format="1">
  <advance width="600"/>
  <unicode hex="00F4"/>
  <outline>
    <contour>
      <point x="137" y="670" type="line"/>
      <point x="177" y="629" type="line"/>
      <point x="301" y="720" type="line"/>
      <point x="425" y="629" type="line"/>
      <point x="463" y="670" type="line"/>
      <point x="329" y="789" type="line"/>
      <point x="273" y="789" type="line"/>
    </contour>
    <contour>
      <point x="301" y="538" type="curve" smooth="yes"/>
      <point x="153" y="538"/>
      <point x="74" y="425"/>
      <point x="74" y="263" type="curve" smooth="yes"/>
      <point x="74" y="97"/>
      <point x="152" y="-11"/>
      <point x="300" y="-11" type="curve" smooth="yes"/>
      <point x="447" y="-11"/>
      <point x="526" y="103"/>
      <point x="526" y="264" type="curve" smooth="yes"/>
      <point x="526" y="430"/>
      <point x="449" y="538"/>
    </contour>
    <contour>
      <point x="301" y="470" type="curve" smooth="yes"/>
      <point x="391" y="470"/>
      <point x="437" y="404"/>
      <point x="437" y="264" type="curve" smooth="yes"/>
      <point x="437" y="123"/>
      <point x="391" y="57"/>
      <point x="300" y="57" type="curve" smooth="yes"/>
      <point x="209" y="57"/>
      <point x="163" y="123"/>
      <point x="163" y="263" type="curve" smooth="yes"/>
      <point x="163" y="404"/>
      <point x="210" y="470"/>
    </contour>
  </outline>
</glyph>
<glyph name="otilde" format="1">
  <advance width="600"/>
  <unicode hex="00F5"/>
  <outline>
    <contour>
      <point x="351" y="652" type="curve" smooth="yes"/>
      <point x="408" y="652"/>
      <point x="442" y="693"/>
      <point x="462" y="737" type="curve"/>
      <point x="408" y="761" type="line"/>
      <point x="392" y="733"/>
      <point x="379" y="717"/>
      <point x="357" y="717" type="curve" smooth="yes"/>
      <point x="326" y="717"/>
      <point x="307" y="765"/>
      <point x="248" y="765" type="curve" smooth="yes"/>
      <point x="191" y="765"/>
      <point x="157" y="726"/>
      <point x="137" y="681" type="curve"/>
      <point x="191" y="657" type="line"/>
      <point x="207" y="685"/>
      <point x="220" y="701"/>
      <point x="242" y="701" type="curve" smooth="yes"/>
      <point x="273" y="701"/>
      <point x="294" y="652"/>
    </contour>
    <contour>
      <point x="301" y="538" type="curve" smooth="yes"/>
      <point x="153" y="538"/>
      <point x="74" y="425"/>
      <point x="74" y="263" type="curve" smooth="yes"/>
      <point x="74" y="97"/>
      <point x="152" y="-11"/>
      <point x="300" y="-11" type="curve" smooth="yes"/>
      <point x="447" y="-11"/>
      <point x="526" y="103"/>
      <point x="526" y="264" type="curve" smooth="yes"/>
      <point x="526" y="430"/>
      <point x="449" y="538"/>
    </contour>
    <contour>
      <point x="301" y="470" type="curve" smooth="yes"/>
      <point x="391" y="470"/>
      <point x="437" y="404"/>
      <point x="437" y="264" type="curve" smooth="yes"/>
      <point x="437" y="123"/>
      <point x="391" y="57"/>
      <point x="300" y="57" type="curve" smooth="yes"/>
      <point x="209" y="57"/>
      <point x="163" y="123"/>
      <point x="163" y="263" type="curve" smooth="yes"/>
      <point x="163" y="404"/>
      <point x="210" y="470"/>
    </contour>
  </outline>
</glyph>
<glyph name="odieresis" format="1">
  <advance width="600"/>
  <unicode hex="00F6"/>
  <outline>
    <contour>
      <point x="402" y="648" type="curve" smooth="yes"/>
      <point x="434" y="648"/>
      <point x="457" y="671"/>
      <point x="457" y="701" type="curve" smooth="yes"/>
      <point x="457" y="732"/>
      <point x="434" y="755"/>
      <point x="402" y="755" type="curve" smooth="yes"/>
      <point x="372" y="755"/>
      <point x="349" y="732"/>
      <point x="349" y="701" type="curve" smooth="yes"/>
      <point x="349" y="671"/>
      <point x="372" y="648"/>
    </contour>
    <contour>
      <point x="196" y="648" type="curve" smooth="yes"/>
      <point x="226" y="648"/>
      <point x="250" y="671"/>
      <point x="250" y="701" type="curve" smooth="yes"/>
      <point x="250" y="732"/>
      <point x="226" y="755"/>
      <point x="196" y="755" type="curve" smooth="yes"/>
      <point x="165" y="755"/>
      <point x="142" y="732"/>
      <point x="142" y="701" type="curve" smooth="yes"/>
      <point x="142" y="671"/>
      <point x="165" y="648"/>
    </contour>
    <contour>
      <point x="301" y="538" type="curve" smooth="yes"/>
      <point x="153" y="538"/>
      <point x="74" y="425"/>
      <point x="74" y="263" type="curve" smooth="yes"/>
      <point x="74" y="97"/>
      <point x="152" y="-11"/>
      <point x="300" y="-11" type="curve" smooth="yes"/>
      <point x="447" y="-11"/>
      <point x="526" y="103"/>
      <point x="526" y="264" type="curve" smooth="yes"/>
      <point x="526" y="430"/>
      <point x="449" y="538"/>
    </contour>
    <contour>
      <point x="301" y="470" type="curve" smooth="yes"/>
      <point x="391" y="470"/>
      <point x="437" y="404"/>
      <point x="437" y="264" type="curve" smooth="yes"/>
      <point x="437" y="123"/>
      <point x="391" y="57"/>
      <point x="300" y="57" type="curve" smooth="yes"/>
      <point x="209" y="57"/>
      <point x="163" y="123"/>
      <point x="163" y="263" type="curve" smooth="yes"/>
      <point x="163" y="404"/>
      <point x="210" y="470"/>
    </contour>
  </outline>
</glyph>
<glyph name="divide" format="1">
  <advance width="600"/>
  <unicode hex="00F7"/>
  <outline>
    <contour>
      <point x="300" y="574" type="curve" smooth="yes"/>
      <point x="263" y="574"/>
      <point x="233" y="544"/>
      <point x="233" y="508" type="curve" smooth="yes"/>
      <point x="233" y="470"/>
      <point x="263" y="442"/>
      <point x="300" y="442" type="curve" smooth="yes"/>
      <point x="337" y="442"/>
      <point x="367" y="470"/>
      <point x="367" y="508" type="curve" smooth="yes"/>
      <point x="367" y="544"/>
      <point x="337" y="574"/>
    </contour>
    <contour>
      <point x="484" y="276" type="line"/>
      <point x="484" y="347" type="line"/>
      <point x="116" y="347" type="line"/>
      <point x="116" y="276" type="line"/>
    </contour>
    <contour>
      <point x="300" y="183" type="curve" smooth="yes"/>
      <point x="263" y="183"/>
      <point x="233" y="153"/>
      <point x="233" y="116" type="curve" smooth="yes"/>
      <point x="233" y="79"/>
      <point x="263" y="49"/>
      <point x="300" y="49" type="curve" smooth="yes"/>
      <point x="337" y="49"/>
      <point x="367" y="79"/>
      <point x="367" y="116" type="curve" smooth="yes"/>
      <point x="367" y="153"/>
      <point x="337" y="183"/>
    </contour>
  </outline>
</glyph>
<glyph name="oslash" format="1">
  <advance width="600"/>
  <unicode hex="00F8"/>
  <outline>
    <contour>
      <point x="301" y="469" type="curve" smooth="yes"/>
      <point x="313" y="469"/>
      <point x="324" y="468"/>
      <point x="334" y="466" type="curve"/>
      <point x="216" y="84" type="line"/>
      <point x="181" y="114"/>
      <point x="163" y="171"/>
      <point x="163" y="263" type="curve" smooth="yes"/>
      <point x="163" y="403"/>
      <point x="210" y="469"/>
    </contour>
    <contour>
      <point x="300" y="57" type="curve" smooth="yes"/>
      <point x="288" y="57"/>
      <point x="277" y="58"/>
      <point x="267" y="60" type="curve"/>
      <point x="385" y="441" type="line"/>
      <point x="419" y="411"/>
      <point x="437" y="355"/>
      <point x="437" y="264" type="curve" smooth="yes"/>
      <point x="437" y="123"/>
      <point x="391" y="57"/>
    </contour>
    <contour>
      <point x="417" y="508" type="curve"/>
      <point x="458" y="634" type="line"/>
      <point x="388" y="654" type="line"/>
      <point x="350" y="533" type="line"/>
      <point x="334" y="536"/>
      <point x="318" y="538"/>
      <point x="301" y="538" type="curve" smooth="yes"/>
      <point x="153" y="538"/>
      <point x="74" y="425"/>
      <point x="74" y="263" type="curve" smooth="yes"/>
      <point x="74" y="148"/>
      <point x="114" y="62"/>
      <point x="185" y="19" type="curve"/>
      <point x="143" y="-110" type="line"/>
      <point x="213" y="-130" type="line"/>
      <point x="250" y="-6" type="line"/>
      <point x="266" y="-9"/>
      <point x="282" y="-11"/>
      <point x="300" y="-11" type="curve" smooth="yes"/>
      <point x="447" y="-11"/>
      <point x="526" y="103"/>
      <point x="526" y="264" type="curve" smooth="yes"/>
      <point x="526" y="378"/>
      <point x="487" y="465"/>
    </contour>
  </outline>
</glyph>
<glyph name="uacute" format="1">
  <advance width="600"/>
  <unicode hex="00FA"/>
  <outline>
    <contour>
      <point x="370" y="785" type="line"/>
      <point x="185" y="670" type="line"/>
      <point x="213" y="624" type="line"/>
      <point x="414" y="714" type="line"/>
    </contour>
    <contour>
      <point x="184" y="153" type="curve" smooth="yes"/>
      <point x="184" y="526" type="line"/>
      <point x="101" y="526" type="line"/>
      <point x="101" y="143" type="line" smooth="yes"/>
      <point x="101" y="46"/>
      <point x="151" y="-11"/>
      <point x="253" y="-11" type="curve" smooth="yes"/>
      <point x="314" y="-11"/>
      <point x="380" y="18"/>
      <point x="421" y="71" type="curve"/>
      <point x="428" y="0" type="line"/>
      <point x="499" y="0" type="line"/>
      <point x="499" y="526" type="line"/>
      <point x="416" y="526" type="line"/>
      <point x="416" y="139" type="line"/>
      <point x="388" y="94"/>
      <point x="331" y="55"/>
      <point x="273" y="55" type="curve" smooth="yes"/>
      <point x="212" y="55"/>
      <point x="184" y="84"/>
    </contour>
  </outline>
</glyph>
<glyph name="udieresis" format="1">
  <advance width="600"/>
  <unicode hex="00FC"/>
  <outline>
    <contour>
      <point x="402" y="648" type="curve" smooth="yes"/>
      <point x="434" y="648"/>
      <point x="457" y="671"/>
      <point x="457" y="701" type="curve" smooth="yes"/>
      <point x="457" y="732"/>
      <point x="434" y="755"/>
      <point x="402" y="755" type="curve" smooth="yes"/>
      <point x="372" y="755"/>
      <point x="349" y="732"/>
      <point x="349" y="701" type="curve" smooth="yes"/>
      <point x="349" y="671"/>
      <point x="372" y="648"/>
    </contour>
    <contour>
      <point x="196" y="648" type="curve" smooth="yes"/>
      <point x="226" y="648"/>
      <point x="250" y="671"/>
      <point x="250" y="701" type="curve" smooth="yes"/>
      <point x="250" y="732"/>
      <point x="226" y="755"/>
      <point x="196" y="755" type="curve" smooth="yes"/>
      <point x="165" y="755"/>
      <point x="142" y="732"/>
      <point x="142" y="701" type="curve" smooth="yes"/>
      <point x="142" y="671"/>
      <point x="165" y="648"/>
    </contour>
    <contour>
      <point x="184" y="153" type="curve" smooth="yes"/>
      <point x="184" y="526" type="line"/>
      <point x="101" y="526" type="line"/>
      <point x="101" y="143" type="line" smooth="yes"/>
      <point x="101" y="46"/>
      <point x="151" y="-11"/>
      <point x="253" y="-11" type="curve" smooth="yes"/>
      <point x="314" y="-11"/>
      <point x="380" y="18"/>
      <point x="421" y="71" type="curve"/>
      <point x="428" y="0" type="line"/>
      <point x="499" y="0" type="line"/>
      <point x="499" y="526" type="line"/>
      <point x="416" y="526" type="line"/>
      <point x="416" y="139" type="line"/>
      <point x="388" y="94"/>
      <point x="331" y="55"/>
      <point x="273" y="55" type="curve" smooth="yes"/>
      <point x="212" y="55"/>
      <point x="184" y="84"/>
    </contour>
  </outline>
</glyph>
<glyph name="thorn" format="1">
  <advance width="600"/>
  <unicode hex="00FE"/>
  <outline>
    <contour>
      <point x="316" y="471" type="curve" smooth="yes"/>
      <point x="399" y="471"/>
      <point x="437" y="402"/>
      <point x="437" y="264" type="curve" smooth="yes"/>
      <point x="437" y="123"/>
      <point x="393" y="58"/>
      <point x="305" y="58" type="curve" smooth="yes"/>
      <point x="255" y="58"/>
      <point x="211" y="83"/>
      <point x="184" y="124" type="curve"/>
      <point x="184" y="386" type="line"/>
      <point x="212" y="428"/>
      <point x="257" y="471"/>
    </contour>
    <contour>
      <point x="184" y="461" type="curve"/>
      <point x="184" y="749" type="line"/>
      <point x="101" y="739" type="line"/>
      <point x="101" y="-212" type="line"/>
      <point x="184" y="-202" type="line"/>
      <point x="184" y="49" type="line"/>
      <point x="219" y="9"/>
      <point x="266" y="-11"/>
      <point x="323" y="-11" type="curve" smooth="yes"/>
      <point x="460" y="-11"/>
      <point x="526" y="104"/>
      <point x="526" y="264" type="curve" smooth="yes"/>
      <point x="526" y="429"/>
      <point x="476" y="538"/>
      <point x="336" y="538" type="curve" smooth="yes"/>
      <point x="276" y="538"/>
      <point x="222" y="511"/>
    </contour>
  </outline>
</glyph>
<glyph name="Amacron" format="1">
  <advance width="600"/>
  <unicode hex="0100"/>
  <outline>
    <contour>
      <point x="165" y="795" type="line"/>
      <point x="434" y="795" type="line"/>
      <point x="434" y="859" type="line"/>
      <point x="165" y="859" type="line"/>
    </contour>
    <contour>
      <point x="412" y="247" type="line"/>
      <point x="183" y="247" type="line"/>
      <point x="298" y="616" type="line"/>
    </contour>
    <contour>
      <point x="161" y="176" type="line"/>
      <point x="434" y="176" type="line"/>
      <point x="489" y="0" type="line"/>
      <point x="579" y="0" type="line"/>
      <point x="355" y="688" type="line"/>
      <point x="245" y="688" type="line"/>
      <point x="21" y="0" type="line"/>
      <point x="105" y="0" type="line"/>
    </contour>
  </outline>
</glyph>
<glyph name="Aogonek" format="1">
  <advance width="600"/>
  <unicode hex="0104"/>
  <outline>
    <contour>
      <point x="539" y="0" type="curve"/>
      <point x="579" y="0" type="line"/>
      <point x="355" y="688" type="line"/>
      <point x="245" y="688" type="line"/>
      <point x="21" y="0" type="line"/>
      <point x="105" y="0" type="line"/>
      <point x="161" y="176" type="line"/>
      <point x="434" y="176" type="line"/>
      <point x="484" y="17" type="line"/>
      <point x="383" y="-20"/>
      <point x="339" y="-69"/>
      <point x="339" y="-131" type="curve" smooth="yes"/>
      <point x="339" y="-186"/>
      <point x="384" y="-229"/>
      <point x="460" y="-229" type="curve" smooth="yes"/>
      <point x="487" y="-229"/>
      <point x="504" y="-226"/>
      <point x="524" y="-222" type="curve"/>
      <point x="532" y="-155" type="line"/>
      <point x="507" y="-161"/>
      <point x="491" y="-162"/>
      <point x="470" y="-162" type="curve" smooth="yes"/>
      <point x="429" y="-162"/>
      <point x="415" y="-144"/>
      <point x="415" y="-115" type="curve" smooth="yes"/>
      <point x="415" y="-79"/>
      <point x="436" y="-46"/>
    </contour>
    <contour>
      <point x="412" y="247" type="line"/>
      <point x="183" y="247" type="line"/>
      <point x="298" y="616" type="line"/>
    </contour>
  </outline>
</glyph>
<glyph name="aogonek" format="1">
  <advance width="600"/>
  <unicode hex="0105"/>
  <outline>
    <contour>
      <point x="500" y="-12" type="curve"/>
      <point x="520" y="47" type="line"/>
      <point x="491" y="56"/>
      <point x="477" y="72"/>
      <point x="477" y="114" type="curve" smooth="yes"/>
      <point x="477" y="368" type="line" smooth="yes"/>
      <point x="477" y="472"/>
      <point x="411" y="538"/>
      <point x="280" y="538" type="curve" smooth="yes"/>
      <point x="229" y="538"/>
      <point x="173" y="528"/>
      <point x="109" y="504" type="curve"/>
      <point x="131" y="442" type="line"/>
      <point x="185" y="461"/>
      <point x="233" y="468"/>
      <point x="268" y="468" type="curve" smooth="yes"/>
      <point x="346" y="468"/>
      <point x="393" y="440"/>
      <point x="393" y="364" type="curve" smooth="yes"/>
      <point x="393" y="320" type="line"/>
      <point x="316" y="320" type="line" smooth="yes"/>
      <point x="156" y="320"/>
      <point x="69" y="259"/>
      <point x="69" y="151" type="curve" smooth="yes"/>
      <point x="69" y="53"/>
      <point x="133" y="-11"/>
      <point x="239" y="-11" type="curve" smooth="yes"/>
      <point x="307" y="-11"/>
      <point x="366" y="14"/>
      <point x="404" y="63" type="curve"/>
      <point x="412" y="36"/>
      <point x="428" y="18"/>
      <point x="448" y="6" type="curve"/>
      <point x="345" y="-31"/>
      <point x="300" y="-80"/>
      <point x="300" y="-143" type="curve" smooth="yes"/>
      <point x="300" y="-198"/>
      <point x="345" y="-241"/>
      <point x="421" y="-241" type="curve" smooth="yes"/>
      <point x="448" y="-241"/>
      <point x="465" y="-238"/>
      <point x="485" y="-234" type="curve"/>
      <point x="493" y="-167" type="line"/>
      <point x="468" y="-173"/>
      <point x="452" y="-174"/>
      <point x="431" y="-174" type="curve" smooth="yes"/>
      <point x="390" y="-174"/>
      <point x="376" y="-156"/>
      <point x="376" y="-127" type="curve" smooth="yes"/>
      <point x="376" y="-91"/>
      <point x="397" y="-58"/>
    </contour>
    <contour>
      <point x="393" y="263" type="line"/>
      <point x="393" y="127" type="line"/>
      <point x="362" y="79"/>
      <point x="312" y="52"/>
      <point x="260" y="52" type="curve" smooth="yes"/>
      <point x="191" y="52"/>
      <point x="158" y="86"/>
      <point x="158" y="152" type="curve" smooth="yes"/>
      <point x="158" y="220"/>
      <point x="200" y="263"/>
      <point x="317" y="263" type="curve" smooth="yes"/>
    </contour>
  </outline>
</glyph>
<glyph name="Dcaron" format="1">
  <advance width="600"/>
  <unicode hex="010E"/>
  <outline>
    <contour>
      <point x="447" y="862" type="line"/>
      <point x="410" y="904" type="line"/>
      <point x="284" y="823" type="line"/>
      <point x="159" y="904" type="line"/>
      <point x="121" y="862" type="line"/>
      <point x="257" y="754" type="line"/>
      <point x="313" y="754" type="line"/>
    </contour>
    <contour>
      <point x="552" y="348" type="curve" smooth="yes"/>
      <point x="552" y="634"/>
      <point x="391" y="688"/>
      <point x="230" y="688" type="curve" smooth="yes"/>
      <point x="84" y="688" type="line"/>
      <point x="84" y="0" type="line"/>
      <point x="241" y="0" type="line" smooth="yes"/>
      <point x="384" y="0"/>
      <point x="552" y="59"/>
    </contour>
    <contour>
      <point x="461" y="348" type="curve" smooth="yes"/>
      <point x="461" y="119"/>
      <point x="351" y="69"/>
      <point x="252" y="69" type="curve" smooth="yes"/>
      <point x="169" y="69" type="line"/>
      <point x="169" y="618" type="line"/>
      <point x="251" y="618" type="line" smooth="yes"/>
      <point x="346" y="618"/>
      <point x="461" y="588"/>
    </contour>
  </outline>
</glyph>
<glyph name="dcaron" format="1">
  <advance width="600"/>
  <unicode hex="010F"/>
  <outline>
    <contour>
      <point x="612" y="738" type="line"/>
      <point x="537" y="747" type="line"/>
      <point x="512" y="567" type="line"/>
      <point x="559" y="560" type="line"/>
    </contour>
    <contour>
      <point x="267" y="471" type="curve" smooth="yes"/>
      <point x="316" y="471"/>
      <point x="359" y="445"/>
      <point x="388" y="403" type="curve"/>
      <point x="388" y="139" type="line"/>
      <point x="359" y="96"/>
      <point x="317" y="56"/>
      <point x="257" y="56" type="curve" smooth="yes"/>
      <point x="174" y="56"/>
      <point x="130" y="126"/>
      <point x="130" y="263" type="curve" smooth="yes"/>
      <point x="130" y="402"/>
      <point x="179" y="471"/>
    </contour>
    <contour>
      <point x="470" y="739" type="line"/>
      <point x="388" y="749" type="line"/>
      <point x="388" y="475" type="line"/>
      <point x="352" y="516"/>
      <point x="307" y="538"/>
      <point x="246" y="538" type="curve" smooth="yes"/>
      <point x="116" y="538"/>
      <point x="40" y="421"/>
      <point x="40" y="262" type="curve" smooth="yes"/>
      <point x="40" y="99"/>
      <point x="103" y="-11"/>
      <point x="240" y="-11" type="curve" smooth="yes"/>
      <point x="298" y="-11"/>
      <point x="350" y="14"/>
      <point x="390" y="69" type="curve"/>
      <point x="398" y="0" type="line"/>
      <point x="470" y="0" type="line"/>
    </contour>
  </outline>
</glyph>
<glyph name="Dcroat" format="1">
  <advance width="600"/>
  <unicode hex="0110"/>
  <outline>
    <contour>
      <point x="240" y="688" type="curve" smooth="yes"/>
      <point x="93" y="688" type="line"/>
      <point x="93" y="386" type="line"/>
      <point x="20" y="386" type="line"/>
      <point x="20" y="320" type="line"/>
      <point x="93" y="320" type="line"/>
      <point x="93" y="0" type="line"/>
      <point x="251" y="0" type="line" smooth="yes"/>
      <point x="393" y="0"/>
      <point x="562" y="59"/>
      <point x="562" y="348" type="curve" smooth="yes"/>
      <point x="562" y="634"/>
      <point x="401" y="688"/>
    </contour>
    <contour>
      <point x="262" y="69" type="curve" smooth="yes"/>
      <point x="179" y="69" type="line"/>
      <point x="179" y="320" type="line"/>
      <point x="338" y="320" type="line"/>
      <point x="338" y="386" type="line"/>
      <point x="179" y="386" type="line"/>
      <point x="179" y="618" type="line"/>
      <point x="261" y="618" type="line" smooth="yes"/>
      <point x="356" y="618"/>
      <point x="470" y="588"/>
      <point x="470" y="348" type="curve" smooth="yes"/>
      <point x="470" y="119"/>
      <point x="361" y="69"/>
    </contour>
  </outline>
</glyph>
<glyph name="dcroat" format="1">
  <advance width="600"/>
  <unicode hex="0111"/>
  <outline>
    <contour>
      <point x="419" y="403" type="curve"/>
      <point x="419" y="139" type="line"/>
      <point x="390" y="96"/>
      <point x="349" y="56"/>
      <point x="289" y="56" type="curve" smooth="yes"/>
      <point x="205" y="56"/>
      <point x="161" y="126"/>
      <point x="161" y="263" type="curve" smooth="yes"/>
      <point x="161" y="402"/>
      <point x="211" y="471"/>
      <point x="299" y="471" type="curve" smooth="yes"/>
      <point x="348" y="471"/>
      <point x="390" y="445"/>
    </contour>
    <contour>
      <point x="581" y="598" type="line"/>
      <point x="581" y="664" type="line"/>
      <point x="502" y="664" type="line"/>
      <point x="502" y="739" type="line"/>
      <point x="419" y="749" type="line"/>
      <point x="419" y="664" type="line"/>
      <point x="247" y="664" type="line"/>
      <point x="247" y="598" type="line"/>
      <point x="419" y="598" type="line"/>
      <point x="419" y="475" type="line"/>
      <point x="383" y="516"/>
      <point x="338" y="538"/>
      <point x="277" y="538" type="curve" smooth="yes"/>
      <point x="147" y="538"/>
      <point x="71" y="421"/>
      <point x="71" y="262" type="curve" smooth="yes"/>
      <point x="71" y="99"/>
      <point x="134" y="-11"/>
      <point x="272" y="-11" type="curve" smooth="yes"/>
      <point x="329" y="-11"/>
      <point x="382" y="14"/>
      <point x="421" y="69" type="curve"/>
      <point x="429" y="0" type="line"/>
      <point x="502" y="0" type="line"/>
      <point x="502" y="598" type="line"/>
    </contour>
  </outline>
</glyph>
<glyph name="Emacron" format="1">
  <advance width="600"/>
  <unicode hex="0112"/>
  <outline>
    <contour>
      <point x="186" y="795" type="line"/>
      <point x="455" y="795" type="line"/>
      <point x="455" y="859" type="line"/>
      <point x="186" y="859" type="line"/>
    </contour>
    <contour>
      <point x="212" y="385" type="line"/>
      <point x="212" y="618" type="line"/>
      <point x="506" y="618" type="line"/>
      <point x="516" y="688" type="line"/>
      <point x="126" y="688" type="line"/>
      <point x="126" y="0" type="line"/>
      <point x="525" y="0" type="line"/>
      <point x="525" y="69" type="line"/>
      <point x="212" y="69" type="line"/>
      <point x="212" y="314" type="line"/>
      <point x="467" y="314" type="line"/>
      <point x="467" y="385" type="line"/>
    </contour>
  </outline>
</glyph>
<glyph name="Ebreve" format="1">
  <advance width="600"/>
  <unicode hex="0114"/>
  <outline>
    <contour>
      <point x="319" y="759" type="curve" smooth="yes"/>
      <point x="396" y="759"/>
      <point x="461" y="805"/>
      <point x="469" y="878" type="curve"/>
      <point x="412" y="890" type="line"/>
      <point x="398" y="851"/>
      <point x="366" y="823"/>
      <point x="319" y="823" type="curve" smooth="yes"/>
      <point x="272" y="823"/>
      <point x="243" y="851"/>
      <point x="229" y="890" type="curve"/>
      <point x="172" y="878" type="line"/>
      <point x="180" y="805"/>
      <point x="243" y="759"/>
    </contour>
    <contour>
      <point x="212" y="385" type="line"/>
      <point x="212" y="618" type="line"/>
      <point x="506" y="618" type="line"/>
      <point x="516" y="688" type="line"/>
      <point x="126" y="688" type="line"/>
      <point x="126" y="0" type="line"/>
      <point x="525" y="0" type="line"/>
      <point x="525" y="69" type="line"/>
      <point x="212" y="69" type="line"/>
      <point x="212" y="314" type="line"/>
      <point x="467" y="314" type="line"/>
      <point x="467" y="385" type="line"/>
    </contour>
  </outline>
</glyph>
<glyph name="Edotaccent" format="1">
  <advance width="600"/>
  <unicode hex="0116"/>
  <outline>
    <contour>
      <point x="320" y="892" type="curve" smooth="yes"/>
      <point x="284" y="892"/>
      <point x="260" y="866"/>
      <point x="260" y="833" type="curve" smooth="yes"/>
      <point x="260" y="799"/>
      <point x="284" y="774"/>
      <point x="320" y="774" type="curve" smooth="yes"/>
      <point x="357" y="774"/>
      <point x="381" y="799"/>
      <point x="381" y="833" type="curve" smooth="yes"/>
      <point x="381" y="866"/>
      <point x="357" y="892"/>
    </contour>
    <contour>
      <point x="212" y="385" type="line"/>
      <point x="212" y="618" type="line"/>
      <point x="506" y="618" type="line"/>
      <point x="516" y="688" type="line"/>
      <point x="126" y="688" type="line"/>
      <point x="126" y="0" type="line"/>
      <point x="525" y="0" type="line"/>
      <point x="525" y="69" type="line"/>
      <point x="212" y="69" type="line"/>
      <point x="212" y="314" type="line"/>
      <point x="467" y="314" type="line"/>
      <point x="467" y="385" type="line"/>
    </contour>
  </outline>
</glyph>
<glyph name="edotaccent" format="1">
  <advance width="600"/>
  <unicode hex="0117"/>
  <outline>
    <contour>
      <point x="309" y="773" type="curve" smooth="yes"/>
      <point x="273" y="773"/>
      <point x="249" y="747"/>
      <point x="249" y="714" type="curve" smooth="yes"/>
      <point x="249" y="680"/>
      <point x="273" y="655"/>
      <point x="309" y="655" type="curve" smooth="yes"/>
      <point x="346" y="655"/>
      <point x="370" y="680"/>
      <point x="370" y="714" type="curve" smooth="yes"/>
      <point x="370" y="747"/>
      <point x="346" y="773"/>
    </contour>
    <contour>
      <point x="166" y="234" type="curve"/>
      <point x="520" y="234" type="line"/>
      <point x="521" y="245"/>
      <point x="522" y="261"/>
      <point x="522" y="279" type="curve" smooth="yes"/>
      <point x="522" y="439"/>
      <point x="441" y="538"/>
      <point x="305" y="538" type="curve" smooth="yes"/>
      <point x="169" y="538"/>
      <point x="79" y="422"/>
      <point x="79" y="263" type="curve" smooth="yes"/>
      <point x="79" y="99"/>
      <point x="166" y="-11"/>
      <point x="320" y="-11" type="curve" smooth="yes"/>
      <point x="385" y="-11"/>
      <point x="451" y="12"/>
      <point x="500" y="50" type="curve"/>
      <point x="461" y="107" type="line"/>
      <point x="415" y="70"/>
      <point x="368" y="58"/>
      <point x="320" y="58" type="curve" smooth="yes"/>
      <point x="239" y="58"/>
      <point x="170" y="111"/>
    </contour>
    <contour>
      <point x="306" y="469" type="curve" smooth="yes"/>
      <point x="389" y="469"/>
      <point x="440" y="411"/>
      <point x="442" y="298" type="curve"/>
      <point x="166" y="298" type="line"/>
      <point x="173" y="414"/>
      <point x="231" y="469"/>
    </contour>
  </outline>
</glyph>
<glyph name="Eogonek" format="1">
  <advance width="600"/>
  <unicode hex="0118"/>
  <outline>
    <contour>
      <point x="525" y="69" type="line"/>
      <point x="212" y="69" type="line"/>
      <point x="212" y="314" type="line"/>
      <point x="467" y="314" type="line"/>
      <point x="467" y="385" type="line"/>
      <point x="212" y="385" type="line"/>
      <point x="212" y="618" type="line"/>
      <point x="506" y="618" type="line"/>
      <point x="516" y="688" type="line"/>
      <point x="126" y="688" type="line"/>
      <point x="126" y="0" type="line"/>
      <point x="373" y="0" type="line"/>
      <point x="300" y="-34"/>
      <point x="268" y="-78"/>
      <point x="268" y="-131" type="curve" smooth="yes"/>
      <point x="268" y="-186"/>
      <point x="313" y="-229"/>
      <point x="389" y="-229" type="curve" smooth="yes"/>
      <point x="416" y="-229"/>
      <point x="433" y="-226"/>
      <point x="453" y="-222" type="curve"/>
      <point x="461" y="-155" type="line"/>
      <point x="436" y="-161"/>
      <point x="420" y="-162"/>
      <point x="399" y="-162" type="curve" smooth="yes"/>
      <point x="358" y="-162"/>
      <point x="344" y="-144"/>
      <point x="344" y="-115" type="curve" smooth="yes"/>
      <point x="344" y="-79"/>
      <point x="365" y="-46"/>
      <point x="468" y="0" type="curve"/>
      <point x="525" y="0" type="line"/>
    </contour>
  </outline>
</glyph>
<glyph name="eogonek" format="1">
  <advance width="600"/>
  <unicode hex="0119"/>
  <outline>
    <contour>
      <point x="522" y="279" type="curve" smooth="yes"/>
      <point x="522" y="439"/>
      <point x="441" y="538"/>
      <point x="305" y="538" type="curve" smooth="yes"/>
      <point x="169" y="538"/>
      <point x="79" y="422"/>
      <point x="79" y="263" type="curve" smooth="yes"/>
      <point x="79" y="106"/>
      <point x="159" y="-2"/>
      <point x="301" y="-10" type="curve"/>
      <point x="233" y="-38"/>
      <point x="199" y="-80"/>
      <point x="199" y="-131" type="curve" smooth="yes"/>
      <point x="199" y="-186"/>
      <point x="244" y="-229"/>
      <point x="320" y="-229" type="curve" smooth="yes"/>
      <point x="347" y="-229"/>
      <point x="364" y="-226"/>
      <point x="384" y="-222" type="curve"/>
      <point x="392" y="-155" type="line"/>
      <point x="367" y="-161"/>
      <point x="351" y="-162"/>
      <point x="330" y="-162" type="curve" smooth="yes"/>
      <point x="289" y="-162"/>
      <point x="275" y="-144"/>
      <point x="275" y="-115" type="curve" smooth="yes"/>
      <point x="275" y="-79"/>
      <point x="296" y="-46"/>
      <point x="399" y="0" type="curve"/>
      <point x="436" y="10"/>
      <point x="471" y="28"/>
      <point x="500" y="50" type="curve"/>
      <point x="461" y="107" type="line"/>
      <point x="415" y="70"/>
      <point x="368" y="58"/>
      <point x="320" y="58" type="curve" smooth="yes"/>
      <point x="239" y="58"/>
      <point x="170" y="111"/>
      <point x="166" y="234" type="curve"/>
      <point x="520" y="234" type="line"/>
      <point x="521" y="245"/>
      <point x="522" y="261"/>
    </contour>
    <contour>
      <point x="442" y="298" type="curve"/>
      <point x="166" y="298" type="line"/>
      <point x="173" y="414"/>
      <point x="231" y="469"/>
      <point x="306" y="469" type="curve" smooth="yes"/>
      <point x="389" y="469"/>
      <point x="440" y="411"/>
    </contour>
  </outline>
</glyph>
<glyph name="Ecaron" format="1">
  <advance width="600"/>
  <unicode hex="011A"/>
  <outline>
    <contour>
      <point x="484" y="862" type="line"/>
      <point x="447" y="904" type="line"/>
      <point x="321" y="823" type="line"/>
      <point x="196" y="904" type="line"/>
      <point x="158" y="862" type="line"/>
      <point x="294" y="754" type="line"/>
      <point x="350" y="754" type="line"/>
    </contour>
    <contour>
      <point x="212" y="385" type="line"/>
      <point x="212" y="618" type="line"/>
      <point x="506" y="618" type="line"/>
      <point x="516" y="688" type="line"/>
      <point x="126" y="688" type="line"/>
      <point x="126" y="0" type="line"/>
      <point x="525" y="0" type="line"/>
      <point x="525" y="69" type="line"/>
      <point x="212" y="69" type="line"/>
      <point x="212" y="314" type="line"/>
      <point x="467" y="314" type="line"/>
      <point x="467" y="385" type="line"/>
    </contour>
  </outline>
</glyph>
<glyph name="ecaron" format="1">
  <advance width="600"/>
  <unicode hex="011B"/>
  <outline>
    <contour>
      <point x="473" y="748" type="line"/>
      <point x="435" y="789" type="line"/>
      <point x="311" y="698" type="line"/>
      <point x="187" y="789" type="line"/>
      <point x="147" y="748" type="line"/>
      <point x="283" y="629" type="line"/>
      <point x="339" y="629" type="line"/>
    </contour>
    <contour>
      <point x="166" y="234" type="curve"/>
      <point x="520" y="234" type="line"/>
      <point x="521" y="245"/>
      <point x="522" y="261"/>
      <point x="522" y="279" type="curve" smooth="yes"/>
      <point x="522" y="439"/>
      <point x="441" y="538"/>
      <point x="305" y="538" type="curve" smooth="yes"/>
      <point x="169" y="538"/>
      <point x="79" y="422"/>
      <point x="79" y="263" type="curve" smooth="yes"/>
      <point x="79" y="99"/>
      <point x="166" y="-11"/>
      <point x="320" y="-11" type="curve" smooth="yes"/>
      <point x="385" y="-11"/>
      <point x="451" y="12"/>
      <point x="500" y="50" type="curve"/>
      <point x="461" y="107" type="line"/>
      <point x="415" y="70"/>
      <point x="368" y="58"/>
      <point x="320" y="58" type="curve" smooth="yes"/>
      <point x="239" y="58"/>
      <point x="170" y="111"/>
    </contour>
    <contour>
      <point x="306" y="469" type="curve" smooth="yes"/>
      <point x="389" y="469"/>
      <point x="440" y="411"/>
      <point x="442" y="298" type="curve"/>
      <point x="166" y="298" type="line"/>
      <point x="173" y="414"/>
      <point x="231" y="469"/>
    </contour>
  </outline>
</glyph>
<glyph name="Gbreve" format="1">
  <advance width="600"/>
  <unicode hex="011E"/>
  <outline>
    <contour>
      <point x="328" y="759" type="curve" smooth="yes"/>
      <point x="405" y="759"/>
      <point x="470" y="805"/>
      <point x="478" y="878" type="curve"/>
      <point x="421" y="890" type="line"/>
      <point x="407" y="851"/>
      <point x="375" y="823"/>
      <point x="328" y="823" type="curve" smooth="yes"/>
      <point x="281" y="823"/>
      <point x="252" y="851"/>
      <point x="238" y="890" type="curve"/>
      <point x="181" y="878" type="line"/>
      <point x="189" y="805"/>
      <point x="252" y="759"/>
    </contour>
    <contour>
      <point x="314" y="-11" type="curve" smooth="yes"/>
      <point x="411" y="-11"/>
      <point x="476" y="15"/>
      <point x="538" y="48" type="curve"/>
      <point x="538" y="376" type="line"/>
      <point x="307" y="376" type="line"/>
      <point x="317" y="305" type="line"/>
      <point x="453" y="305" type="line"/>
      <point x="453" y="94" type="line"/>
      <point x="413" y="72"/>
      <point x="369" y="61"/>
      <point x="321" y="61" type="curve" smooth="yes"/>
      <point x="201" y="61"/>
      <point x="137" y="144"/>
      <point x="137" y="345" type="curve" smooth="yes"/>
      <point x="137" y="557"/>
      <point x="234" y="627"/>
      <point x="334" y="627" type="curve" smooth="yes"/>
      <point x="391" y="627"/>
      <point x="436" y="609"/>
      <point x="478" y="570" type="curve"/>
      <point x="530" y="624" type="line"/>
      <point x="476" y="674"/>
      <point x="423" y="700"/>
      <point x="334" y="700" type="curve" smooth="yes"/>
      <point x="186" y="700"/>
      <point x="46" y="582"/>
      <point x="46" y="345" type="curve" smooth="yes"/>
      <point x="46" y="107"/>
      <point x="151" y="-11"/>
    </contour>
  </outline>
</glyph>
<glyph name="Gcommaaccent" format="1">
  <advance width="600"/>
  <unicode hex="0122"/>
  <outline>
    <contour>
      <point x="314" y="-11" type="curve" smooth="yes"/>
      <point x="411" y="-11"/>
      <point x="476" y="15"/>
      <point x="538" y="48" type="curve"/>
      <point x="538" y="376" type="line"/>
      <point x="307" y="376" type="line"/>
      <point x="317" y="305" type="line"/>
      <point x="453" y="305" type="line"/>
      <point x="453" y="94" type="line"/>
      <point x="413" y="72"/>
      <point x="369" y="61"/>
      <point x="321" y="61" type="curve" smooth="yes"/>
      <point x="201" y="61"/>
      <point x="137" y="144"/>
      <point x="137" y="345" type="curve" smooth="yes"/>
      <point x="137" y="557"/>
      <point x="234" y="627"/>
      <point x="334" y="627" type="curve" smooth="yes"/>
      <point x="391" y="627"/>
      <point x="436" y="609"/>
      <point x="478" y="570" type="curve"/>
      <point x="530" y="624" type="line"/>
      <point x="476" y="674"/>
      <point x="423" y="700"/>
      <point x="334" y="700" type="curve" smooth="yes"/>
      <point x="186" y="700"/>
      <point x="46" y="582"/>
      <point x="46" y="345" type="curve" smooth="yes"/>
      <point x="46" y="107"/>
      <point x="151" y="-11"/>
    </contour>
    <contour>
      <point x="334" y="-71" type="curve" smooth="yes"/>
      <point x="304" y="-71"/>
      <point x="280" y="-93"/>
      <point x="280" y="-124" type="curve" smooth="yes"/>
      <point x="280" y="-141"/>
      <point x="289" y="-158"/>
      <point x="302" y="-168" type="curve"/>
      <point x="273" y="-286" type="line"/>
      <point x="323" y="-286" type="line"/>
      <point x="373" y="-178" type="line" smooth="yes"/>
      <point x="384" y="-155"/>
      <point x="388" y="-141"/>
      <point x="388" y="-124" type="curve" smooth="yes"/>
      <point x="388" y="-93"/>
      <point x="365" y="-71"/>
    </contour>
  </outline>
</glyph>
<glyph name="Hcircumflex" format="1">
  <advance width="600"/>
  <unicode hex="0124"/>
  <outline>
    <contour>
      <point x="463" y="803" type="line"/>
      <point x="329" y="910" type="line"/>
      <point x="273" y="910" type="line"/>
      <point x="137" y="803" type="line"/>
      <point x="175" y="760" type="line"/>
      <point x="300" y="841" type="line"/>
      <point x="426" y="760" type="line"/>
    </contour>
    <contour>
      <point x="431" y="328" type="line"/>
      <point x="431" y="0" type="line"/>
      <point x="516" y="0" type="line"/>
      <point x="516" y="688" type="line"/>
      <point x="431" y="688" type="line"/>
      <point x="431" y="397" type="line"/>
      <point x="169" y="397" type="line"/>
      <point x="169" y="688" type="line"/>
      <point x="84" y="688" type="line"/>
      <point x="84" y="0" type="line"/>
      <point x="169" y="0" type="line"/>
      <point x="169" y="328" type="line"/>
    </contour>
  </outline>
</glyph>
<glyph name="Hbar" format="1">
  <advance width="600"/>
  <unicode hex="0126"/>
  <outline>
    <contour>
      <point x="431" y="509" type="line"/>
      <point x="431" y="398" type="line"/>
      <point x="169" y="398" type="line"/>
      <point x="169" y="509" type="line"/>
    </contour>
    <contour>
      <point x="598" y="509" type="line"/>
      <point x="598" y="575" type="line"/>
      <point x="517" y="575" type="line"/>
      <point x="517" y="688" type="line"/>
      <point x="431" y="688" type="line"/>
      <point x="431" y="575" type="line"/>
      <point x="169" y="575" type="line"/>
      <point x="169" y="688" type="line"/>
      <point x="83" y="688" type="line"/>
      <point x="83" y="575" type="line"/>
      <point x="2" y="575" type="line"/>
      <point x="2" y="509" type="line"/>
      <point x="83" y="509" type="line"/>
      <point x="83" y="0" type="line"/>
      <point x="169" y="0" type="line"/>
      <point x="169" y="327" type="line"/>
      <point x="431" y="327" type="line"/>
      <point x="431" y="0" type="line"/>
      <point x="517" y="0" type="line"/>
      <point x="517" y="509" type="line"/>
    </contour>
  </outline>
</glyph>
<glyph name="hbar" format="1">
  <advance width="600"/>
  <unicode hex="0127"/>
  <outline>
    <contour>
      <point x="352" y="538" type="curve" smooth="yes"/>
      <point x="290" y="538"/>
      <point x="225" y="509"/>
      <point x="184" y="454" type="curve"/>
      <point x="184" y="598" type="line"/>
      <point x="353" y="598" type="line"/>
      <point x="353" y="664" type="line"/>
      <point x="184" y="664" type="line"/>
      <point x="184" y="747" type="line"/>
      <point x="101" y="737" type="line"/>
      <point x="101" y="664" type="line"/>
      <point x="19" y="664" type="line"/>
      <point x="19" y="598" type="line"/>
      <point x="101" y="598" type="line"/>
      <point x="101" y="0" type="line"/>
      <point x="184" y="0" type="line"/>
      <point x="184" y="384" type="line"/>
      <point x="211" y="425"/>
      <point x="265" y="472"/>
      <point x="326" y="472" type="curve" smooth="yes"/>
      <point x="388" y="472"/>
      <point x="417" y="444"/>
      <point x="417" y="381" type="curve" smooth="yes"/>
      <point x="417" y="0" type="line"/>
      <point x="500" y="0" type="line"/>
      <point x="500" y="382" type="line" smooth="yes"/>
      <point x="500" y="480"/>
      <point x="455" y="538"/>
    </contour>
  </outline>
</glyph>
<glyph name="itilde" format="1">
  <advance width="600"/>
  <unicode hex="0129"/>
  <outline>
    <contour>
      <point x="352" y="652" type="curve" smooth="yes"/>
      <point x="409" y="652"/>
      <point x="443" y="693"/>
      <point x="463" y="737" type="curve"/>
      <point x="409" y="761" type="line"/>
      <point x="393" y="733"/>
      <point x="380" y="717"/>
      <point x="358" y="717" type="curve" smooth="yes"/>
      <point x="327" y="717"/>
      <point x="308" y="765"/>
      <point x="249" y="765" type="curve" smooth="yes"/>
      <point x="192" y="765"/>
      <point x="158" y="726"/>
      <point x="138" y="681" type="curve"/>
      <point x="192" y="657" type="line"/>
      <point x="208" y="685"/>
      <point x="221" y="701"/>
      <point x="243" y="701" type="curve" smooth="yes"/>
      <point x="274" y="701"/>
      <point x="295" y="652"/>
    </contour>
    <contour>
      <point x="367" y="66" type="line"/>
      <point x="367" y="526" type="line"/>
      <point x="126" y="526" type="line"/>
      <point x="126" y="461" type="line"/>
      <point x="284" y="461" type="line"/>
      <point x="284" y="66" type="line"/>
      <point x="121" y="66" type="line"/>
      <point x="121" y="0" type="line"/>
      <point x="515" y="0" type="line"/>
      <point x="515" y="66" type="line"/>
    </contour>
  </outline>
</glyph>
<glyph name="imacron" format="1">
  <advance width="600"/>
  <unicode hex="012B"/>
  <outline>
    <contour>
      <point x="166" y="676" type="line"/>
      <point x="435" y="676" type="line"/>
      <point x="435" y="740" type="line"/>
      <point x="166" y="740" type="line"/>
    </contour>
    <contour>
      <point x="367" y="66" type="line"/>
      <point x="367" y="526" type="line"/>
      <point x="126" y="526" type="line"/>
      <point x="126" y="461" type="line"/>
      <point x="284" y="461" type="line"/>
      <point x="284" y="66" type="line"/>
      <point x="121" y="66" type="line"/>
      <point x="121" y="0" type="line"/>
      <point x="515" y="0" type="line"/>
      <point x="515" y="66" type="line"/>
    </contour>
  </outline>
</glyph>
<glyph name="Ibreve" format="1">
  <advance width="600"/>
  <unicode hex="012C"/>
  <outline>
    <contour>
      <point x="298" y="759" type="curve" smooth="yes"/>
      <point x="375" y="759"/>
      <point x="440" y="805"/>
      <point x="448" y="878" type="curve"/>
      <point x="391" y="890" type="line"/>
      <point x="377" y="851"/>
      <point x="345" y="823"/>
      <point x="298" y="823" type="curve" smooth="yes"/>
      <point x="251" y="823"/>
      <point x="222" y="851"/>
      <point x="208" y="890" type="curve"/>
      <point x="151" y="878" type="line"/>
      <point x="159" y="805"/>
      <point x="222" y="759"/>
    </contour>
    <contour>
      <point x="497" y="620" type="line"/>
      <point x="497" y="688" type="line"/>
      <point x="103" y="688" type="line"/>
      <point x="103" y="620" type="line"/>
      <point x="257" y="620" type="line"/>
      <point x="257" y="69" type="line"/>
      <point x="103" y="69" type="line"/>
      <point x="103" y="0" type="line"/>
      <point x="497" y="0" type="line"/>
      <point x="497" y="69" type="line"/>
      <point x="343" y="69" type="line"/>
      <point x="343" y="620" type="line"/>
    </contour>
  </outline>
</glyph>
<glyph name="ibreve" format="1">
  <advance width="600"/>
  <unicode hex="012D"/>
  <outline>
    <contour>
      <point x="299" y="630" type="curve" smooth="yes"/>
      <point x="391" y="630"/>
      <point x="441" y="705"/>
      <point x="449" y="765" type="curve"/>
      <point x="392" y="778" type="line"/>
      <point x="377" y="728"/>
      <point x="347" y="694"/>
      <point x="299" y="694" type="curve" smooth="yes"/>
      <point x="252" y="694"/>
      <point x="223" y="728"/>
      <point x="209" y="778" type="curve"/>
      <point x="152" y="765" type="line"/>
      <point x="160" y="705"/>
      <point x="208" y="630"/>
    </contour>
    <contour>
      <point x="367" y="66" type="line"/>
      <point x="367" y="526" type="line"/>
      <point x="126" y="526" type="line"/>
      <point x="126" y="461" type="line"/>
      <point x="284" y="461" type="line"/>
      <point x="284" y="66" type="line"/>
      <point x="121" y="66" type="line"/>
      <point x="121" y="0" type="line"/>
      <point x="515" y="0" type="line"/>
      <point x="515" y="66" type="line"/>
    </contour>
  </outline>
</glyph>
<glyph name="Iogonek" format="1">
  <advance width="600"/>
  <unicode hex="012E"/>
  <outline>
    <contour>
      <point x="343" y="620" type="line"/>
      <point x="497" y="620" type="line"/>
      <point x="497" y="688" type="line"/>
      <point x="103" y="688" type="line"/>
      <point x="103" y="620" type="line"/>
      <point x="257" y="620" type="line"/>
      <point x="257" y="69" type="line"/>
      <point x="103" y="69" type="line"/>
      <point x="103" y="0" type="line"/>
      <point x="249" y="0" type="line"/>
      <point x="176" y="-34"/>
      <point x="144" y="-78"/>
      <point x="144" y="-131" type="curve" smooth="yes"/>
      <point x="144" y="-186"/>
      <point x="189" y="-229"/>
      <point x="265" y="-229" type="curve" smooth="yes"/>
      <point x="292" y="-229"/>
      <point x="309" y="-226"/>
      <point x="329" y="-222" type="curve"/>
      <point x="337" y="-155" type="line"/>
      <point x="312" y="-161"/>
      <point x="296" y="-162"/>
      <point x="275" y="-162" type="curve" smooth="yes"/>
      <point x="234" y="-162"/>
      <point x="220" y="-144"/>
      <point x="220" y="-115" type="curve" smooth="yes"/>
      <point x="220" y="-79"/>
      <point x="241" y="-46"/>
      <point x="344" y="0" type="curve"/>
      <point x="497" y="0" type="line"/>
      <point x="497" y="69" type="line"/>
      <point x="343" y="69" type="line"/>
    </contour>
  </outline>
</glyph>
<glyph name="iogonek" format="1">
  <advance width="600"/>
  <unicode hex="012F"/>
  <outline>
    <contour>
      <point x="300" y="655" type="curve" smooth="yes"/>
      <point x="337" y="655"/>
      <point x="361" y="680"/>
      <point x="361" y="714" type="curve" smooth="yes"/>
      <point x="361" y="747"/>
      <point x="337" y="773"/>
      <point x="300" y="773" type="curve" smooth="yes"/>
      <point x="264" y="773"/>
      <point x="240" y="747"/>
      <point x="240" y="714" type="curve" smooth="yes"/>
      <point x="240" y="680"/>
      <point x="264" y="655"/>
    </contour>
    <contour>
      <point x="515" y="66" type="line"/>
      <point x="367" y="66" type="line"/>
      <point x="367" y="526" type="line"/>
      <point x="126" y="526" type="line"/>
      <point x="126" y="461" type="line"/>
      <point x="284" y="461" type="line"/>
      <point x="284" y="66" type="line"/>
      <point x="121" y="66" type="line"/>
      <point x="121" y="0" type="line"/>
      <point x="272" y="0" type="line"/>
      <point x="199" y="-34"/>
      <point x="167" y="-78"/>
      <point x="167" y="-131" type="curve" smooth="yes"/>
      <point x="167" y="-186"/>
      <point x="212" y="-229"/>
      <point x="288" y="-229" type="curve" smooth="yes"/>
      <point x="315" y="-229"/>
      <point x="332" y="-226"/>
      <point x="352" y="-222" type="curve"/>
      <point x="360" y="-155" type="line"/>
      <point x="335" y="-161"/>
      <point x="319" y="-162"/>
      <point x="298" y="-162" type="curve" smooth="yes"/>
      <point x="257" y="-162"/>
      <point x="243" y="-144"/>
      <point x="243" y="-115" type="curve" smooth="yes"/>
      <point x="243" y="-79"/>
      <point x="264" y="-46"/>
      <point x="367" y="0" type="curve"/>
      <point x="515" y="0" type="line"/>
    </contour>
  </outline>
</glyph>
<glyph name="Idotaccent" format="1">
  <advance width="600"/>
  <unicode hex="0130"/>
  <outline>
    <contour>
      <point x="299" y="892" type="curve" smooth="yes"/>
      <point x="263" y="892"/>
      <point x="239" y="866"/>
      <point x="239" y="833" type="curve" smooth="yes"/>
      <point x="239" y="799"/>
      <point x="263" y="774"/>
      <point x="299" y="774" type="curve" smooth="yes"/>
      <point x="336" y="774"/>
      <point x="360" y="799"/>
      <point x="360" y="833" type="curve" smooth="yes"/>
      <point x="360" y="866"/>
      <point x="336" y="892"/>
    </contour>
    <contour>
      <point x="497" y="620" type="line"/>
      <point x="497" y="688" type="line"/>
      <point x="103" y="688" type="line"/>
      <point x="103" y="620" type="line"/>
      <point x="257" y="620" type="line"/>
      <point x="257" y="69" type="line"/>
      <point x="103" y="69" type="line"/>
      <point x="103" y="0" type="line"/>
      <point x="497" y="0" type="line"/>
      <point x="497" y="69" type="line"/>
      <point x="343" y="69" type="line"/>
      <point x="343" y="620" type="line"/>
    </contour>
  </outline>
</glyph>
<glyph name="dotlessi" format="1">
  <advance width="600"/>
  <unicode hex="0131"/>
  <outline>
    <contour>
      <point x="367" y="66" type="line"/>
      <point x="367" y="526" type="line"/>
      <point x="126" y="526" type="line"/>
      <point x="126" y="461" type="line"/>
      <point x="284" y="461" type="line"/>
      <point x="284" y="66" type="line"/>
      <point x="121" y="66" type="line"/>
      <point x="121" y="0" type="line"/>
      <point x="515" y="0" type="line"/>
      <point x="515" y="66" type="line"/>
    </contour>
  </outline>
</glyph>
<glyph name="IJ" format="1">
  <advance width="600"/>
  <unicode hex="0132"/>
  <outline>
    <contour>
      <point x="195" y="-71" type="curve"/>
      <point x="205" y="-135" type="line"/>
      <point x="471" y="-112"/>
      <point x="532" y="33"/>
      <point x="532" y="188" type="curve" smooth="yes"/>
      <point x="532" y="688" type="line"/>
      <point x="11" y="688" type="line"/>
      <point x="11" y="617" type="line"/>
      <point x="112" y="617" type="line"/>
      <point x="112" y="71" type="line"/>
      <point x="11" y="71" type="line"/>
      <point x="11" y="0" type="line"/>
      <point x="280" y="0" type="line"/>
      <point x="280" y="71" type="line"/>
      <point x="200" y="71" type="line"/>
      <point x="200" y="617" type="line"/>
      <point x="446" y="617" type="line"/>
      <point x="446" y="194" type="line" smooth="yes"/>
      <point x="446" y="45"/>
      <point x="398" y="-51"/>
    </contour>
  </outline>
</glyph>
<glyph name="ij" format="1">
  <advance width="600"/>
  <unicode hex="0133"/>
  <outline>
    <contour>
      <point x="448" y="773" type="curve" smooth="yes"/>
      <point x="412" y="773"/>
      <point x="388" y="747"/>
      <point x="388" y="714" type="curve" smooth="yes"/>
      <point x="388" y="680"/>
      <point x="412" y="655"/>
      <point x="448" y="655" type="curve" smooth="yes"/>
      <point x="484" y="655"/>
      <point x="509" y="680"/>
      <point x="509" y="714" type="curve" smooth="yes"/>
      <point x="509" y="747"/>
      <point x="484" y="773"/>
    </contour>
    <contour>
      <point x="184" y="773" type="curve" smooth="yes"/>
      <point x="149" y="773"/>
      <point x="124" y="747"/>
      <point x="124" y="714" type="curve" smooth="yes"/>
      <point x="124" y="680"/>
      <point x="149" y="655"/>
      <point x="184" y="655" type="curve" smooth="yes"/>
      <point x="220" y="655"/>
      <point x="245" y="680"/>
      <point x="245" y="714" type="curve" smooth="yes"/>
      <point x="245" y="747"/>
      <point x="220" y="773"/>
    </contour>
    <contour>
      <point x="500" y="54" type="curve" smooth="yes"/>
      <point x="500" y="526" type="line"/>
      <point x="54" y="526" type="line"/>
      <point x="54" y="463" type="line"/>
      <point x="143" y="463" type="line"/>
      <point x="143" y="66" type="line"/>
      <point x="49" y="66" type="line"/>
      <point x="49" y="0" type="line"/>
      <point x="319" y="0" type="line"/>
      <point x="319" y="66" type="line"/>
      <point x="222" y="66" type="line"/>
      <point x="222" y="463" type="line"/>
      <point x="419" y="463" type="line"/>
      <point x="419" y="49" type="line" smooth="yes"/>
      <point x="419" y="-62"/>
      <point x="315" y="-110"/>
      <point x="220" y="-147" type="curve"/>
      <point x="245" y="-212" type="line"/>
      <point x="385" y="-166"/>
      <point x="500" y="-91"/>
    </contour>
  </outline>
</glyph>
<glyph name="jcircumflex" format="1">
  <advance width="600"/>
  <unicode hex="0135"/>
  <outline>
    <contour>
      <point x="205" y="670" type="line"/>
      <point x="245" y="629" type="line"/>
      <point x="369" y="720" type="line"/>
      <point x="493" y="629" type="line"/>
      <point x="531" y="670" type="line"/>
      <point x="397" y="789" type="line"/>
      <point x="341" y="789" type="line"/>
    </contour>
    <contour>
      <point x="445" y="83" type="curve" smooth="yes"/>
      <point x="445" y="526" type="line"/>
      <point x="142" y="526" type="line"/>
      <point x="142" y="461" type="line"/>
      <point x="362" y="461" type="line"/>
      <point x="362" y="78" type="line" smooth="yes"/>
      <point x="362" y="-63"/>
      <point x="252" y="-122"/>
      <point x="96" y="-148" type="curve"/>
      <point x="110" y="-212" type="line"/>
      <point x="321" y="-176"/>
      <point x="445" y="-92"/>
    </contour>
  </outline>
</glyph>
<glyph name="Kcommaaccent" format="1">
  <advance width="600"/>
  <unicode hex="0136"/>
  <outline>
    <contour>
      <point x="468" y="688" type="line"/>
      <point x="196" y="368" type="line"/>
      <point x="479" y="0" type="line"/>
      <point x="586" y="0" type="line"/>
      <point x="297" y="373" type="line"/>
      <point x="567" y="688" type="line"/>
    </contour>
    <contour>
      <point x="106" y="0" type="line"/>
      <point x="191" y="0" type="line"/>
      <point x="191" y="688" type="line"/>
      <point x="106" y="688" type="line"/>
    </contour>
    <contour>
      <point x="326" y="-71" type="curve" smooth="yes"/>
      <point x="296" y="-71"/>
      <point x="272" y="-93"/>
      <point x="272" y="-124" type="curve" smooth="yes"/>
      <point x="272" y="-141"/>
      <point x="281" y="-158"/>
      <point x="294" y="-168" type="curve"/>
      <point x="265" y="-286" type="line"/>
      <point x="315" y="-286" type="line"/>
      <point x="365" y="-178" type="line" smooth="yes"/>
      <point x="376" y="-155"/>
      <point x="380" y="-141"/>
      <point x="380" y="-124" type="curve" smooth="yes"/>
      <point x="380" y="-93"/>
      <point x="357" y="-71"/>
    </contour>
  </outline>
</glyph>
<glyph name="kcommaaccent" format="1">
  <advance width="600"/>
  <unicode hex="0137"/>
  <outline>
    <contour>
      <point x="189" y="0" type="line"/>
      <point x="189" y="749" type="line"/>
      <point x="106" y="739" type="line"/>
      <point x="106" y="0" type="line"/>
    </contour>
    <contour>
      <point x="303" y="289" type="line"/>
      <point x="541" y="526" type="line"/>
      <point x="433" y="526" type="line"/>
      <point x="199" y="288" type="line"/>
      <point x="459" y="0" type="line"/>
      <point x="569" y="0" type="line"/>
    </contour>
    <contour>
      <point x="309" y="-71" type="curve" smooth="yes"/>
      <point x="279" y="-71"/>
      <point x="255" y="-93"/>
      <point x="255" y="-124" type="curve" smooth="yes"/>
      <point x="255" y="-141"/>
      <point x="264" y="-158"/>
      <point x="277" y="-168" type="curve"/>
      <point x="248" y="-286" type="line"/>
      <point x="298" y="-286" type="line"/>
      <point x="348" y="-178" type="line" smooth="yes"/>
      <point x="359" y="-155"/>
      <point x="363" y="-141"/>
      <point x="363" y="-124" type="curve" smooth="yes"/>
      <point x="363" y="-93"/>
      <point x="340" y="-71"/>
    </contour>
  </outline>
</glyph>
<glyph name="kgreenlandic" format="1">
  <advance width="600"/>
  <unicode hex="0138"/>
  <outline>
    <contour>
      <point x="296" y="288" type="line"/>
      <point x="535" y="526" type="line"/>
      <point x="427" y="526" type="line"/>
      <point x="193" y="283" type="line"/>
      <point x="453" y="0" type="line"/>
      <point x="563" y="0" type="line"/>
    </contour>
    <contour>
      <point x="184" y="0" type="line"/>
      <point x="184" y="526" type="line"/>
      <point x="101" y="526" type="line"/>
      <point x="101" y="0" type="line"/>
    </contour>
  </outline>
</glyph>
<glyph name="Lacute" format="1">
  <advance width="600"/>
  <unicode hex="0139"/>
  <outline>
    <contour>
      <point x="299" y="834" type="line"/>
      <point x="262" y="905" type="line"/>
      <point x="64" y="800" type="line"/>
      <point x="86" y="756" type="line"/>
    </contour>
    <contour>
      <point x="136" y="688" type="line"/>
      <point x="136" y="0" type="line"/>
      <point x="526" y="0" type="line"/>
      <point x="536" y="77" type="line"/>
      <point x="222" y="77" type="line"/>
      <point x="222" y="688" type="line"/>
    </contour>
  </outline>
</glyph>
<glyph name="lacute" format="1">
  <advance width="600"/>
  <unicode hex="013A"/>
  <outline>
    <contour>
      <point x="335" y="997" type="line"/>
      <point x="150" y="882" type="line"/>
      <point x="178" y="836" type="line"/>
      <point x="379" y="926" type="line"/>
    </contour>
    <contour>
      <point x="305" y="129" type="curve" smooth="yes"/>
      <point x="305" y="739" type="line"/>
      <point x="60" y="739" type="line"/>
      <point x="60" y="673" type="line"/>
      <point x="222" y="673" type="line"/>
      <point x="222" y="134" type="line" smooth="yes"/>
      <point x="222" y="43"/>
      <point x="286" y="-11"/>
      <point x="378" y="-11" type="curve" smooth="yes"/>
      <point x="432" y="-11"/>
      <point x="475" y="1"/>
      <point x="503" y="16" type="curve"/>
      <point x="481" y="76" type="line"/>
      <point x="452" y="65"/>
      <point x="424" y="58"/>
      <point x="392" y="58" type="curve" smooth="yes"/>
      <point x="341" y="58"/>
      <point x="305" y="77"/>
    </contour>
  </outline>
</glyph>
<glyph name="Lcommaaccent" format="1">
  <advance width="600"/>
  <unicode hex="013B"/>
  <outline>
    <contour>
      <point x="136" y="688" type="line"/>
      <point x="136" y="0" type="line"/>
      <point x="526" y="0" type="line"/>
      <point x="536" y="77" type="line"/>
      <point x="222" y="77" type="line"/>
      <point x="222" y="688" type="line"/>
    </contour>
    <contour>
      <point x="335" y="-71" type="curve" smooth="yes"/>
      <point x="305" y="-71"/>
      <point x="281" y="-93"/>
      <point x="281" y="-124" type="curve" smooth="yes"/>
      <point x="281" y="-141"/>
      <point x="290" y="-158"/>
      <point x="303" y="-168" type="curve"/>
      <point x="274" y="-286" type="line"/>
      <point x="324" y="-286" type="line"/>
      <point x="374" y="-178" type="line" smooth="yes"/>
      <point x="385" y="-155"/>
      <point x="389" y="-141"/>
      <point x="389" y="-124" type="curve" smooth="yes"/>
      <point x="389" y="-93"/>
      <point x="366" y="-71"/>
    </contour>
  </outline>
</glyph>
<glyph name="lcommaaccent" format="1">
  <advance width="600"/>
  <unicode hex="013C"/>
  <outline>
    <contour>
      <point x="305" y="129" type="curve" smooth="yes"/>
      <point x="305" y="739" type="line"/>
      <point x="60" y="739" type="line"/>
      <point x="60" y="673" type="line"/>
      <point x="222" y="673" type="line"/>
      <point x="222" y="134" type="line" smooth="yes"/>
      <point x="222" y="43"/>
      <point x="286" y="-11"/>
      <point x="378" y="-11" type="curve" smooth="yes"/>
      <point x="432" y="-11"/>
      <point x="475" y="1"/>
      <point x="503" y="16" type="curve"/>
      <point x="481" y="76" type="line"/>
      <point x="452" y="65"/>
      <point x="424" y="58"/>
      <point x="392" y="58" type="curve" smooth="yes"/>
      <point x="341" y="58"/>
      <point x="305" y="77"/>
    </contour>
    <contour>
      <point x="364" y="-71" type="curve" smooth="yes"/>
      <point x="334" y="-71"/>
      <point x="310" y="-93"/>
      <point x="310" y="-124" type="curve" smooth="yes"/>
      <point x="310" y="-141"/>
      <point x="319" y="-158"/>
      <point x="332" y="-168" type="curve"/>
      <point x="303" y="-286" type="line"/>
      <point x="353" y="-286" type="line"/>
      <point x="403" y="-178" type="line" smooth="yes"/>
      <point x="414" y="-155"/>
      <point x="418" y="-141"/>
      <point x="418" y="-124" type="curve" smooth="yes"/>
      <point x="418" y="-93"/>
      <point x="395" y="-71"/>
    </contour>
  </outline>
</glyph>
<glyph name="Lcaron" format="1">
  <advance width="600"/>
  <unicode hex="013D"/>
  <outline>
    <contour>
      <point x="382" y="687" type="line"/>
      <point x="307" y="696" type="line"/>
      <point x="282" y="517" type="line"/>
      <point x="329" y="510" type="line"/>
    </contour>
    <contour>
      <point x="136" y="688" type="line"/>
      <point x="136" y="0" type="line"/>
      <point x="526" y="0" type="line"/>
      <point x="536" y="77" type="line"/>
      <point x="222" y="77" type="line"/>
      <point x="222" y="688" type="line"/>
    </contour>
  </outline>
</glyph>
<glyph name="lcaron" format="1">
  <advance width="600"/>
  <unicode hex="013E"/>
  <outline>
    <contour>
      <point x="456" y="738" type="line"/>
      <point x="381" y="747" type="line"/>
      <point x="356" y="568" type="line"/>
      <point x="403" y="561" type="line"/>
    </contour>
    <contour>
      <point x="305" y="129" type="curve" smooth="yes"/>
      <point x="305" y="739" type="line"/>
      <point x="60" y="739" type="line"/>
      <point x="60" y="673" type="line"/>
      <point x="222" y="673" type="line"/>
      <point x="222" y="134" type="line" smooth="yes"/>
      <point x="222" y="43"/>
      <point x="286" y="-11"/>
      <point x="378" y="-11" type="curve" smooth="yes"/>
      <point x="432" y="-11"/>
      <point x="475" y="1"/>
      <point x="503" y="16" type="curve"/>
      <point x="481" y="76" type="line"/>
      <point x="452" y="65"/>
      <point x="424" y="58"/>
      <point x="392" y="58" type="curve" smooth="yes"/>
      <point x="341" y="58"/>
      <point x="305" y="77"/>
    </contour>
  </outline>
</glyph>
<glyph name="Ldot" format="1">
  <advance width="600"/>
  <unicode hex="013F"/>
  <outline>
    <contour>
      <point x="136" y="688" type="line"/>
      <point x="136" y="0" type="line"/>
      <point x="526" y="0" type="line"/>
      <point x="536" y="77" type="line"/>
      <point x="222" y="77" type="line"/>
      <point x="222" y="688" type="line"/>
    </contour>
    <contour>
      <point x="472" y="437" type="curve" smooth="yes"/>
      <point x="436" y="437"/>
      <point x="412" y="411"/>
      <point x="412" y="378" type="curve" smooth="yes"/>
      <point x="412" y="344"/>
      <point x="436" y="319"/>
      <point x="472" y="319" type="curve" smooth="yes"/>
      <point x="509" y="319"/>
      <point x="533" y="344"/>
      <point x="533" y="378" type="curve" smooth="yes"/>
      <point x="533" y="411"/>
      <point x="509" y="437"/>
    </contour>
  </outline>
</glyph>
<glyph name="ldot" format="1">
  <advance width="600"/>
  <unicode hex="0140"/>
  <outline>
    <contour>
      <point x="305" y="129" type="curve" smooth="yes"/>
      <point x="305" y="739" type="line"/>
      <point x="60" y="739" type="line"/>
      <point x="60" y="673" type="line"/>
      <point x="222" y="673" type="line"/>
      <point x="222" y="134" type="line" smooth="yes"/>
      <point x="222" y="43"/>
      <point x="286" y="-11"/>
      <point x="378" y="-11" type="curve" smooth="yes"/>
      <point x="432" y="-11"/>
      <point x="475" y="1"/>
      <point x="503" y="16" type="curve"/>
      <point x="481" y="76" type="line"/>
      <point x="452" y="65"/>
      <point x="424" y="58"/>
      <point x="392" y="58" type="curve" smooth="yes"/>
      <point x="341" y="58"/>
      <point x="305" y="77"/>
    </contour>
    <contour>
      <point x="560" y="441" type="curve" smooth="yes"/>
      <point x="524" y="441"/>
      <point x="500" y="415"/>
      <point x="500" y="382" type="curve" smooth="yes"/>
      <point x="500" y="348"/>
      <point x="524" y="323"/>
      <point x="560" y="323" type="curve" smooth="yes"/>
      <point x="597" y="323"/>
      <point x="621" y="348"/>
      <point x="621" y="382" type="curve" smooth="yes"/>
      <point x="621" y="415"/>
      <point x="597" y="441"/>
    </contour>
  </outline>
</glyph>
<glyph name="Lslash" format="1">
  <advance width="600"/>
  <unicode hex="0141"/>
  <outline>
    <contour>
      <point x="534" y="77" type="line"/>
      <point x="220" y="77" type="line"/>
      <point x="220" y="322" type="line"/>
      <point x="422" y="447" type="line"/>
      <point x="385" y="502" type="line"/>
      <point x="220" y="399" type="line"/>
      <point x="220" y="688" type="line"/>
      <point x="134" y="688" type="line"/>
      <point x="134" y="346" type="line"/>
      <point x="41" y="289" type="line"/>
      <point x="77" y="233" type="line"/>
      <point x="134" y="268" type="line"/>
      <point x="134" y="0" type="line"/>
      <point x="524" y="0" type="line"/>
    </contour>
  </outline>
</glyph>
<glyph name="lslash" format="1">
  <advance width="600"/>
  <unicode hex="0142"/>
  <outline>
    <contour>
      <point x="503" y="16" type="curve"/>
      <point x="481" y="76" type="line"/>
      <point x="452" y="65"/>
      <point x="424" y="58"/>
      <point x="392" y="58" type="curve" smooth="yes"/>
      <point x="341" y="58"/>
      <point x="305" y="77"/>
      <point x="305" y="129" type="curve" smooth="yes"/>
      <point x="305" y="357" type="line"/>
      <point x="430" y="435" type="line"/>
      <point x="395" y="489" type="line"/>
      <point x="305" y="433" type="line"/>
      <point x="305" y="739" type="line"/>
      <point x="60" y="739" type="line"/>
      <point x="60" y="673" type="line"/>
      <point x="222" y="673" type="line"/>
      <point x="222" y="381" type="line"/>
      <point x="119" y="319" type="line"/>
      <point x="154" y="265" type="line"/>
      <point x="222" y="306" type="line"/>
      <point x="222" y="134" type="line" smooth="yes"/>
      <point x="222" y="43"/>
      <point x="286" y="-11"/>
      <point x="378" y="-11" type="curve" smooth="yes"/>
      <point x="432" y="-11"/>
      <point x="475" y="1"/>
    </contour>
  </outline>
</glyph>
<glyph name="Ncommaaccent" format="1">
  <advance width="600"/>
  <unicode hex="0145"/>
  <outline>
    <contour>
      <point x="156" y="589" type="line"/>
      <point x="396" y="0" type="line"/>
      <point x="516" y="0" type="line"/>
      <point x="516" y="688" type="line"/>
      <point x="436" y="688" type="line"/>
      <point x="436" y="343" type="line" smooth="yes"/>
      <point x="436" y="219"/>
      <point x="447" y="108"/>
      <point x="448" y="96" type="curve"/>
      <point x="444" y="96" type="line"/>
      <point x="200" y="688" type="line"/>
      <point x="84" y="688" type="line"/>
      <point x="84" y="0" type="line"/>
      <point x="164" y="0" type="line"/>
      <point x="164" y="346" type="line" smooth="yes"/>
      <point x="164" y="452"/>
      <point x="153" y="576"/>
      <point x="152" y="589" type="curve"/>
    </contour>
    <contour>
      <point x="303" y="-71" type="curve" smooth="yes"/>
      <point x="273" y="-71"/>
      <point x="249" y="-93"/>
      <point x="249" y="-124" type="curve" smooth="yes"/>
      <point x="249" y="-141"/>
      <point x="258" y="-158"/>
      <point x="271" y="-168" type="curve"/>
      <point x="242" y="-286" type="line"/>
      <point x="292" y="-286" type="line"/>
      <point x="342" y="-178" type="line" smooth="yes"/>
      <point x="353" y="-155"/>
      <point x="357" y="-141"/>
      <point x="357" y="-124" type="curve" smooth="yes"/>
      <point x="357" y="-93"/>
      <point x="334" y="-71"/>
    </contour>
  </outline>
</glyph>
<glyph name="Ncaron" format="1">
  <advance width="600"/>
  <unicode hex="0147"/>
  <outline>
    <contour>
      <point x="462" y="862" type="line"/>
      <point x="425" y="904" type="line"/>
      <point x="299" y="823" type="line"/>
      <point x="174" y="904" type="line"/>
      <point x="136" y="862" type="line"/>
      <point x="272" y="754" type="line"/>
      <point x="328" y="754" type="line"/>
    </contour>
    <contour>
      <point x="156" y="589" type="line"/>
      <point x="396" y="0" type="line"/>
      <point x="516" y="0" type="line"/>
      <point x="516" y="688" type="line"/>
      <point x="436" y="688" type="line"/>
      <point x="436" y="343" type="line" smooth="yes"/>
      <point x="436" y="219"/>
      <point x="447" y="108"/>
      <point x="448" y="96" type="curve"/>
      <point x="444" y="96" type="line"/>
      <point x="200" y="688" type="line"/>
      <point x="84" y="688" type="line"/>
      <point x="84" y="0" type="line"/>
      <point x="164" y="0" type="line"/>
      <point x="164" y="346" type="line" smooth="yes"/>
      <point x="164" y="452"/>
      <point x="153" y="576"/>
      <point x="152" y="589" type="curve"/>
    </contour>
  </outline>
</glyph>
<glyph name="ncaron" format="1">
  <advance width="600"/>
  <unicode hex="0148"/>
  <outline>
    <contour>
      <point x="463" y="750" type="line"/>
      <point x="425" y="791" type="line"/>
      <point x="301" y="700" type="line"/>
      <point x="177" y="791" type="line"/>
      <point x="137" y="750" type="line"/>
      <point x="273" y="631" type="line"/>
      <point x="329" y="631" type="line"/>
    </contour>
    <contour>
      <point x="101" y="526" type="line"/>
      <point x="101" y="0" type="line"/>
      <point x="184" y="0" type="line"/>
      <point x="184" y="384" type="line"/>
      <point x="211" y="425"/>
      <point x="264" y="472"/>
      <point x="327" y="472" type="curve" smooth="yes"/>
      <point x="407" y="472"/>
      <point x="417" y="428"/>
      <point x="417" y="320" type="curve" smooth="yes"/>
      <point x="417" y="0" type="line"/>
      <point x="500" y="0" type="line"/>
      <point x="500" y="382" type="line" smooth="yes"/>
      <point x="500" y="480"/>
      <point x="455" y="538"/>
      <point x="352" y="538" type="curve" smooth="yes"/>
      <point x="290" y="538"/>
      <point x="221" y="507"/>
      <point x="178" y="453" type="curve"/>
      <point x="172" y="526" type="line"/>
    </contour>
  </outline>
</glyph>
<glyph name="napostrophe" format="1">
  <advance width="600"/>
  <unicode hex="0149"/>
  <outline>
    <contour>
      <point x="98" y="749" type="curve" smooth="yes"/>
      <point x="67" y="749"/>
      <point x="42" y="726"/>
      <point x="42" y="696" type="curve" smooth="yes"/>
      <point x="42" y="678"/>
      <point x="52" y="663"/>
      <point x="65" y="651" type="curve"/>
      <point x="35" y="530" type="line"/>
      <point x="84" y="530" type="line"/>
      <point x="126" y="619" type="line" smooth="yes"/>
      <point x="148" y="665"/>
      <point x="152" y="679"/>
      <point x="152" y="695" type="curve" smooth="yes"/>
      <point x="152" y="726"/>
      <point x="128" y="749"/>
    </contour>
    <contour>
      <point x="109" y="526" type="line"/>
      <point x="109" y="0" type="line"/>
      <point x="192" y="0" type="line"/>
      <point x="192" y="384" type="line"/>
      <point x="220" y="425"/>
      <point x="273" y="472"/>
      <point x="335" y="472" type="curve" smooth="yes"/>
      <point x="415" y="472"/>
      <point x="426" y="428"/>
      <point x="426" y="320" type="curve" smooth="yes"/>
      <point x="426" y="0" type="line"/>
      <point x="509" y="0" type="line"/>
      <point x="509" y="382" type="line" smooth="yes"/>
      <point x="509" y="480"/>
      <point x="464" y="538"/>
      <point x="361" y="538" type="curve" smooth="yes"/>
      <point x="299" y="538"/>
      <point x="229" y="507"/>
      <point x="187" y="453" type="curve"/>
      <point x="180" y="526" type="line"/>
    </contour>
  </outline>
</glyph>
<glyph name="Eng" format="1">
  <advance width="600"/>
  <unicode hex="014A"/>
  <outline>
    <contour>
      <point x="516" y="-6" type="curve" smooth="yes"/>
      <point x="516" y="688" type="line"/>
      <point x="436" y="688" type="line"/>
      <point x="436" y="343" type="line" smooth="yes"/>
      <point x="436" y="219"/>
      <point x="447" y="108"/>
      <point x="448" y="96" type="curve"/>
      <point x="444" y="96" type="line"/>
      <point x="200" y="688" type="line"/>
      <point x="84" y="688" type="line"/>
      <point x="84" y="0" type="line"/>
      <point x="164" y="0" type="line"/>
      <point x="164" y="346" type="line" smooth="yes"/>
      <point x="164" y="452"/>
      <point x="153" y="576"/>
      <point x="152" y="589" type="curve"/>
      <point x="156" y="589" type="line"/>
      <point x="396" y="0" type="line"/>
      <point x="431" y="0" type="line"/>
      <point x="432" y="-70"/>
      <point x="411" y="-109"/>
      <point x="320" y="-144" type="curve"/>
      <point x="343" y="-212" type="line"/>
      <point x="452" y="-174"/>
      <point x="516" y="-113"/>
    </contour>
  </outline>
</glyph>
<glyph name="omacron" format="1">
  <advance width="600"/>
  <unicode hex="014D"/>
  <outline>
    <contour>
      <point x="165" y="676" type="line"/>
      <point x="434" y="676" type="line"/>
      <point x="434" y="740" type="line"/>
      <point x="165" y="740" type="line"/>
    </contour>
    <contour>
      <point x="301" y="538" type="curve" smooth="yes"/>
      <point x="153" y="538"/>
      <point x="74" y="425"/>
      <point x="74" y="263" type="curve" smooth="yes"/>
      <point x="74" y="97"/>
      <point x="152" y="-11"/>
      <point x="300" y="-11" type="curve" smooth="yes"/>
      <point x="447" y="-11"/>
      <point x="526" y="103"/>
      <point x="526" y="264" type="curve" smooth="yes"/>
      <point x="526" y="430"/>
      <point x="449" y="538"/>
    </contour>
    <contour>
      <point x="301" y="470" type="curve" smooth="yes"/>
      <point x="391" y="470"/>
      <point x="437" y="404"/>
      <point x="437" y="264" type="curve" smooth="yes"/>
      <point x="437" y="123"/>
      <point x="391" y="57"/>
      <point x="300" y="57" type="curve" smooth="yes"/>
      <point x="209" y="57"/>
      <point x="163" y="123"/>
      <point x="163" y="263" type="curve" smooth="yes"/>
      <point x="163" y="404"/>
      <point x="210" y="470"/>
    </contour>
  </outline>
</glyph>
